<svg width="20" height="20" viewBox="0 0 20 20" fill="none" xmlns="http://www.w3.org/2000/svg">
<g clip-path="url(#clip0_45_10485)">
<path d="M18.3327 9.2333V9.99997C18.3317 11.797 17.7498 13.5455 16.6738 14.9848C15.5978 16.4241 14.0854 17.477 12.3621 17.9866C10.6389 18.4961 8.79707 18.4349 7.11141 17.8121C5.42575 17.1894 3.98656 16.0384 3.00848 14.5309C2.0304 13.0233 1.56584 11.24 1.68408 9.4469C1.80232 7.65377 2.49702 5.94691 3.66458 4.58086C4.83214 3.21482 6.41 2.26279 8.16284 1.86676C9.91568 1.47073 11.7496 1.65192 13.391 2.3833" stroke="#2DB95D" stroke-width="2" stroke-linecap="round" stroke-linejoin="round"/>
<path d="M18.3333 3.33325L10 11.6749L7.5 9.17492" stroke="#2DB95D" stroke-width="2" stroke-linecap="round" stroke-linejoin="round"/>
</g>
<defs>
<clipPath id="clip0_45_10485">
<rect width="20" height="20" fill="white"/>
</clipPath>
</defs>
</svg>
