<svg width="52" height="52" viewBox="0 0 52 52" fill="none" xmlns="http://www.w3.org/2000/svg">
<path opacity="0.4" d="M39 40.8638H37.3533C35.62 40.8638 33.9733 41.5354 32.76 42.7487L29.055 46.4104C27.365 48.0787 24.6133 48.0787 22.9233 46.4104L19.2183 42.7487C18.005 41.5354 16.3367 40.8638 14.625 40.8638H13C9.40333 40.8638 6.5 37.9821 6.5 34.4288V10.7904C6.5 7.23707 9.40333 4.35547 13 4.35547H39C42.5967 4.35547 45.5 7.23707 45.5 10.7904V34.4288C45.5 37.9605 42.5967 40.8638 39 40.8638Z" fill="url(#paint0_linear_140_6421)"/>
<path d="M22.49 31.439H16.6833C15.73 31.439 14.8417 30.984 14.2783 30.204C13.7367 29.4674 13.6067 28.5574 13.8667 27.6907C14.625 25.3724 16.4883 24.1156 18.135 22.989C19.8683 21.819 20.8433 21.0824 20.8433 19.8257C20.8433 18.6991 19.9333 17.7891 18.8067 17.7891C17.68 17.7891 16.77 18.6991 16.77 19.8257C16.77 20.7141 16.0334 21.4507 15.145 21.4507C14.2567 21.4507 13.52 20.7141 13.52 19.8257C13.52 16.9224 15.8817 14.5391 18.8067 14.5391C21.7317 14.5391 24.0933 16.9007 24.0933 19.8257C24.0933 22.8807 21.7967 24.4406 19.955 25.6973C18.8067 26.4773 17.7233 27.214 17.1817 28.189H22.4683C23.3567 28.189 24.0933 28.9257 24.0933 29.814C24.0933 30.7024 23.3784 31.439 22.49 31.439Z" fill="url(#paint1_linear_140_6421)"/>
<path d="M34.7534 31.4374C33.865 31.4374 33.1284 30.7007 33.1284 29.8124V28.3174H28.8817C28.8817 28.3174 28.8817 28.3174 28.8601 28.3174C27.7984 28.3174 26.8234 27.7541 26.2817 26.8441C25.7401 25.9124 25.7401 24.7641 26.2817 23.8541C27.7551 21.3191 29.4667 18.4373 31.0267 15.924C31.7201 14.819 33.0417 14.3208 34.2767 14.6674C35.5117 15.0358 36.3784 16.1624 36.3567 17.4624V25.0891H36.8334C37.7217 25.0891 38.4584 25.8258 38.4584 26.7141C38.4584 27.6024 37.7217 28.3391 36.8334 28.3391H36.3784V29.8341C36.3784 30.7224 35.6634 31.4374 34.7534 31.4374ZM33.1284 18.7191C31.85 20.7991 30.5284 23.0307 29.3367 25.0674H33.1284V18.7191Z" fill="url(#paint2_linear_140_6421)"/>
<defs>
<linearGradient id="paint0_linear_140_6421" x1="6.5" y1="10.1554" x2="46.0037" y2="10.7801" gradientUnits="userSpaceOnUse">
<stop stop-color="#FA5456"/>
<stop offset="0.0001" stop-color="#F04770"/>
<stop offset="1" stop-color="#FFA000"/>
</linearGradient>
<linearGradient id="paint1_linear_140_6421" x1="13.52" y1="16.8025" x2="24.2313" y2="16.9201" gradientUnits="userSpaceOnUse">
<stop stop-color="#FA5456"/>
<stop offset="0.0001" stop-color="#F04770"/>
<stop offset="1" stop-color="#FFA000"/>
</linearGradient>
<linearGradient id="paint2_linear_140_6421" x1="25.8755" y1="16.8192" x2="38.6219" y2="16.986" gradientUnits="userSpaceOnUse">
<stop stop-color="#FA5456"/>
<stop offset="0.0001" stop-color="#F04770"/>
<stop offset="1" stop-color="#FFA000"/>
</linearGradient>
</defs>
</svg>
