<svg width="9" height="14" viewBox="0 0 9 14" fill="none" xmlns="http://www.w3.org/2000/svg">
<path d="M8.0605 1.76842C8.25763 1.56842 8.36715 1.30526 8.35619 1.03158C8.35619 0.757894 8.24668 0.505262 8.03859 0.305262C7.84146 0.115788 7.56767 -1.61526e-06 7.28292 -1.59037e-06C6.99817 -1.56547e-06 6.72438 0.0947365 6.5163 0.28421L0.3176 6.2421C0.219035 6.33684 0.142372 6.45263 0.0876134 6.57895C0.0328546 6.70526 -6.25763e-07 6.8421 -6.138e-07 6.97895C-6.01837e-07 7.11579 0.0328547 7.25263 0.0876135 7.38947C0.142372 7.51579 0.219035 7.63158 0.317601 7.72632L6.5163 13.6842C6.61486 13.7789 6.73533 13.8632 6.86676 13.9158C7.00913 13.9684 7.1515 14 7.29387 14C7.43625 14 7.58957 13.9789 7.72099 13.9263C7.85241 13.8737 7.97288 13.7895 8.0824 13.6947C8.18097 13.6 8.25763 13.4737 8.31239 13.3474C8.3781 13.2211 8.4 13.0842 8.4 12.9368C8.4 12.8 8.36715 12.6632 8.31239 12.5368C8.25763 12.4105 8.17001 12.2947 8.0605 12.1895L2.63937 6.97895L3.66884 6L8.0605 1.76842Z" fill="#191C27"/>
</svg>
