<svg width="120" height="120" viewBox="0 0 120 120" fill="none" xmlns="http://www.w3.org/2000/svg">
<path opacity="0.4" d="M96.2 27.8998H94.2L77.3 10.9998C75.95 9.6498 73.75 9.6498 72.35 10.9998C71 12.3498 71 14.5498 72.35 15.9498L84.3 27.8998H35.7L47.65 15.9498C49 14.5998 49 12.3998 47.65 10.9998C46.3 9.6498 44.1 9.6498 42.7 10.9998L25.85 27.8998H23.85C19.35 27.8998 10 27.8998 10 40.6998C10 45.5498 11 48.7498 13.1 50.8498C14.3 52.0998 15.75 52.7498 17.3 53.0998C18.75 53.4498 20.3 53.4998 21.8 53.4998H98.2C99.75 53.4998 101.2 53.3998 102.6 53.0998C106.8 52.0998 110 49.0998 110 40.6998C110 27.8998 100.65 27.8998 96.2 27.8998Z" fill="#2DB95D"/>
<path d="M98.2998 53.4998H21.7998C20.3498 53.4998 18.7498 53.4498 17.2998 53.0498L23.5998 91.4998C25.0498 100.1 28.7998 110 45.4498 110H73.4998C90.3498 110 93.3498 101.55 95.1498 92.0998L102.7 53.0498C101.3 53.3998 99.7998 53.4998 98.2998 53.4998ZM74.3998 75.2498L58.1498 90.2498C57.4498 90.8998 56.4998 91.2498 55.5998 91.2498C54.6498 91.2498 53.6998 90.8998 52.9498 90.1498L45.4498 82.6498C43.9998 81.1998 43.9998 78.7998 45.4498 77.3498C46.8998 75.8998 49.2998 75.8998 50.7498 77.3498L55.6998 82.2998L69.2998 69.7498C70.7998 68.3498 73.1998 68.4498 74.5998 69.9498C76.0498 71.4998 75.9498 73.8498 74.3998 75.2498Z" fill="#2DB95D"/>
</svg>
