<svg width="58" height="58" viewBox="0 0 58 58" fill="none" xmlns="http://www.w3.org/2000/svg">
<path d="M23.2462 38.666L26.8712 42.291L34.7254 35.041" stroke="#EA6352" stroke-width="4" stroke-linecap="round" stroke-linejoin="round"/>
<path d="M21.2895 4.83301L12.5411 13.6055" stroke="#EA6352" stroke-width="4" stroke-miterlimit="10" stroke-linecap="round" stroke-linejoin="round"/>
<path d="M36.7078 4.83301L45.4561 13.6055" stroke="#EA6352" stroke-width="4" stroke-miterlimit="10" stroke-linecap="round" stroke-linejoin="round"/>
<path d="M4.83337 18.971C4.83337 14.5002 7.22587 14.1377 10.1984 14.1377H47.8017C50.7742 14.1377 53.1667 14.5002 53.1667 18.971C53.1667 24.1669 50.7742 23.8044 47.8017 23.8044H10.1984C7.22587 23.8044 4.83337 24.1669 4.83337 18.971Z" stroke="#3A4750" stroke-width="4"/>
<path d="M8.45837 24.167L11.8659 45.047C12.6392 49.7353 14.5 53.167 21.4117 53.167H35.9842C43.5 53.167 44.6117 49.8803 45.4817 45.337L49.5417 24.167" stroke="#3A4750" stroke-width="4" stroke-linecap="round"/>
</svg>
