<svg width="52" height="53" viewBox="0 0 52 53" fill="none" xmlns="http://www.w3.org/2000/svg">
<path d="M51.1689 20.5539L50.068 9.5431C50.0329 9.19322 49.878 8.86609 49.6293 8.61746L43.8841 2.87227C43.6355 2.62355 43.3085 2.46856 42.9585 2.43363L31.9476 1.33259C29.3609 1.0735 26.8228 1.97984 24.9843 3.81823L2.23102 26.5714C0.792289 28.01 0 29.9229 0 31.9575C0 33.9921 0.792289 35.9051 2.23102 37.3437L15.1578 50.2705C16.5965 51.7092 18.5094 52.5015 20.544 52.5015C22.5786 52.5015 24.4915 51.7092 25.9301 50.2705L48.6834 27.5173C50.5218 25.6788 51.4277 23.1408 51.1689 20.5539ZM41.3705 16.8762C39.784 18.4627 37.2117 18.4627 35.6252 16.8762C34.0387 15.2897 34.0387 12.7174 35.6252 11.1309C37.2117 9.54442 39.784 9.54442 41.3705 11.1309C42.957 12.7174 42.957 15.2897 41.3705 16.8762Z" fill="url(#paint0_linear_140_5322)"/>
<path d="M31.5469 22.9375L32.3084 22.176C32.9033 21.5811 32.9033 20.6165 32.3084 20.0216C31.7134 19.4266 30.7489 19.4266 30.1539 20.0216L29.2674 20.9081C29.1283 20.8239 28.986 20.7409 28.8366 20.6607C27.0096 19.6796 24.7606 19.8308 22.9672 21.0554C21.327 22.1753 20.4389 23.9533 20.6494 25.6956C20.7552 26.5713 21.0069 27.5284 21.4572 28.7183L15.9862 34.1893C15.3848 33.4556 15.1157 32.8104 14.8558 31.5671C14.6836 30.7435 13.8763 30.2158 13.0528 30.3877C12.2293 30.5598 11.7011 31.367 11.8734 32.1906C12.2861 34.165 12.8618 35.2444 13.8247 36.3508L12.9182 37.2573C12.3232 37.8523 12.3232 38.8168 12.9182 39.4118C13.5131 40.0067 14.4777 40.0067 15.0726 39.4118L16.0749 38.4095C17.0581 39.0325 18.1666 39.3826 19.3443 39.4324C19.4394 39.4365 19.5345 39.4384 19.6294 39.4384C21.0502 39.4384 22.4562 38.9907 23.6175 38.1638C24.7666 37.3453 25.6059 36.189 25.9803 34.9076C26.3985 33.4769 26.2452 31.937 25.537 30.4547C25.3767 30.1192 25.215 29.7748 25.057 29.4272L29.3472 25.137C29.7552 25.8511 29.7582 26.4195 29.7577 26.4597C29.7049 27.2956 30.3372 28.0181 31.1738 28.0756C32.0131 28.1331 32.7404 27.4994 32.798 26.66C32.8583 25.7844 32.5898 24.3364 31.5469 22.9375ZM22.7878 31.7681C23.8614 34.0155 22.3414 35.332 21.8501 35.682C20.9391 36.3309 19.5962 36.639 18.3338 36.1506L22.7647 31.7197C22.7726 31.7359 22.78 31.7517 22.7878 31.7681ZM23.6743 25.33C23.6019 24.7306 23.9988 24.0404 24.6854 23.5716C25.2628 23.1773 26.1368 22.9016 26.9983 23.1773L23.8711 26.3045C23.7799 25.9619 23.7111 25.6341 23.6743 25.33ZM38.8567 13.6432C38.2618 13.0482 38.2618 12.0837 38.8567 11.4887L49.3991 0.946215C49.9941 0.351262 50.9586 0.351262 51.5536 0.946215C52.1485 1.54117 52.1485 2.50571 51.5536 3.10066L41.0113 13.6432C40.4163 14.238 39.4517 14.238 38.8567 13.6432Z" fill="url(#paint1_linear_140_5322)"/>
<defs>
<linearGradient id="paint0_linear_140_5322" x1="-1.32014e-07" y1="8.14789" x2="51.8708" y2="9.05863" gradientUnits="userSpaceOnUse">
<stop stop-color="#FA5456"/>
<stop offset="0.0001" stop-color="#F04770"/>
<stop offset="1" stop-color="#FFA000"/>
</linearGradient>
<linearGradient id="paint1_linear_140_5322" x1="13.0027" y1="39.4962" x2="51.5531" y2="0.945713" gradientUnits="userSpaceOnUse">
<stop stop-color="#FCA296"/>
<stop offset="0.9973" stop-color="#FFDBD6"/>
</linearGradient>
</defs>
</svg>
