<svg width="22" height="20" viewBox="0 0 22 20" fill="none" xmlns="http://www.w3.org/2000/svg">
<path d="M11 19.6516C10.69 19.6516 10.39 19.6116 10.14 19.5216C6.32 18.2116 0.25 13.5616 0.25 6.69156C0.25 3.19156 3.08 0.351562 6.56 0.351562C8.25 0.351562 9.83 1.01156 11 2.19156C12.17 1.01156 13.75 0.351562 15.44 0.351562C18.92 0.351562 21.75 3.20156 21.75 6.69156C21.75 13.5716 15.68 18.2116 11.86 19.5216C11.61 19.6116 11.31 19.6516 11 19.6516ZM6.56 1.85156C3.91 1.85156 1.75 4.02156 1.75 6.69156C1.75 13.5216 8.32 17.3216 10.63 18.1116C10.81 18.1716 11.2 18.1716 11.38 18.1116C13.68 17.3216 20.26 13.5316 20.26 6.69156C20.26 4.02156 18.1 1.85156 15.45 1.85156C13.93 1.85156 12.52 2.56156 11.61 3.79156C11.33 4.17156 10.69 4.17156 10.41 3.79156C9.48 2.55156 8.08 1.85156 6.56 1.85156Z" fill="#FB4D4D"/>
</svg>
