<svg width="30" height="26" viewBox="0 0 30 26" fill="none" xmlns="http://www.w3.org/2000/svg">
<path d="M14.9998 25.8661C14.5865 25.8661 14.1865 25.8128 13.8532 25.6928C8.75984 23.9461 0.666504 17.7461 0.666504 8.58614C0.666504 3.91948 4.43984 0.132812 9.07984 0.132812C11.3332 0.132812 13.4398 1.01281 14.9998 2.58615C16.5598 1.01281 18.6665 0.132812 20.9198 0.132812C25.5598 0.132812 29.3332 3.93281 29.3332 8.58614C29.3332 17.7595 21.2398 23.9461 16.1465 25.6928C15.8132 25.8128 15.4132 25.8661 14.9998 25.8661ZM9.07984 2.13281C5.5465 2.13281 2.6665 5.02614 2.6665 8.58614C2.6665 17.6928 11.4265 22.7595 14.5065 23.8128C14.7465 23.8928 15.2665 23.8928 15.5065 23.8128C18.5732 22.7595 27.3465 17.7061 27.3465 8.58614C27.3465 5.02614 24.4665 2.13281 20.9332 2.13281C18.9065 2.13281 17.0265 3.07948 15.8132 4.71948C15.4398 5.22615 14.5865 5.22615 14.2132 4.71948C12.9732 3.06615 11.1065 2.13281 9.07984 2.13281Z" fill="#191C27"/>
</svg>
