<svg width="120" height="120" viewBox="0 0 120 120" fill="none" xmlns="http://www.w3.org/2000/svg">
<path d="M110 78.5001C110 78.4501 109.95 78.3999 109.9 78.3499C109.7 78.0499 109.45 77.75 109.2 77.5C109.15 77.45 109.1 77.3501 109.05 77.3001C105 72.8001 99.05 70 92.5 70C86.2 70 80.45 72.5999 76.35 76.7999C72.4 80.8499 70 86.4 70 92.5C70 96.7 71.2 100.7 73.25 104.1C74.35 105.95 75.75 107.65 77.35 109.05C77.45 109.1 77.5 109.15 77.55 109.2C77.8 109.45 78.05 109.65 78.35 109.9C78.35 109.9 78.35 109.9 78.4 109.9C78.45 109.95 78.5 110 78.55 110C82.3 113.15 87.15 115 92.5 115C100.7 115 107.85 110.6 111.75 104.1C112.9 102.15 113.8 99.9999 114.35 97.7499C114.8 96.0499 115 94.3 115 92.5C115 87.2 113.15 82.3001 110 78.5001ZM100.9 96.1499H96.25V101C96.25 103.05 94.55 104.75 92.5 104.75C90.45 104.75 88.75 103.05 88.75 101V96.1499H84.1C82.05 96.1499 80.35 94.4499 80.35 92.3999C80.35 90.3499 82.05 88.6499 84.1 88.6499H88.75V84.2001C88.75 82.1501 90.45 80.4501 92.5 80.4501C94.55 80.4501 96.25 82.1501 96.25 84.2001V88.6499H100.9C102.95 88.6499 104.65 90.3499 104.65 92.3999C104.65 94.4499 103 96.1499 100.9 96.1499Z" fill="#EA6352"/>
<path opacity="0.4" d="M96.7501 28.2998L65.3 11.35C62 9.55 58 9.55 54.65 11.35L23.2 28.2998C20.9 29.5498 19.5 31.9999 19.5 34.6999C19.5 37.3999 20.9 39.8498 23.2 41.0998L54.65 58.0498C56.3 58.9498 58.1501 59.3999 59.9501 59.3999C61.7501 59.3999 63.6 58.9498 65.25 58.0498L96.7 41.0998C99 39.8498 100.4 37.3999 100.4 34.6999C100.5 31.9999 99.0501 29.5498 96.7501 28.2998Z" fill="#EA6352"/>
<path opacity="0.4" d="M49.5001 63.9499L20.2501 49.2999C18.0001 48.1499 15.4001 48.2999 13.2501 49.5999C11.1001 50.8999 9.8501 53.2001 9.8501 55.7001V83.3499C9.8501 88.1499 12.5001 92.4499 16.8001 94.5999L46.0501 109.2C47.0501 109.7 48.1501 109.95 49.2501 109.95C50.5501 109.95 51.8501 109.6 53.0001 108.85C55.1501 107.55 56.4001 105.25 56.4001 102.75V75.1001C56.4501 70.4001 53.8001 66.0999 49.5001 63.9499Z" fill="#EA6352"/>
<path opacity="0.4" d="M110.15 55.7483V78.6982C110.1 78.6482 110.05 78.5483 110 78.4983C110 78.4483 109.95 78.3981 109.9 78.3481C109.7 78.0481 109.45 77.7482 109.2 77.4982C109.15 77.4482 109.1 77.3483 109.05 77.2983C105 72.7983 99.0498 69.9982 92.4998 69.9982C86.1998 69.9982 80.4498 72.5981 76.3498 76.7981C72.3998 80.8481 69.9998 86.3982 69.9998 92.4982C69.9998 96.6982 71.1997 100.698 73.2497 104.098C74.0997 105.548 75.1497 106.848 76.2997 108.048L73.9497 109.248C72.9497 109.748 71.8497 109.998 70.7497 109.998C69.4497 109.998 68.1498 109.648 66.9498 108.898C64.8498 107.598 63.5498 105.298 63.5498 102.798V75.1981C63.5498 70.3981 66.1998 66.0981 70.4998 63.9481L99.7498 49.3482C102 48.1982 104.6 48.2982 106.75 49.6482C108.85 50.9482 110.15 53.2483 110.15 55.7483Z" fill="#EA6352"/>
</svg>
