<svg width="22" height="22" viewBox="0 0 22 22" fill="none" xmlns="http://www.w3.org/2000/svg">
<path d="M16.2615 20.8545H5.73817C3.45567 20.8545 1.604 19.0028 1.604 16.7203V10.5512C1.604 8.26867 3.45567 6.41699 5.73817 6.41699H16.2615C18.544 6.41699 20.3957 8.26867 20.3957 10.5512V11.8712C20.3957 12.247 20.084 12.5587 19.7082 12.5587H17.8565C17.5357 12.5587 17.2423 12.6778 17.0315 12.8978L17.0223 12.907C16.7657 13.1545 16.6465 13.4936 16.674 13.842C16.729 14.447 17.3065 14.9328 17.9665 14.9328H19.7082C20.084 14.9328 20.3957 15.2445 20.3957 15.6203V16.7111C20.3957 19.0028 18.544 20.8545 16.2615 20.8545ZM5.73817 7.79199C4.2165 7.79199 2.979 9.0295 2.979 10.5512V16.7203C2.979 18.242 4.2165 19.4795 5.73817 19.4795H16.2615C17.7832 19.4795 19.0207 18.242 19.0207 16.7203V16.317H17.9665C16.5823 16.317 15.409 15.2903 15.299 13.9703C15.2257 13.2186 15.5007 12.4762 16.0507 11.9353C16.5273 11.4495 17.169 11.1837 17.8565 11.1837H19.0207V10.5512C19.0207 9.0295 17.7832 7.79199 16.2615 7.79199H5.73817Z" fill="#191C27"/>
<path d="M2.2915 12.063C1.91567 12.063 1.604 11.7513 1.604 11.3755V7.1864C1.604 5.82056 2.46567 4.58301 3.73984 4.09718L11.0182 1.34718C11.7698 1.06301 12.604 1.16389 13.2548 1.62222C13.9148 2.08056 14.2998 2.82305 14.2998 3.62055V7.10387C14.2998 7.47971 13.9882 7.79137 13.6123 7.79137C13.2365 7.79137 12.9248 7.47971 12.9248 7.10387V3.62055C12.9248 3.27222 12.7598 2.95137 12.4665 2.74971C12.1732 2.54804 11.8248 2.5022 11.4948 2.63054L4.2165 5.38054C3.474 5.6647 2.96984 6.3889 2.96984 7.1864V11.3755C2.979 11.7605 2.66734 12.063 2.2915 12.063Z" fill="#191C27"/>
<path d="M17.9668 16.3169C16.5826 16.3169 15.4093 15.2902 15.2993 13.9702C15.2259 13.2094 15.5009 12.4669 16.0509 11.9261C16.5184 11.4494 17.1601 11.1836 17.8476 11.1836H19.7543C20.6618 11.2111 21.3584 11.9261 21.3584 12.8061V14.6944C21.3584 15.5744 20.6618 16.2894 19.7818 16.3169H17.9668ZM19.7359 12.5586H17.8568C17.5359 12.5586 17.2426 12.6778 17.0318 12.8978C16.7659 13.1544 16.6376 13.5027 16.6743 13.8511C16.7293 14.4561 17.3068 14.9419 17.9668 14.9419H19.7634C19.8826 14.9419 19.9926 14.8319 19.9926 14.6944V12.8061C19.9926 12.6686 19.8826 12.5678 19.7359 12.5586Z" fill="#191C27"/>
<path d="M12.8332 11.6875H6.4165C6.04067 11.6875 5.729 11.3758 5.729 11C5.729 10.6242 6.04067 10.3125 6.4165 10.3125H12.8332C13.209 10.3125 13.5207 10.6242 13.5207 11C13.5207 11.3758 13.209 11.6875 12.8332 11.6875Z" fill="#191C27"/>
</svg>
