<svg width="44" height="44" viewBox="0 0 44 44" fill="none" xmlns="http://www.w3.org/2000/svg">
<circle cx="22" cy="22" r="22" fill="#EA6352"/>
<path d="M19.6959 23.2498C19.6239 23.2498 18.0399 23.2498 17.3199 23.2498C16.9359 23.2498 16.8159 23.1058 16.8159 22.7458C16.8159 21.7858 16.8159 20.8018 16.8159 19.8418C16.8159 19.4578 16.9599 19.3378 17.3199 19.3378H19.6959C19.6959 19.2658 19.6959 17.8738 19.6959 17.2258C19.6959 16.2658 19.8639 15.3538 20.3439 14.5138C20.8479 13.6498 21.5679 13.0738 22.4799 12.7378C23.0799 12.5218 23.6799 12.4258 24.3279 12.4258H26.6799C27.0159 12.4258 27.1599 12.5698 27.1599 12.9058V15.6418C27.1599 15.9778 27.0159 16.1218 26.6799 16.1218C26.0319 16.1218 25.3839 16.1218 24.7359 16.1458C24.0879 16.1458 23.7519 16.4578 23.7519 17.1298C23.7279 17.8498 23.7519 18.5458 23.7519 19.2898H26.5359C26.9199 19.2898 27.0639 19.4338 27.0639 19.8178V22.7218C27.0639 23.1058 26.9439 23.2258 26.5359 23.2258C25.6719 23.2258 23.8239 23.2258 23.7519 23.2258V31.0498C23.7519 31.4578 23.6319 31.6018 23.1999 31.6018C22.1919 31.6018 21.2079 31.6018 20.1999 31.6018C19.8399 31.6018 19.6959 31.4578 19.6959 31.0978C19.6959 28.5778 19.6959 23.3218 19.6959 23.2498Z" fill="white"/>
</svg>
