<svg width="43" height="43" viewBox="0 0 43 43" fill="none" xmlns="http://www.w3.org/2000/svg">
<path d="M5.37497 0H28.2093L40.3124 12.0562V40.3125C40.3124 41.7973 39.1085 43 37.6249 43H5.37497C3.89143 43 2.6875 41.7973 2.6875 40.3125V2.68747C2.6875 1.20268 3.89157 0 5.37497 0Z" fill="#E2574C"/>
<path d="M40.2735 12.0942H30.9062C29.4227 12.0942 28.2188 10.8903 28.2188 9.40674V0.0273438L40.2735 12.0942Z" fill="#B53629"/>
<path d="M30.2319 20.3748C30.6821 20.3748 30.9025 19.9824 30.9025 19.6022C30.9025 19.2084 30.6727 18.8281 30.2319 18.8281H27.668C27.1668 18.8281 26.8873 19.2433 26.8873 19.7016V26.0024C26.8873 26.5641 27.2071 26.8758 27.6398 26.8758C28.0699 26.8758 28.391 26.5641 28.391 26.0024V24.273H29.9417C30.4228 24.273 30.6634 23.8793 30.6634 23.4883C30.6634 23.1054 30.4228 22.725 29.9417 22.725H28.391V20.3748H30.2319ZM21.5661 18.8281H19.6902C19.1809 18.8281 18.8194 19.1775 18.8194 19.6961V26.0078C18.8194 26.6514 19.3394 26.853 19.7116 26.853H21.6802C24.0102 26.853 25.5488 25.3198 25.5488 22.9534C25.5476 20.4514 24.0991 18.8281 21.5661 18.8281ZM21.6562 25.297H20.5126V20.3842H21.5433C23.1034 20.3842 23.7819 21.4311 23.7819 22.8755C23.7819 24.2274 23.1154 25.297 21.6562 25.297ZM14.7842 18.8281H12.9258C12.4004 18.8281 12.1074 19.1747 12.1074 19.7016V26.0024C12.1074 26.5641 12.4433 26.8758 12.8948 26.8758C13.3463 26.8758 13.6822 26.5641 13.6822 26.0024V24.1628H14.8472C16.285 24.1628 17.4715 23.1442 17.4715 21.5061C17.4717 19.9032 16.3268 18.8281 14.7842 18.8281ZM14.7533 22.6848H13.6823V20.3076H14.7533C15.4145 20.3076 15.835 20.8236 15.835 21.4968C15.8337 22.1688 15.4145 22.6848 14.7533 22.6848Z" fill="white"/>
</svg>
