<svg width="52" height="52" viewBox="0 0 52 52" fill="none" xmlns="http://www.w3.org/2000/svg">
<path opacity="0.4" d="M39 40.8638H37.3533C35.62 40.8638 33.9733 41.5354 32.76 42.7487L29.055 46.4104C27.365 48.0787 24.6133 48.0787 22.9233 46.4104L19.2183 42.7487C18.005 41.5354 16.3367 40.8638 14.625 40.8638H13C9.40333 40.8638 6.5 37.9821 6.5 34.4288V10.7904C6.5 7.23707 9.40333 4.35547 13 4.35547H39C42.5967 4.35547 45.5 7.23707 45.5 10.7904V34.4288C45.5 37.9605 42.5967 40.8638 39 40.8638Z" fill="url(#paint0_linear_140_6415)"/>
<path d="M35.9234 20.7336C35.5117 20.1486 34.8184 19.8237 33.9951 19.8237H29.7701C29.4884 19.8237 29.2284 19.7153 29.0551 19.4986C28.8817 19.2819 28.795 19.0003 28.8384 18.697L29.3584 15.317C29.5751 14.3203 28.9034 13.1719 27.9067 12.8469C26.9751 12.5003 25.8701 12.9769 25.4367 13.6269L21.2334 19.8669V19.0869C21.2334 17.5703 20.5834 16.942 18.98 16.942H17.9184C16.3151 16.942 15.665 17.5703 15.665 19.0869V29.4437C15.665 30.9603 16.3151 31.5886 17.9184 31.5886H18.98C20.4967 31.5886 21.1467 31.0036 21.2117 29.6169L24.3967 32.0652C24.83 32.4986 25.805 32.7369 26.4984 32.7369H30.5067C31.8934 32.7369 33.28 31.6969 33.5834 30.4186L36.1184 22.7052C36.4 22.0119 36.3351 21.297 35.9234 20.7336Z" fill="url(#paint1_linear_140_6415)"/>
<defs>
<linearGradient id="paint0_linear_140_6415" x1="6.5" y1="10.1554" x2="46.0037" y2="10.7801" gradientUnits="userSpaceOnUse">
<stop stop-color="#FA5456"/>
<stop offset="0.0001" stop-color="#F04770"/>
<stop offset="1" stop-color="#FFA000"/>
</linearGradient>
<linearGradient id="paint1_linear_140_6415" x1="15.665" y1="15.4099" x2="36.5548" y2="15.788" gradientUnits="userSpaceOnUse">
<stop stop-color="#FA5456"/>
<stop offset="0.0001" stop-color="#F04770"/>
<stop offset="1" stop-color="#FFA000"/>
</linearGradient>
</defs>
</svg>
