<svg width="32" height="32" viewBox="0 0 32 32" fill="none" xmlns="http://www.w3.org/2000/svg">
<path d="M15.9998 30.3346C8.09317 30.3346 1.6665 23.908 1.6665 16.0013C1.6665 8.09464 8.09317 1.66797 15.9998 1.66797C23.9065 1.66797 30.3332 8.09464 30.3332 16.0013C30.3332 23.908 23.9065 30.3346 15.9998 30.3346ZM15.9998 3.66797C9.19984 3.66797 3.6665 9.2013 3.6665 16.0013C3.6665 22.8013 9.19984 28.3346 15.9998 28.3346C22.7998 28.3346 28.3332 22.8013 28.3332 16.0013C28.3332 9.2013 22.7998 3.66797 15.9998 3.66797Z" fill="#292D32"/>
<path d="M16 18.3346C15.4533 18.3346 15 17.8813 15 17.3346V10.668C15 10.1213 15.4533 9.66797 16 9.66797C16.5467 9.66797 17 10.1213 17 10.668V17.3346C17 17.8813 16.5467 18.3346 16 18.3346Z" fill="#292D32"/>
<path d="M15.9998 22.6678C15.8265 22.6678 15.6532 22.6278 15.4932 22.5611C15.3332 22.4945 15.1865 22.4011 15.0532 22.2811C14.9332 22.1478 14.8398 22.0145 14.7732 21.8411C14.7065 21.6811 14.6665 21.5078 14.6665 21.3345C14.6665 21.1611 14.7065 20.9878 14.7732 20.8278C14.8398 20.6678 14.9332 20.5211 15.0532 20.3878C15.1865 20.2678 15.3332 20.1745 15.4932 20.1078C15.8132 19.9745 16.1865 19.9745 16.5065 20.1078C16.6665 20.1745 16.8132 20.2678 16.9465 20.3878C17.0665 20.5211 17.1598 20.6678 17.2265 20.8278C17.2932 20.9878 17.3332 21.1611 17.3332 21.3345C17.3332 21.5078 17.2932 21.6811 17.2265 21.8411C17.1598 22.0145 17.0665 22.1478 16.9465 22.2811C16.8132 22.4011 16.6665 22.4945 16.5065 22.5611C16.3465 22.6278 16.1732 22.6678 15.9998 22.6678Z" fill="#292D32"/>
</svg>
