<svg width="50" height="50" viewBox="0 0 50 50" fill="none" xmlns="http://www.w3.org/2000/svg">
<path opacity="0.4" d="M33.729 4.16602H16.2707C8.68734 4.16602 4.1665 8.68685 4.1665 16.2702V33.7077C4.1665 41.3118 8.68734 45.8327 16.2707 45.8327H33.7082C41.2915 45.8327 45.8123 41.3118 45.8123 33.7285V16.2702C45.8332 8.68685 41.3123 4.16602 33.729 4.16602Z" fill="#EA6352"/>
<path d="M24.9998 33.0827C29.4641 33.0827 33.0832 29.4637 33.0832 24.9994C33.0832 20.535 29.4641 16.916 24.9998 16.916C20.5355 16.916 16.9165 20.535 16.9165 24.9994C16.9165 29.4637 20.5355 33.0827 24.9998 33.0827Z" fill="#EA6352"/>
<path d="M35.4168 15.6255C34.8543 15.6255 34.3335 15.4172 33.9377 15.0214C33.7502 14.813 33.6043 14.5839 33.5002 14.3339C33.396 14.0839 33.3335 13.813 33.3335 13.5422C33.3335 13.2714 33.396 13.0005 33.5002 12.7505C33.6043 12.4797 33.7502 12.2714 33.9377 12.063C34.4168 11.5839 35.146 11.3547 35.8127 11.5005C35.9585 11.5214 36.0835 11.563 36.2085 11.6255C36.3335 11.6672 36.4585 11.7297 36.5835 11.813C36.6877 11.8755 36.7918 11.9797 36.896 12.063C37.0835 12.2714 37.2293 12.4797 37.3335 12.7505C37.4377 13.0005 37.5002 13.2714 37.5002 13.5422C37.5002 13.813 37.4377 14.0839 37.3335 14.3339C37.2293 14.5839 37.0835 14.813 36.896 15.0214C36.6877 15.2089 36.4585 15.3547 36.2085 15.4589C35.9585 15.563 35.6877 15.6255 35.4168 15.6255Z" fill="#EA6352"/>
</svg>
