<svg width="22" height="22" viewBox="0 0 22 22" fill="none" xmlns="http://www.w3.org/2000/svg">
<path d="M11 20.8544C10.3583 20.8544 9.7075 20.6069 9.22166 20.1211L7.65417 18.5719C7.26917 18.1869 6.73751 17.9761 6.19668 17.9761H5.5C3.6025 17.9761 2.0625 16.4453 2.0625 14.5661V4.56525C2.0625 2.68608 3.6025 1.15527 5.5 1.15527H16.5C18.3975 1.15527 19.9375 2.68608 19.9375 4.56525V14.5661C19.9375 16.4453 18.3975 17.9761 16.5 17.9761H15.8033C15.2625 17.9761 14.7308 18.1961 14.3458 18.5719L12.7783 20.1211C12.2925 20.6069 11.6417 20.8544 11 20.8544ZM5.5 2.5211C4.36333 2.5211 3.4375 3.43774 3.4375 4.55607V14.5569C3.4375 15.6844 4.36333 16.5919 5.5 16.5919H6.19668C7.10418 16.5919 7.98417 16.9586 8.62584 17.5911L10.1933 19.1403C10.6425 19.5803 11.3667 19.5803 11.8158 19.1403L13.3833 17.5911C14.025 16.9586 14.905 16.5919 15.8125 16.5919H16.5C17.6367 16.5919 18.5625 15.6753 18.5625 14.5569V4.55607C18.5625 3.42857 17.6367 2.5211 16.5 2.5211H5.5Z" fill="#191C27"/>
<path d="M10.9996 14.4378C10.8346 14.4378 10.6696 14.4103 10.523 14.3645C9.31296 13.952 6.19629 12.1278 6.19629 8.71783C6.19629 7.06783 7.53462 5.72949 9.17546 5.72949C9.84462 5.72949 10.4863 5.95866 11.0088 6.36199C11.5313 5.95866 12.173 5.72949 12.8421 5.72949C14.483 5.72949 15.8213 7.06783 15.8213 8.71783C15.8213 12.1278 12.6955 13.952 11.4946 14.3645C11.3296 14.4103 11.1646 14.4378 10.9996 14.4378ZM9.16628 7.10449C8.28628 7.10449 7.56211 7.82867 7.56211 8.71783C7.56211 11.312 10.0829 12.7603 10.9629 13.0628C10.9721 13.0628 11.0088 13.0628 11.0363 13.0628C11.9255 12.7512 14.4279 11.3028 14.4279 8.72701C14.4279 7.83784 13.7129 7.11367 12.8238 7.11367C12.3196 7.11367 11.8521 7.35201 11.5404 7.75535C11.2838 8.10368 10.6971 8.10368 10.4405 7.75535C10.1471 7.34285 9.67961 7.10449 9.16628 7.10449Z" fill="#191C27"/>
</svg>
