<svg width="45" height="44" viewBox="0 0 45 44" fill="none" xmlns="http://www.w3.org/2000/svg">
<circle cx="22.3335" cy="22" r="22" fill="#EA6352"/>
<path d="M31.9334 31.5968V24.5648C31.9334 21.1088 31.1894 18.4688 27.1574 18.4688C25.2134 18.4688 23.9174 19.5248 23.3894 20.5328H23.3414V18.7807H19.5254V31.5968H23.5094V25.2368C23.5094 23.5568 23.8214 21.9488 25.8854 21.9488C27.9254 21.9488 27.9494 23.8448 27.9494 25.3328V31.5728H31.9334V31.5968Z" fill="white"/>
<path d="M13.0454 18.7812H17.0294V31.5972H13.0454V18.7812Z" fill="white"/>
<path d="M15.0374 12.3984C13.7654 12.3984 12.7334 13.4304 12.7334 14.7024C12.7334 15.9744 13.7654 17.0304 15.0374 17.0304C16.3094 17.0304 17.3414 15.9744 17.3414 14.7024C17.3414 13.4304 16.3094 12.3984 15.0374 12.3984Z" fill="white"/>
</svg>
