<svg width="58" height="58" viewBox="0 0 58 58" fill="none" xmlns="http://www.w3.org/2000/svg">
<path d="M20.5418 45.9193H19.3335C9.66683 45.9193 4.8335 43.5026 4.8335 31.4193V19.3359C4.8335 9.66927 9.66683 4.83594 19.3335 4.83594H38.6668C48.3335 4.83594 53.1668 9.66927 53.1668 19.3359V31.4193C53.1668 41.0859 48.3335 45.9193 38.6668 45.9193H37.4585C36.7093 45.9193 35.9843 46.2818 35.5252 46.8859L31.9002 51.7193C30.3052 53.8459 27.6952 53.8459 26.1002 51.7193L22.4752 46.8859C22.0885 46.3543 21.1943 45.9193 20.5418 45.9193Z" stroke="#3A4750" stroke-width="4" stroke-miterlimit="10" stroke-linecap="round" stroke-linejoin="round"/>
<path d="M16.9165 19.3359H41.0832" stroke="#EA6352" stroke-width="4" stroke-linecap="round" stroke-linejoin="round"/>
<path d="M16.9165 31.4141H31.4165" stroke="#EA6352" stroke-width="4" stroke-linecap="round" stroke-linejoin="round"/>
</svg>
