<svg width="53" height="53" viewBox="0 0 53 53" fill="none" xmlns="http://www.w3.org/2000/svg">
<g clip-path="url(#clip0_140_5330)">
<path d="M26.8556 25.0182C25.1699 24.6136 24.9766 24.4529 24.9766 23.4531C24.9766 22.1275 26.924 21.473 27.7184 22.5397C28.2228 23.2121 29.1794 23.349 29.8519 22.8431C30.5243 22.3388 30.6597 21.3837 30.1553 20.7097C29.6136 19.9876 28.8584 19.4775 28.0234 19.1785V17.3594C28.0234 16.5173 27.3421 15.8359 26.5 15.8359C25.6579 15.8359 24.9766 16.5173 24.9766 17.3594V19.1634C23.2071 19.7943 21.9297 21.4696 21.9297 23.4531C21.9297 26.9686 24.5675 27.6024 26.1444 27.9818C27.8301 28.3864 28.0234 28.5471 28.0234 29.5469C28.0234 30.3874 27.3405 31.0703 26.5 31.0703C26.0165 31.0703 25.5716 30.8486 25.2816 30.4603C24.7772 29.7879 23.825 29.6554 23.1481 30.1569C22.4757 30.6612 22.3403 31.6163 22.8447 32.2903C23.3864 33.0124 24.1416 33.5225 24.9766 33.8215V35.6406C24.9766 36.4827 25.6579 37.1641 26.5 37.1641C27.3421 37.1641 28.0234 36.4827 28.0234 35.6406V33.8366C29.7929 33.2057 31.0703 31.5304 31.0703 29.5469C31.0703 26.0314 28.4325 25.3976 26.8556 25.0182Z" fill="url(#paint0_linear_140_5330)"/>
<path d="M52.5 26.6016C52.5 13.6241 42.8194 2.58213 29.9817 0.91732C29.1962 0.807227 28.4954 1.30712 28.308 2.05837L26.8099 8.05249C26.5835 8.95193 27.2122 9.8538 28.1518 9.93891C36.8223 10.7096 43.3594 17.8731 43.3594 26.6016C43.3594 32.2207 40.5356 37.4442 35.9073 40.5327L33.9138 37.8756C33.1526 36.8564 31.5273 37.1699 31.218 38.4201L28.1711 50.6076C27.93 51.5657 28.6567 52.5 29.6484 52.5H41.8359C43.0927 52.5 43.8049 51.0617 43.0544 50.0631L41.4074 47.8657C48.3849 43.0187 52.5 35.1873 52.5 26.6016V26.6016ZM24.8482 43.0611C16.1777 42.2904 9.64062 35.1269 9.64062 26.3984C9.64062 20.7793 12.4644 15.5558 17.0927 12.4673L19.0862 15.1244C19.8408 16.1316 21.4703 15.84 21.782 14.5799L24.8289 2.39241C25.07 1.43427 24.3433 0.5 23.3516 0.5H11.1641C9.90733 0.5 9.19507 1.93833 9.94562 2.93689L11.5926 5.1343C4.61511 9.98127 0.5 17.8127 0.5 26.3984C0.5 39.3759 10.1806 50.4179 23.0183 52.0827C23.7766 52.1838 24.5031 51.6992 24.692 50.9416L26.1901 44.9475C26.4165 44.0481 25.7878 43.1462 24.8482 43.0611V43.0611Z" fill="url(#paint1_linear_140_5330)"/>
</g>
<defs>
<linearGradient id="paint0_linear_140_5330" x1="26.5" y1="37.1641" x2="26.5" y2="15.8359" gradientUnits="userSpaceOnUse">
<stop stop-color="#F98F82"/>
<stop offset="0.9973" stop-color="#FFE1DD"/>
</linearGradient>
<linearGradient id="paint1_linear_140_5330" x1="0.5" y1="7.4643" x2="53.1685" y2="8.38906" gradientUnits="userSpaceOnUse">
<stop stop-color="#FA5456"/>
<stop offset="0.0001" stop-color="#F04770"/>
<stop offset="1" stop-color="#FFA000"/>
</linearGradient>
<clipPath id="clip0_140_5330">
<rect width="52" height="52" fill="white" transform="translate(0.5 0.5)"/>
</clipPath>
</defs>
</svg>
