<svg width="22" height="22" viewBox="0 0 22 22" fill="none" xmlns="http://www.w3.org/2000/svg">
<path opacity="0.4" d="M19.25 20.167H2.75C2.37417 20.167 2.0625 19.8553 2.0625 19.4795C2.0625 19.1037 2.37417 18.792 2.75 18.792H19.25C19.6258 18.792 19.9375 19.1037 19.9375 19.4795C19.9375 19.8553 19.6258 20.167 19.25 20.167Z" fill="#EA6352"/>
<path opacity="0.4" d="M17.435 3.18986C15.6567 1.41153 13.915 1.36569 12.0909 3.18986L10.9817 4.29903C10.89 4.39069 10.8534 4.53736 10.89 4.66569C11.5867 7.09486 13.53 9.03819 15.9592 9.73486C15.9959 9.74403 16.0325 9.75319 16.0692 9.75319C16.17 9.75319 16.2617 9.71653 16.335 9.64319L17.435 8.53403C18.3425 7.63569 18.7825 6.76486 18.7825 5.88486C18.7917 4.97736 18.3517 4.09736 17.435 3.18986Z" fill="#EA6352"/>
<path d="M14.3091 10.5692C14.0433 10.4409 13.7866 10.3126 13.5391 10.1659C13.3375 10.0467 13.145 9.9184 12.9525 9.7809C12.7966 9.68007 12.6133 9.5334 12.4391 9.38673C12.4208 9.37756 12.3566 9.32257 12.2833 9.24923C11.9808 8.99257 11.6416 8.66257 11.3391 8.2959C11.3116 8.27757 11.2658 8.2134 11.2016 8.1309C11.11 8.0209 10.9541 7.83756 10.8166 7.62673C10.7066 7.48923 10.5783 7.28756 10.4591 7.0859C10.3125 6.8384 10.1841 6.5909 10.0558 6.33423C9.92747 6.05923 9.82663 5.7934 9.73497 5.5459L3.9783 11.3026C3.85913 11.4217 3.74913 11.6509 3.72163 11.8067L3.22663 15.3176C3.13497 15.9409 3.30913 16.5276 3.69413 16.9217C4.02413 17.2426 4.48247 17.4167 4.97747 17.4167C5.08747 17.4167 5.19747 17.4076 5.30747 17.3892L8.82747 16.8942C8.99247 16.8667 9.22163 16.7567 9.33163 16.6376L15.0883 10.8809C14.8316 10.7892 14.5841 10.6884 14.3091 10.5692Z" fill="#EA6352"/>
</svg>
