<svg width="22" height="22" viewBox="0 0 22 22" fill="none" xmlns="http://www.w3.org/2000/svg">
<path d="M12.8699 20.8545H8.47911C6.99411 20.8545 5.64661 20.277 4.67494 19.2137C3.70328 18.1595 3.23578 16.7662 3.36411 15.2903C3.67578 11.532 6.99411 8.47949 10.7708 8.47949C14.2449 8.47949 17.5266 11.2662 18.1041 14.6853C18.3791 16.317 17.9758 17.857 16.9858 19.0303C15.9774 20.2037 14.5199 20.8545 12.8699 20.8545ZM10.7616 9.85449C7.69078 9.85449 4.98661 12.3478 4.72994 15.4095C4.63828 16.5003 4.97744 17.5178 5.68327 18.2878C6.38911 19.0578 7.37911 19.4795 8.46994 19.4795H12.8608C14.0983 19.4795 15.1891 19.0028 15.9133 18.1503C16.6374 17.2978 16.9308 16.1428 16.7291 14.9145C16.2708 12.1278 13.5941 9.85449 10.7616 9.85449Z" fill="#191C27"/>
<path d="M9.59733 7.56283C7.9565 7.56283 6.61816 6.22449 6.61816 4.58366C6.61816 2.94283 7.9565 1.60449 9.59733 1.60449C11.2382 1.60449 12.5765 2.94283 12.5765 4.58366C12.5765 6.22449 11.2473 7.56283 9.59733 7.56283ZM9.59733 2.97949C8.71733 2.97949 7.99316 3.70366 7.99316 4.58366C7.99316 5.46366 8.71733 6.18783 9.59733 6.18783C10.4773 6.18783 11.2015 5.46366 11.2015 4.58366C11.2015 3.70366 10.4865 2.97949 9.59733 2.97949Z" fill="#191C27"/>
<path d="M15.8582 8.66276C14.4649 8.66276 13.3374 7.53526 13.3374 6.14193C13.3374 4.74859 14.4649 3.62109 15.8582 3.62109C17.2516 3.62109 18.3791 4.74859 18.3791 6.14193C18.3791 7.53526 17.2516 8.66276 15.8582 8.66276ZM15.8582 4.99609C15.2257 4.99609 14.7124 5.50943 14.7124 6.14193C14.7124 6.77443 15.2257 7.28776 15.8582 7.28776C16.4907 7.28776 17.0041 6.77443 17.0041 6.14193C17.0041 5.50943 16.4907 4.99609 15.8582 4.99609Z" fill="#191C27"/>
<path d="M19.25 12.3291C18.1133 12.3291 17.1875 11.4033 17.1875 10.2666C17.1875 9.12993 18.1133 8.2041 19.25 8.2041C20.3867 8.2041 21.3125 9.12993 21.3125 10.2666C21.3125 11.4033 20.3867 12.3291 19.25 12.3291ZM19.25 9.5791C18.8742 9.5791 18.5625 9.89077 18.5625 10.2666C18.5625 10.6424 18.8742 10.9541 19.25 10.9541C19.6258 10.9541 19.9375 10.6424 19.9375 10.2666C19.9375 9.89077 19.6258 9.5791 19.25 9.5791Z" fill="#191C27"/>
<path d="M3.639 10.4958C2.24566 10.4958 1.11816 9.36827 1.11816 7.97494C1.11816 6.5816 2.24566 5.4541 3.639 5.4541C5.03233 5.4541 6.15983 6.5816 6.15983 7.97494C6.15983 9.36827 5.03233 10.4958 3.639 10.4958ZM3.639 6.8291C3.0065 6.8291 2.49316 7.34244 2.49316 7.97494C2.49316 8.60744 3.0065 9.12077 3.639 9.12077C4.2715 9.12077 4.78483 8.60744 4.78483 7.97494C4.78483 7.34244 4.2715 6.8291 3.639 6.8291Z" fill="#191C27"/>
</svg>
