<svg width="400" height="400" viewBox="0 0 400 400" fill="none" xmlns="http://www.w3.org/2000/svg">
<path opacity="0.4" d="M318 262.003C308.167 203.169 251.667 155.336 192 155.336C127.167 155.336 70.1667 207.836 64.6667 272.503C62.5 297.503 70.5 321.169 87 339.003C103.333 356.836 126.333 366.669 151.333 366.669H229.333C257.5 366.669 282.167 355.669 299 335.836C315.833 316.003 322.5 289.669 318 262.003Z" fill="#EA6352"/>
<path d="M171.333 131.003C198.303 131.003 220.167 109.139 220.167 82.1693C220.167 55.1994 198.303 33.3359 171.333 33.3359C144.363 33.3359 122.5 55.1994 122.5 82.1693C122.5 109.139 144.363 131.003 171.333 131.003Z" fill="#EA6352"/>
<path d="M282.333 150.497C304.793 150.497 323 132.29 323 109.831C323 87.3711 304.793 69.1641 282.333 69.1641C259.874 69.1641 241.667 87.3711 241.667 109.831C241.667 132.29 259.874 150.497 282.333 150.497Z" fill="#EA6352"/>
<path d="M342.5 215.5C360.449 215.5 375 200.949 375 183C375 165.051 360.449 150.5 342.5 150.5C324.551 150.5 310 165.051 310 183C310 200.949 324.551 215.5 342.5 215.5Z" fill="#EA6352"/>
<path d="M65.6667 182.997C88.1262 182.997 106.333 164.79 106.333 142.331C106.333 119.871 88.1262 101.664 65.6667 101.664C43.2071 101.664 25 119.871 25 142.331C25 164.79 43.2071 182.997 65.6667 182.997Z" fill="#EA6352"/>
</svg>
