<svg width="160" height="23" viewBox="0 0 160 23" fill="none" xmlns="http://www.w3.org/2000/svg">
<path opacity="0.6" d="M3.65867 22H0.838672V8.2C0.838672 5.84 1.46867 4 2.72867 2.68C4.00867 1.36 5.69867 0.699999 7.79867 0.699999C10.0387 0.699999 11.7687 1.34 12.9887 2.62C14.2287 3.9 14.8487 5.53 14.8487 7.51C14.8487 8.75 14.6187 9.83 14.1587 10.75C13.7187 11.67 13.1187 12.38 12.3587 12.88C11.5987 13.38 10.7887 13.75 9.92867 13.99C9.06867 14.23 8.16867 14.35 7.22867 14.35H4.97867V11.71H7.55867C8.89867 11.71 9.94867 11.31 10.7087 10.51C11.4887 9.69 11.8787 8.67 11.8787 7.45C11.8787 6.25 11.5187 5.27 10.7987 4.51C10.0987 3.73 9.08867 3.34 7.76867 3.34C6.48867 3.34 5.47867 3.78 4.73867 4.66C4.01867 5.52 3.65867 6.66 3.65867 8.08V22ZM31.3002 22H19.3602V6.01C19.3602 4.53 19.8302 3.34 20.7702 2.44C21.4102 1.84 22.1302 1.45 22.9302 1.27C23.7302 1.09 24.7102 0.999999 25.8702 0.999999H31.3002V3.64H25.4802C23.2802 3.64 22.1802 4.56 22.1802 6.4V9.82H29.1102V12.46H22.1802V19.36H31.3002V22ZM34.8945 3.64V0.999999H48.0945V3.64H42.9045V22H40.0845V3.64H34.8945ZM64.2416 22H52.3016V6.01C52.3016 4.53 52.7716 3.34 53.7116 2.44C54.3516 1.84 55.0716 1.45 55.8716 1.27C56.6716 1.09 57.6516 0.999999 58.8116 0.999999H64.2416V3.64H58.4216C56.2216 3.64 55.1216 4.56 55.1216 6.4V9.82H62.0516V12.46H55.1216V19.36H64.2416V22ZM78.9359 15.49H79.1159L81.5759 6.22C82.0959 4.22 82.8959 2.85 83.9759 2.11C85.0559 1.37 86.6859 0.999999 88.8659 0.999999V22H86.0459V4.18C85.5259 4.4 85.1259 4.71 84.8459 5.11C84.5859 5.51 84.3359 6.11 84.0959 6.91L80.3459 19.78H77.7059L73.9259 6.91C73.6859 6.09 73.4359 5.49 73.1759 5.11C72.9159 4.71 72.5259 4.4 72.0059 4.18V22H69.1859V0.999999C71.3659 0.999999 72.9859 1.38 74.0459 2.14C75.1259 2.88 75.9359 4.24 76.4759 6.22L78.9359 15.49ZM110.973 11.59C110.953 10.47 110.783 9.41 110.463 8.41C110.163 7.41 109.713 6.54 109.113 5.8C108.533 5.04 107.823 4.44 106.983 4C106.143 3.56 105.193 3.34 104.133 3.34C103.073 3.34 102.123 3.56 101.283 4C100.443 4.44 99.7229 5.04 99.1229 5.8C98.5429 6.54 98.0929 7.41 97.7729 8.41C97.4729 9.41 97.3129 10.47 97.2929 11.59C97.3129 12.73 97.4729 13.79 97.7729 14.77C98.0929 15.75 98.5429 16.6 99.1229 17.32C99.7229 18.04 100.443 18.61 101.283 19.03C102.123 19.45 103.073 19.66 104.133 19.66C105.193 19.66 106.143 19.45 106.983 19.03C107.823 18.61 108.533 18.04 109.113 17.32C109.713 16.6 110.163 15.75 110.463 14.77C110.783 13.79 110.953 12.73 110.973 11.59ZM94.2629 11.59C94.2829 9.93 94.5329 8.43 95.0129 7.09C95.4929 5.75 96.1629 4.61 97.0229 3.67C97.8829 2.71 98.9129 1.98 100.113 1.48C101.313 0.959999 102.653 0.699999 104.133 0.699999C105.593 0.699999 106.923 0.959999 108.123 1.48C109.343 1.98 110.383 2.71 111.243 3.67C112.103 4.61 112.773 5.75 113.253 7.09C113.733 8.43 113.983 9.93 114.003 11.59C113.983 13.25 113.733 14.74 113.253 16.06C112.793 17.38 112.133 18.5 111.273 19.42C110.413 20.34 109.373 21.05 108.153 21.55C106.953 22.05 105.613 22.3 104.133 22.3C102.653 22.3 101.303 22.05 100.083 21.55C98.8829 21.05 97.8529 20.34 96.9929 19.42C96.1329 18.5 95.4629 17.38 94.9829 16.06C94.5229 14.74 94.2829 13.25 94.2629 11.59ZM135.823 11.59C135.803 10.47 135.633 9.41 135.313 8.41C135.013 7.41 134.563 6.54 133.963 5.8C133.383 5.04 132.673 4.44 131.833 4C130.993 3.56 130.043 3.34 128.983 3.34C127.923 3.34 126.973 3.56 126.132 4C125.293 4.44 124.573 5.04 123.973 5.8C123.393 6.54 122.943 7.41 122.623 8.41C122.323 9.41 122.163 10.47 122.143 11.59C122.163 12.73 122.323 13.79 122.623 14.77C122.943 15.75 123.393 16.6 123.973 17.32C124.573 18.04 125.293 18.61 126.132 19.03C126.973 19.45 127.923 19.66 128.983 19.66C130.043 19.66 130.993 19.45 131.833 19.03C132.673 18.61 133.383 18.04 133.963 17.32C134.563 16.6 135.013 15.75 135.313 14.77C135.633 13.79 135.803 12.73 135.823 11.59ZM119.113 11.59C119.133 9.93 119.383 8.43 119.863 7.09C120.343 5.75 121.013 4.61 121.873 3.67C122.733 2.71 123.763 1.98 124.963 1.48C126.163 0.959999 127.503 0.699999 128.983 0.699999C130.443 0.699999 131.773 0.959999 132.973 1.48C134.193 1.98 135.233 2.71 136.093 3.67C136.953 4.61 137.623 5.75 138.103 7.09C138.583 8.43 138.833 9.93 138.853 11.59C138.833 13.25 138.583 14.74 138.103 16.06C137.643 17.38 136.983 18.5 136.123 19.42C135.263 20.34 134.223 21.05 133.003 21.55C131.803 22.05 130.463 22.3 128.983 22.3C127.503 22.3 126.153 22.05 124.933 21.55C123.733 21.05 122.703 20.34 121.843 19.42C120.983 18.5 120.313 17.38 119.833 16.06C119.373 14.74 119.133 13.25 119.113 11.59ZM147.082 22H144.262V0.999999H151.672C154.152 0.999999 156.002 1.56 157.222 2.68C158.442 3.78 159.052 5.52 159.052 7.9V22H156.232V7.51C156.232 6.15 155.812 5.17 154.972 4.57C154.152 3.95 153.062 3.64 151.702 3.64H147.082V22Z" fill="#DEDFE1"/>
</svg>
