<svg width="105" height="108" viewBox="0 0 105 108" fill="none" xmlns="http://www.w3.org/2000/svg">
<path d="M69.5533 106.27L79.1158 106.372C80.1263 106.464 81.1439 106.305 82.0781 105.909C84.1424 104.834 84.1424 101.666 82.5502 99.999C80.958 98.3317 78.4215 97.8778 76.0702 97.9241C74.5791 88.8758 76.1391 79.5883 80.5044 71.5249C81.1167 72.3795 82.0014 73.0002 83.013 73.2849C83.354 70.546 83.1718 67.7673 82.4761 65.0965C83.2907 66.0228 84.1146 66.8657 84.9292 67.7457C84.9995 60.4033 83.1485 53.1703 79.5601 46.7653C74.5798 46.2373 68.0814 43.3658 63.0641 41.8838C57.6394 50.2759 57.732 48.1455 37.9126 59.0108C30.7719 62.967 25.2111 69.264 22.1664 76.8418C19.1881 84.3225 18.965 92.619 21.5369 100.249C17.1268 97.7648 13.773 93.757 12.104 88.9762C10.4915 84.256 10.0468 79.2151 10.808 74.2853C5.05933 78.0645 3.30048 81.3065 4.05956 88.2815C2.59834 87.5826 1.3279 86.5401 0.356735 85.2433C0.049614 88.3409 0.853523 91.4469 2.62473 94.0059C2.27594 94.0944 1.9109 94.0968 1.56099 94.0129C1.21107 93.929 0.886757 93.7613 0.615929 93.5242C4.31876 103.602 15.2421 108.021 22.6477 103.954C25.4248 104.445 27.2763 107.326 30.0534 107.326C47.3548 107.326 59.2131 106.52 60.4258 106.14C60.8516 106.001 62.4346 101.277 59.1483 100.249C54.1286 98.8844 48.8647 98.6785 43.7538 99.647C46.1144 98.1186 48.1047 95.3027 48.3824 95.2193C50.5393 94.5802 62.268 89.5319 66.9798 86.0862C67.1927 88.9576 67.3501 97.7759 67.5537 100.657C67.5787 101.655 67.7502 102.644 68.0629 103.593C68.5122 104.511 69.0097 105.404 69.5533 106.27Z" fill="#F28866" fill-opacity="0.3"/>
<path d="M78.784 43.8504C78.8662 40.2424 80.8025 34.6228 83.2959 32.0022C84.6415 30.7175 86.2459 29.7417 87.9995 29.1416C91.6528 27.6929 95.4613 26.7701 98.9593 24.9892C102.457 23.2083 103.818 18.0685 104.658 14.3036C105.499 10.5388 104.96 8.26878 101.096 7.72435C99.7623 7.61255 98.4192 7.74701 97.1327 8.12115C92.2099 9.2746 86.6021 10.8248 82.4008 8.01964C80.5742 6.77392 79.2772 4.81767 77.615 3.30434C75.8074 1.71766 73.6104 0.651678 71.2546 0.218186C68.8988 -0.215305 66.471 -0.000328575 64.2257 0.840573C62.0205 1.7163 60.0995 3.19386 58.6771 5.10839C57.2547 7.02293 56.3868 9.29912 56.1702 11.683C55.7592 17.3764 59.1933 22.5439 62.1707 27.4345C65.1482 32.3251 65.4313 35.9885 63.7416 41.0544C66.3994 42.1618 71.6236 45.4006 74.5097 45.3729C77.3958 45.3453 78.7384 45.6129 78.784 43.8504Z" fill="#F28866" fill-opacity="0.3"/>
<path d="M60.8683 1.74439C62.1563 2.08668 63.2965 2.82234 64.12 3.84244C64.9435 4.86253 65.4064 6.11281 65.4403 7.40813C65.5974 9.78296 64.84 12.1578 65.1725 14.5147C65.4773 16.7013 66.678 18.7535 67.2322 20.9043C67.7864 23.0551 67.5093 25.5733 65.3849 26.9893C64.117 27.722 62.7037 28.1862 61.2378 28.3514C57.654 28.9608 53.6269 29.149 50.5604 27.527C49.48 26.9657 48.5534 26.1622 47.8577 25.1833C47.1621 24.2044 46.7175 23.0784 46.561 21.8991C46.4058 19.6381 47.0581 17.3943 48.4083 15.5453C49.3781 14.0935 50.625 12.7672 51.484 11.2796C52.5924 9.34385 53.0265 7.18409 54.255 5.28423C54.9513 4.1929 55.9255 3.29393 57.0838 2.67394C58.2421 2.05394 59.5454 1.73382 60.8683 1.74439Z" fill="#EA6352"/>
<path d="M76.5428 47.9911C77.7683 47.9965 78.9899 47.8548 80.1807 47.5691C80.5692 47.51 80.9221 47.3119 81.1721 47.0125C81.3348 46.7407 81.4197 46.4304 81.4177 46.1147C81.4911 44.6119 81.3904 43.1058 81.1175 41.6256C81.0824 41.2973 80.953 40.9859 80.7446 40.7277C80.5323 40.555 80.2808 40.4355 80.0117 40.3792C79.7425 40.3229 79.4635 40.3316 79.1985 40.4045C74.3473 41.1525 69.3817 40.2871 65.0832 37.9445C64.8338 37.7669 64.5504 37.6411 64.2502 37.5748C63.9501 37.5084 63.6394 37.5029 63.337 37.5584C63.0409 37.6755 62.7711 37.8491 62.5432 38.0695C62.3153 38.2898 62.1339 38.5525 62.0092 38.8423C61.4908 39.7401 61.0997 40.5123 60.7814 41.2575C60.6306 41.5364 60.535 41.8411 60.4994 42.1553C60.5155 42.5123 60.616 42.8606 60.7928 43.1724C60.9697 43.4843 61.2181 43.7509 61.5181 43.9509C63.428 45.549 65.8199 46.1865 68.5211 46.788C71.1412 47.4831 73.8318 47.8866 76.5428 47.9911ZM79.7715 41.051C79.861 41.0416 79.9515 41.0503 80.0375 41.0765C80.1235 41.1028 80.2031 41.146 80.2717 41.2036C80.3828 41.3672 80.4515 41.5553 80.4718 41.7513C80.7364 43.175 80.8341 44.624 80.7628 46.0698C80.7693 46.263 80.7254 46.4547 80.6355 46.6264C80.4817 46.7918 80.2708 46.8943 80.0443 46.9137C76.4882 47.8115 72.7684 47.0933 68.6939 46.1775C66.0837 45.5939 63.7827 44.9834 61.9819 43.484C61.7671 43.3438 61.5864 43.1583 61.4528 42.941C61.3191 42.7237 61.2358 42.4799 61.2088 42.2271C61.2399 41.9943 61.3138 41.7691 61.4271 41.5627C61.7727 40.8265 62.1274 40.0634 62.6367 39.1925C62.946 38.6538 63.1915 38.2947 63.5462 38.2318C63.7603 38.2022 63.9782 38.2146 64.1874 38.2686C64.3966 38.3225 64.5929 38.4168 64.7649 38.546C69.1955 40.9636 74.3149 41.8575 79.3167 41.0869C79.4675 41.0663 79.6193 41.0543 79.7715 41.051Z" fill="#EA6352"/>
<path d="M73.5687 10.5289C73.7605 10.4614 73.9631 10.4525 74.1584 10.5029C74.3538 10.5534 74.5358 10.6617 74.6882 10.8181C74.9848 11.1382 75.1895 11.5645 75.2726 12.0351C75.3531 12.3604 75.3531 12.7073 75.2726 13.0326C75.1635 13.3679 74.9563 13.6427 74.6906 13.8046C74.4249 13.9666 74.1192 14.0042 73.8321 13.9104C73.547 13.8092 73.2928 13.6087 73.1011 13.3338C72.9094 13.0589 72.7886 12.7217 72.7537 12.3643C72.6762 11.9903 72.7169 11.5947 72.8676 11.2552C73.0184 10.9156 73.2684 10.6566 73.5687 10.5289Z" fill="#EA6352"/>
</svg>
