<svg width="42" height="42" viewBox="0 0 42 42" fill="none" xmlns="http://www.w3.org/2000/svg">
<path opacity="0.4" d="M21 38.5156C30.665 38.5156 38.5 30.6806 38.5 21.0156C38.5 11.3506 30.665 3.51562 21 3.51562C11.335 3.51562 3.5 11.3506 3.5 21.0156C3.5 30.6806 11.335 38.5156 21 38.5156Z" fill="#EA6352"/>
<path d="M21 12.1445C17.3775 12.1445 14.4375 15.0845 14.4375 18.707C14.4375 22.2595 17.22 25.147 20.9125 25.252C20.965 25.252 21.035 25.252 21.07 25.252C21.105 25.252 21.1575 25.252 21.1925 25.252C21.21 25.252 21.2275 25.252 21.2275 25.252C24.7625 25.1295 27.545 22.2595 27.5625 18.707C27.5625 15.0845 24.6225 12.1445 21 12.1445Z" fill="#EA6352"/>
<path d="M32.8648 33.8819C29.7498 36.7519 25.5848 38.5194 20.9998 38.5194C16.4148 38.5194 12.2498 36.7519 9.13477 33.8819C9.55477 32.2894 10.6923 30.8369 12.3548 29.7169C17.1323 26.5319 24.9023 26.5319 29.6448 29.7169C31.3248 30.8369 32.4448 32.2894 32.8648 33.8819Z" fill="#EA6352"/>
</svg>
