<svg width="22" height="20" viewBox="0 0 22 20" fill="none" xmlns="http://www.w3.org/2000/svg">
<path d="M16 19.0416H6C2.83 19.0416 0.25 16.4616 0.25 13.2916V3.71156C0.25 2.41156 0.85 1.96156 1.21 1.81156C1.57 1.66156 2.31 1.55156 3.23 2.47156L5.82 5.06156C5.92 5.16156 6.08 5.16156 6.17 5.06156L9.76 1.47156C10.42 0.811562 11.58 0.811562 12.23 1.47156L15.82 5.06156C15.92 5.16156 16.08 5.16156 16.17 5.06156L18.76 2.47156C19.68 1.55156 20.42 1.67156 20.78 1.81156C21.14 1.96156 21.74 2.40156 21.74 3.71156V13.3016C21.75 16.7316 19.44 19.0416 16 19.0416ZM1.81 3.24156C1.78 3.32156 1.75 3.47156 1.75 3.71156V13.3016C1.75 15.6416 3.66 17.5516 6 17.5516H16C18.58 17.5516 20.25 15.8816 20.25 13.3016V3.71156C20.25 3.47156 20.22 3.33156 20.19 3.25156C20.11 3.29156 19.99 3.37156 19.82 3.54156L17.23 6.13156C16.57 6.79156 15.41 6.79156 14.76 6.13156L11.17 2.54156C11.07 2.44156 10.91 2.44156 10.82 2.54156L7.24 6.12156C6.58 6.78156 5.42 6.78156 4.77 6.12156L2.18 3.53156C2.01 3.36156 1.88 3.28156 1.81 3.24156Z" fill="#EA6352"/>
</svg>
