<svg width="27" height="26" viewBox="0 0 27 26" fill="none" xmlns="http://www.w3.org/2000/svg">
<path fill-rule="evenodd" clip-rule="evenodd" d="M17.9759 16.6741C20.6912 13.1868 20.446 8.14144 17.2401 4.9356C13.7687 1.46418 8.14041 1.46418 4.66899 4.9356C1.19757 8.40702 1.19757 14.0353 4.66899 17.5067C7.87484 20.7126 12.9202 20.9578 16.4074 18.2425C16.4225 18.2595 16.4382 18.2761 16.4544 18.2924L21.1686 23.0066C21.6025 23.4405 22.3061 23.4405 22.74 23.0066C23.1739 22.5727 23.1739 21.8691 22.74 21.4352L18.0258 16.721C18.0095 16.7048 17.9929 16.6891 17.9759 16.6741ZM15.6687 6.50699C18.2723 9.11055 18.2723 13.3318 15.6687 15.9353C13.0652 18.5389 8.84395 18.5389 6.24039 15.9353C3.63682 13.3318 3.63682 9.11055 6.24039 6.50699C8.84395 3.90342 13.0652 3.90342 15.6687 6.50699Z" fill="#EA6352"/>
</svg>
