<svg width="52" height="52" viewBox="0 0 52 52" fill="none" xmlns="http://www.w3.org/2000/svg">
<path d="M23.8333 44.9609C12.1766 44.9609 2.70825 35.4926 2.70825 23.8359C2.70825 12.1793 12.1766 2.71094 23.8333 2.71094C35.4899 2.71094 44.9583 12.1793 44.9583 23.8359C44.9583 35.4926 35.4899 44.9609 23.8333 44.9609ZM23.8333 5.96094C13.9749 5.96094 5.95825 13.9776 5.95825 23.8359C5.95825 33.6943 13.9749 41.7109 23.8333 41.7109C33.6916 41.7109 41.7083 33.6943 41.7083 23.8359C41.7083 13.9776 33.6916 5.96094 23.8333 5.96094Z" fill="white"/>
<path d="M29.2501 25.4609H18.4167C17.5284 25.4609 16.7917 24.7243 16.7917 23.8359C16.7917 22.9476 17.5284 22.2109 18.4167 22.2109H29.2501C30.1384 22.2109 30.8751 22.9476 30.8751 23.8359C30.8751 24.7243 30.1384 25.4609 29.2501 25.4609Z" fill="white"/>
<path d="M23.8333 30.8724C22.9449 30.8724 22.2083 30.1357 22.2083 29.2474V18.4141C22.2083 17.5257 22.9449 16.7891 23.8333 16.7891C24.7216 16.7891 25.4583 17.5257 25.4583 18.4141V29.2474C25.4583 30.1357 24.7216 30.8724 23.8333 30.8724Z" fill="white"/>
<path d="M43.6802 49.3783C43.5069 49.3783 43.3335 49.3567 43.1819 49.335C42.1635 49.205 40.3219 48.5117 39.2819 45.4133C38.7402 43.7883 38.9352 42.1633 39.8235 40.9283C40.7119 39.6933 42.2069 39 43.9185 39C46.1285 39 47.8619 39.845 48.6419 41.34C49.4219 42.835 49.2052 44.7417 47.9702 46.5833C46.4319 48.9017 44.7635 49.3783 43.6802 49.3783ZM42.3802 44.395C42.7485 45.5217 43.2685 46.085 43.6152 46.1283C43.9619 46.1717 44.6119 45.76 45.2835 44.785C45.9119 43.8533 45.9552 43.1817 45.8035 42.8783C45.6519 42.575 45.0452 42.25 43.9185 42.25C43.2469 42.25 42.7485 42.4667 42.4669 42.835C42.2069 43.2033 42.1635 43.7667 42.3802 44.395Z" fill="white"/>
</svg>
