<svg width="52" height="52" viewBox="0 0 52 52" fill="none" xmlns="http://www.w3.org/2000/svg">
<path opacity="0.6" d="M45.3048 24.0914C45.3048 34.6864 37.6132 44.6097 27.1049 47.513C26.3899 47.708 25.6098 47.708 24.8948 47.513C14.3865 44.6097 6.69482 34.6864 6.69482 24.0914V14.5797C6.69482 12.8031 8.03819 10.7881 9.70652 10.1164L21.7748 5.17641C24.4831 4.07141 27.5381 4.07141 30.2465 5.17641L42.3148 10.1164C43.9615 10.7881 45.3265 12.8031 45.3265 14.5797L45.3048 24.0914Z" fill="url(#paint0_linear_140_5344)"/>
<path d="M31.4168 22.7487C31.4168 19.7587 28.9902 17.332 26.0002 17.332C23.0102 17.332 20.5835 19.7587 20.5835 22.7487C20.5835 25.1754 22.1868 27.1904 24.3752 27.8837V33.582C24.3752 34.4704 25.1118 35.207 26.0002 35.207C26.8885 35.207 27.6252 34.4704 27.6252 33.582V27.8837C29.8135 27.1904 31.4168 25.1754 31.4168 22.7487Z" fill="url(#paint1_linear_140_5344)"/>
<defs>
<linearGradient id="paint0_linear_140_5344" x1="6.69482" y1="10.1483" x2="45.8257" y2="10.7612" gradientUnits="userSpaceOnUse">
<stop stop-color="#FA5456"/>
<stop offset="0.0001" stop-color="#F04770"/>
<stop offset="1" stop-color="#FFA000"/>
</linearGradient>
<linearGradient id="paint1_linear_140_5344" x1="20.5835" y1="19.726" x2="31.5582" y2="19.8428" gradientUnits="userSpaceOnUse">
<stop stop-color="#FA5456"/>
<stop offset="0.0001" stop-color="#F04770"/>
<stop offset="1" stop-color="#FFA000"/>
</linearGradient>
</defs>
</svg>
