<svg width="51" height="28" viewBox="0 0 51 28" fill="none" xmlns="http://www.w3.org/2000/svg">
<path opacity="0.6" d="M0.0449219 14.5215C0.0579427 14.3717 0.0807292 14.2025 0.113281 14.0137C0.145833 13.8574 0.188151 13.6719 0.240234 13.457C0.298828 13.2357 0.383464 12.998 0.494141 12.7441C0.845703 12.8613 1.20378 12.9655 1.56836 13.0566C1.88086 13.1348 2.22266 13.2064 2.59375 13.2715C2.96484 13.3366 3.31966 13.3691 3.6582 13.3691C4.17253 13.3691 4.60221 13.3301 4.94727 13.252C5.29883 13.1738 5.57878 13.0599 5.78711 12.9102C6.00195 12.7539 6.15495 12.5618 6.24609 12.334C6.33724 12.0996 6.38281 11.8294 6.38281 11.5234C6.38281 11.1784 6.33398 10.8854 6.23633 10.6445C6.14518 10.4036 6.00195 10.1953 5.80664 10.0195C5.61784 9.84375 5.3737 9.69401 5.07422 9.57031C4.77474 9.44661 4.41992 9.32617 4.00977 9.20898C3.29362 9.01367 2.68815 8.80208 2.19336 8.57422C1.69857 8.33984 1.29492 8.07292 0.982422 7.77344C0.676432 7.47396 0.455078 7.13542 0.318359 6.75781C0.181641 6.3737 0.113281 5.9375 0.113281 5.44922C0.113281 4.74609 0.220703 4.14388 0.435547 3.64258C0.656901 3.14128 0.966146 2.73112 1.36328 2.41211C1.76693 2.0931 2.25195 1.85872 2.81836 1.70898C3.39128 1.55924 4.0293 1.48438 4.73242 1.48438C5.27279 1.48438 5.74479 1.52669 6.14844 1.61133C6.55859 1.69596 6.90365 1.78711 7.18359 1.88477C7.50911 2.00195 7.79232 2.13542 8.0332 2.28516C8.01367 2.4349 7.97461 2.59766 7.91602 2.77344C7.86393 2.92318 7.79232 3.09896 7.70117 3.30078C7.61003 3.5026 7.48307 3.7207 7.32031 3.95508C7.125 3.82487 6.89714 3.70768 6.63672 3.60352C6.40885 3.51237 6.13216 3.43099 5.80664 3.35938C5.48763 3.28125 5.11654 3.24219 4.69336 3.24219C4.23112 3.24219 3.84049 3.27799 3.52148 3.34961C3.20898 3.42122 2.95182 3.53516 2.75 3.69141C2.54818 3.84115 2.40169 4.0332 2.31055 4.26758C2.22591 4.49544 2.18359 4.76888 2.18359 5.08789C2.18359 5.44596 2.22917 5.74544 2.32031 5.98633C2.41146 6.2207 2.55794 6.42253 2.75977 6.5918C2.96159 6.75456 3.22201 6.89779 3.54102 7.02148C3.86654 7.14518 4.25716 7.27214 4.71289 7.40234C5.39648 7.59115 5.97917 7.79297 6.46094 8.00781C6.94271 8.22266 7.33333 8.47331 7.63281 8.75977C7.9388 9.04622 8.16016 9.38802 8.29688 9.78516C8.4401 10.1758 8.51172 10.6478 8.51172 11.2012C8.51172 11.8848 8.42383 12.4805 8.24805 12.9883C8.07227 13.4896 7.79232 13.9095 7.4082 14.248C7.02409 14.5866 6.5293 14.8372 5.92383 15C5.31836 15.1693 4.58919 15.2539 3.73633 15.2539C3.22852 15.2539 2.75 15.2148 2.30078 15.1367C1.85156 15.0651 1.46094 14.9837 1.12891 14.8926C0.731771 14.7819 0.370443 14.6582 0.0449219 14.5215ZM11.2184 10.1074C11.2184 9.16992 11.3323 8.36263 11.5602 7.68555C11.788 7.00846 12.107 6.45182 12.5172 6.01562C12.9273 5.57943 13.4156 5.26042 13.982 5.05859C14.5549 4.85026 15.1832 4.74609 15.8668 4.74609C16.4983 4.74609 17.0615 4.85352 17.5562 5.06836C18.0576 5.27669 18.4807 5.57292 18.8258 5.95703C19.1708 6.34115 19.4345 6.80013 19.6168 7.33398C19.7991 7.86784 19.8902 8.45703 19.8902 9.10156C19.8902 9.32292 19.8805 9.52799 19.8609 9.7168C19.8414 9.9056 19.8186 10.0684 19.7926 10.2051C19.7665 10.3678 19.7372 10.5143 19.7047 10.6445L13.2984 10.6152C13.3049 11.1947 13.3668 11.6764 13.484 12.0605C13.6012 12.4382 13.7737 12.7376 14.0016 12.959C14.2359 13.1803 14.5289 13.3366 14.8805 13.4277C15.232 13.5124 15.6487 13.5547 16.1305 13.5547C16.5406 13.5547 16.9085 13.5286 17.234 13.4766C17.5595 13.4245 17.8362 13.3626 18.0641 13.291C18.3245 13.2129 18.5589 13.1217 18.7672 13.0176C18.8648 13.2454 18.9397 13.457 18.9918 13.6523C19.0504 13.8477 19.0927 14.0169 19.1187 14.1602C19.1448 14.3294 19.1643 14.4792 19.1773 14.6094C18.9625 14.7201 18.7021 14.8177 18.3961 14.9023C18.1357 14.974 17.8167 15.0391 17.4391 15.0977C17.0615 15.1628 16.6253 15.1953 16.1305 15.1953C15.3492 15.1953 14.6526 15.1074 14.0406 14.9316C13.4352 14.7559 12.9208 14.4694 12.4977 14.0723C12.081 13.6686 11.762 13.1445 11.5406 12.5C11.3258 11.849 11.2184 11.0514 11.2184 10.1074ZM17.8004 9.18945V8.85742C17.8004 8.44727 17.7483 8.08594 17.6441 7.77344C17.5465 7.45443 17.4098 7.1875 17.234 6.97266C17.0582 6.75781 16.8499 6.59505 16.609 6.48438C16.3681 6.3737 16.1077 6.31836 15.8277 6.31836C15.4176 6.31836 15.0562 6.3737 14.7437 6.48438C14.4312 6.58854 14.1676 6.75781 13.9527 6.99219C13.7444 7.22005 13.5882 7.51628 13.484 7.88086C13.3798 8.24544 13.3277 8.68164 13.3277 9.18945H17.8004ZM22.7727 0.947266H24.7941V13.3594L25.3703 13.7695V15H24.8137L24.7941 14.9805V15C24.1496 15 23.6516 14.8698 23.3 14.6094C22.9484 14.349 22.7727 13.9193 22.7727 13.3203V0.947266ZM28.3992 0.947266H30.4207V13.3594L30.9969 13.7695V15H30.4402L30.4207 14.9805V15C29.7762 15 29.2781 14.8698 28.9266 14.6094C28.575 14.349 28.3992 13.9193 28.3992 13.3203V0.947266ZM33.5668 10.1074C33.5668 9.16992 33.6807 8.36263 33.9086 7.68555C34.1365 7.00846 34.4555 6.45182 34.8656 6.01562C35.2758 5.57943 35.7641 5.26042 36.3305 5.05859C36.9034 4.85026 37.5316 4.74609 38.2152 4.74609C38.8467 4.74609 39.4099 4.85352 39.9047 5.06836C40.406 5.27669 40.8292 5.57292 41.1742 5.95703C41.5193 6.34115 41.7829 6.80013 41.9652 7.33398C42.1475 7.86784 42.2387 8.45703 42.2387 9.10156C42.2387 9.32292 42.2289 9.52799 42.2094 9.7168C42.1898 9.9056 42.1671 10.0684 42.141 10.2051C42.115 10.3678 42.0857 10.5143 42.0531 10.6445L35.6469 10.6152C35.6534 11.1947 35.7152 11.6764 35.8324 12.0605C35.9496 12.4382 36.1221 12.7376 36.35 12.959C36.5844 13.1803 36.8773 13.3366 37.2289 13.4277C37.5805 13.5124 37.9971 13.5547 38.4789 13.5547C38.8891 13.5547 39.2569 13.5286 39.5824 13.4766C39.9079 13.4245 40.1846 13.3626 40.4125 13.291C40.6729 13.2129 40.9073 13.1217 41.1156 13.0176C41.2133 13.2454 41.2881 13.457 41.3402 13.6523C41.3988 13.8477 41.4411 14.0169 41.4672 14.1602C41.4932 14.3294 41.5128 14.4792 41.5258 14.6094C41.3109 14.7201 41.0505 14.8177 40.7445 14.9023C40.4841 14.974 40.1651 15.0391 39.7875 15.0977C39.4099 15.1628 38.9737 15.1953 38.4789 15.1953C37.6977 15.1953 37.001 15.1074 36.3891 14.9316C35.7836 14.7559 35.2693 14.4694 34.8461 14.0723C34.4294 13.6686 34.1104 13.1445 33.8891 12.5C33.6742 11.849 33.5668 11.0514 33.5668 10.1074ZM40.1488 9.18945V8.85742C40.1488 8.44727 40.0967 8.08594 39.9926 7.77344C39.8949 7.45443 39.7582 7.1875 39.5824 6.97266C39.4066 6.75781 39.1983 6.59505 38.9574 6.48438C38.7165 6.3737 38.4561 6.31836 38.1762 6.31836C37.766 6.31836 37.4047 6.3737 37.0922 6.48438C36.7797 6.58854 36.516 6.75781 36.3012 6.99219C36.0928 7.22005 35.9366 7.51628 35.8324 7.88086C35.7283 8.24544 35.6762 8.68164 35.6762 9.18945H40.1488ZM46.4883 4.91211L47.4941 5.9668C47.5658 5.80404 47.6569 5.65104 47.7676 5.50781C47.8848 5.35807 48.0182 5.22786 48.168 5.11719C48.3242 5.00651 48.4967 4.91862 48.6855 4.85352C48.8809 4.78841 49.0924 4.75586 49.3203 4.75586C49.5091 4.75586 49.6914 4.77214 49.8672 4.80469C50.043 4.83073 50.235 4.87956 50.4434 4.95117C50.4499 4.96419 50.4564 5.01628 50.4629 5.10742C50.4759 5.19857 50.4824 5.3125 50.4824 5.44922C50.4824 5.55339 50.4759 5.67708 50.4629 5.82031C50.4499 5.95703 50.4271 6.10026 50.3945 6.25C50.3685 6.39323 50.3262 6.53646 50.2676 6.67969C50.2155 6.82292 50.1471 6.94661 50.0625 7.05078L49.877 7.09961C49.7467 7.03451 49.6003 6.97917 49.4375 6.93359C49.2812 6.88802 49.1185 6.86523 48.9492 6.86523C48.6888 6.86523 48.4707 6.88477 48.2949 6.92383C48.1191 6.95638 47.9759 6.99219 47.8652 7.03125C47.735 7.07682 47.6309 7.12891 47.5527 7.1875V15H45.4629V6.80664L44.6914 6.01562V4.91211H46.4883ZM0.234375 16.3906H3.86719C4.38802 16.3906 4.85417 16.4635 5.26562 16.6094C5.67708 16.75 6.02604 16.9583 6.3125 17.2344C6.59896 17.5052 6.8151 17.8385 6.96094 18.2344C7.11198 18.625 7.1875 19.0703 7.1875 19.5703C7.1875 20.0234 7.10677 20.4583 6.94531 20.875C6.78906 21.2865 6.55208 21.6536 6.23438 21.9766C5.92188 22.2943 5.53125 22.5495 5.0625 22.7422C4.59375 22.9297 4.04948 23.0234 3.42969 23.0234C3.23177 23.0234 3.04688 23.0208 2.875 23.0156C2.70312 23.0104 2.55208 23.0026 2.42188 22.9922C2.27083 22.9818 2.13281 22.9688 2.00781 22.9531V27H0.234375V16.3906ZM2.00781 21.6328C2.08594 21.6432 2.20312 21.6562 2.35938 21.6719C2.51562 21.6823 2.70312 21.6875 2.92188 21.6875C3.27604 21.6875 3.60156 21.651 3.89844 21.5781C4.20052 21.5052 4.46094 21.3906 4.67969 21.2344C4.89844 21.0729 5.06771 20.8646 5.1875 20.6094C5.3125 20.3542 5.375 20.0443 5.375 19.6797C5.375 19.388 5.34375 19.125 5.28125 18.8906C5.22396 18.651 5.13021 18.4479 5 18.2812C4.875 18.1094 4.71094 17.9792 4.50781 17.8906C4.30469 17.7969 4.0599 17.75 3.77344 17.75H2.00781V21.6328ZM8.7825 24.7188C8.7825 24.2865 8.845 23.9193 8.97 23.6172C9.095 23.3151 9.27729 23.0677 9.51688 22.875C9.76167 22.6823 10.0559 22.5391 10.3997 22.4453C10.7486 22.3464 11.1471 22.2839 11.595 22.2578L13.3372 22.1641V21.5391C13.3372 21.2578 13.3111 21.026 13.2591 20.8438C13.2122 20.6615 13.1315 20.5156 13.0169 20.4062C12.9023 20.2969 12.7486 20.2214 12.5559 20.1797C12.3684 20.1328 12.1341 20.1094 11.8528 20.1094C11.5716 20.1094 11.3033 20.1406 11.0481 20.2031C10.7981 20.2656 10.5794 20.3333 10.3919 20.4062C10.1679 20.4948 9.96219 20.5938 9.77469 20.7031C9.6601 20.5417 9.56896 20.388 9.50125 20.2422C9.43354 20.0911 9.38146 19.9557 9.345 19.8359C9.29813 19.7005 9.26688 19.5703 9.25125 19.4453C9.50125 19.3203 9.76948 19.2109 10.0559 19.1172C10.3059 19.0339 10.5924 18.9583 10.9153 18.8906C11.2434 18.8229 11.5872 18.7891 11.9466 18.7891C12.5403 18.7891 13.0325 18.8411 13.4231 18.9453C13.8138 19.0495 14.1236 19.2083 14.3528 19.4219C14.5872 19.6302 14.7486 19.8958 14.8372 20.2188C14.9309 20.5365 14.9778 20.9141 14.9778 21.3516V25.7109L15.6341 26.5078V27H14.1888L13.5872 26.3047H13.3059C13.2799 26.3307 13.2096 26.3906 13.095 26.4844C12.9856 26.5729 12.8424 26.6693 12.6653 26.7734C12.4934 26.8724 12.2955 26.9609 12.0716 27.0391C11.8528 27.1172 11.6184 27.1562 11.3684 27.1562C10.9778 27.1562 10.6236 27.099 10.3059 26.9844C9.98823 26.8646 9.71479 26.6979 9.48563 26.4844C9.26167 26.2656 9.08719 26.0078 8.96219 25.7109C8.8424 25.4089 8.7825 25.0781 8.7825 24.7188ZM10.4856 24.5781C10.4856 24.8177 10.5195 25.0182 10.5872 25.1797C10.6549 25.3359 10.7486 25.4609 10.8684 25.5547C10.9934 25.6484 11.1419 25.7135 11.3138 25.75C11.4908 25.7865 11.6861 25.8047 11.8997 25.8047C12.0976 25.8047 12.2825 25.7812 12.4544 25.7344C12.6315 25.6823 12.7851 25.625 12.9153 25.5625C13.0664 25.4948 13.207 25.4141 13.3372 25.3203V23.2188L11.7669 23.3203C11.5221 23.3359 11.3164 23.3776 11.1497 23.4453C10.9882 23.513 10.858 23.6016 10.7591 23.7109C10.6601 23.8203 10.5898 23.9505 10.5481 24.1016C10.5065 24.2474 10.4856 24.4062 10.4856 24.5781ZM17.94 20.4453L17.3228 19.8125V18.9297H18.7603L19.4322 19.5391L19.6588 19.4922C19.6952 19.4609 19.7785 19.4062 19.9088 19.3281C20.0442 19.25 20.2082 19.1719 20.4009 19.0938C20.5989 19.0156 20.8228 18.9479 21.0728 18.8906C21.3228 18.8281 21.5858 18.7969 21.8619 18.7969C22.2994 18.7969 22.6874 18.862 23.0259 18.9922C23.3697 19.1224 23.6588 19.3099 23.8931 19.5547C24.1275 19.7943 24.3046 20.0833 24.4244 20.4219C24.5442 20.7604 24.6041 21.1406 24.6041 21.5625V27H22.9244V21.7266C22.9244 21.1589 22.8046 20.7422 22.565 20.4766C22.3306 20.2057 21.9556 20.0703 21.44 20.0703C21.1848 20.0703 20.9478 20.0938 20.7291 20.1406C20.5103 20.1823 20.3176 20.2318 20.1509 20.2891C19.9582 20.3516 19.7785 20.4245 19.6119 20.5078V27H17.94V20.4453ZM27.0428 23.0859C27.0428 22.3359 27.134 21.6901 27.3162 21.1484C27.4985 20.6068 27.7537 20.1615 28.0819 19.8125C28.41 19.4635 28.8006 19.2083 29.2537 19.0469C29.7121 18.8802 30.2147 18.7969 30.7616 18.7969C31.2668 18.7969 31.7173 18.8828 32.1131 19.0547C32.5142 19.2214 32.8527 19.4583 33.1287 19.7656C33.4048 20.0729 33.6157 20.4401 33.7616 20.8672C33.9074 21.2943 33.9803 21.7656 33.9803 22.2812C33.9803 22.4583 33.9725 22.6224 33.9569 22.7734C33.9412 22.9245 33.923 23.0547 33.9022 23.1641C33.8814 23.2943 33.8579 23.4115 33.8319 23.5156L28.7069 23.4922C28.7121 23.9557 28.7616 24.3411 28.8553 24.6484C28.9491 24.9505 29.0871 25.1901 29.2694 25.3672C29.4569 25.5443 29.6912 25.6693 29.9725 25.7422C30.2537 25.8099 30.5871 25.8438 30.9725 25.8438C31.3006 25.8438 31.5949 25.8229 31.8553 25.7812C32.1157 25.7396 32.3371 25.6901 32.5194 25.6328C32.7277 25.5703 32.9152 25.4974 33.0819 25.4141C33.16 25.5964 33.2199 25.7656 33.2616 25.9219C33.3084 26.0781 33.3423 26.2135 33.3631 26.3281C33.384 26.4635 33.3996 26.5833 33.41 26.6875C33.2381 26.776 33.0298 26.8542 32.785 26.9219C32.5767 26.9792 32.3215 27.0312 32.0194 27.0781C31.7173 27.1302 31.3683 27.1562 30.9725 27.1562C30.3475 27.1562 29.7902 27.0859 29.3006 26.9453C28.8162 26.8047 28.4048 26.5755 28.0662 26.2578C27.7329 25.9349 27.4777 25.5156 27.3006 25C27.1287 24.4792 27.0428 23.8411 27.0428 23.0859ZM32.3084 22.3516V22.0859C32.3084 21.7578 32.2668 21.4688 32.1834 21.2188C32.1053 20.9635 31.9959 20.75 31.8553 20.5781C31.7147 20.4062 31.548 20.276 31.3553 20.1875C31.1626 20.099 30.9543 20.0547 30.7303 20.0547C30.4022 20.0547 30.1131 20.099 29.8631 20.1875C29.6131 20.2708 29.4022 20.4062 29.2303 20.5938C29.0636 20.776 28.9386 21.013 28.8553 21.3047C28.772 21.5964 28.7303 21.9453 28.7303 22.3516H32.3084ZM36.2863 15.7578H37.9034V25.6875L38.3644 26.0156V27H37.9191L37.9034 26.9844V27C37.3878 27 36.9894 26.8958 36.7081 26.6875C36.4269 26.4792 36.2863 26.1354 36.2863 25.6562V15.7578Z" fill="#F79F94"/>
</svg>
