<svg width="18" height="18" viewBox="0 0 18 18" fill="none" xmlns="http://www.w3.org/2000/svg">
<path opacity="0.4" d="M15.9225 5.71437H11.7675C11.4825 5.71437 11.25 5.48188 11.25 5.18938C11.25 4.90438 11.4825 4.67188 11.7675 4.67188H15.9225C16.2075 4.67188 16.44 4.90438 16.44 5.18938C16.44 5.48188 16.2075 5.71437 15.9225 5.71437Z" fill="#4DA4F4"/>
<path opacity="0.4" d="M4.84457 5.71469H2.07707C1.79207 5.71469 1.55957 5.48219 1.55957 5.19719C1.55957 4.91219 1.79207 4.67969 2.07707 4.67969H4.84457C5.12957 4.67969 5.36207 4.91219 5.36207 5.19719C5.36207 5.48219 5.12957 5.71469 4.84457 5.71469Z" fill="#4DA4F4"/>
<path d="M7.61285 8.13C9.23657 8.13 10.5529 6.81372 10.5529 5.19C10.5529 3.56628 9.23657 2.25 7.61285 2.25C5.98913 2.25 4.67285 3.56628 4.67285 5.19C4.67285 6.81372 5.98913 8.13 7.61285 8.13Z" fill="#4DA4F4"/>
<path opacity="0.4" d="M15.9227 13.3241H13.1552C12.8702 13.3241 12.6377 13.0916 12.6377 12.8066C12.6377 12.5216 12.8702 12.2891 13.1552 12.2891H15.9227C16.2077 12.2891 16.4402 12.5216 16.4402 12.8066C16.4402 13.0916 16.2077 13.3241 15.9227 13.3241Z" fill="#4DA4F4"/>
<path opacity="0.4" d="M6.23207 13.3241H2.07707C1.79207 13.3241 1.55957 13.0916 1.55957 12.8066C1.55957 12.5216 1.79207 12.2891 2.07707 12.2891H6.23207C6.51707 12.2891 6.74957 12.5216 6.74957 12.8066C6.74957 13.0916 6.51707 13.3241 6.23207 13.3241Z" fill="#4DA4F4"/>
<path d="M10.3873 15.7472C12.011 15.7472 13.3273 14.4309 13.3273 12.8072C13.3273 11.1835 12.011 9.86719 10.3873 9.86719C8.76355 9.86719 7.44727 11.1835 7.44727 12.8072C7.44727 14.4309 8.76355 15.7472 10.3873 15.7472Z" fill="#4DA4F4"/>
</svg>
