<svg width="32" height="32" viewBox="0 0 32 32" fill="none" xmlns="http://www.w3.org/2000/svg">
<path d="M27.4932 17.4258C26.9865 17.4258 26.5598 17.0392 26.4932 16.5325C26.1732 13.5192 24.5465 10.7858 22.0398 9.05249C21.5865 8.73249 21.4798 8.11916 21.7865 7.66583C22.1065 7.21249 22.7332 7.10583 23.1732 7.41249C26.1598 9.47916 28.0798 12.7325 28.4665 16.3192C28.5198 16.8658 28.1332 17.3592 27.5732 17.4258C27.5598 17.4258 27.5198 17.4258 27.4932 17.4258Z" fill="#292D32"/>
<path d="M4.65321 17.4924C4.61321 17.4924 4.58654 17.4924 4.54654 17.4924C3.99987 17.4257 3.59987 16.9324 3.65321 16.3857C4.01321 12.799 5.91987 9.55904 8.86654 7.46571C9.31987 7.14571 9.94654 7.25238 10.2665 7.70571C10.5865 8.15904 10.4799 8.78571 10.0265 9.10571C7.54654 10.8524 5.94654 13.5857 5.63987 16.599C5.59987 17.1057 5.15987 17.4924 4.65321 17.4924Z" fill="#292D32"/>
<path d="M16.0798 30.1479C14.1065 30.1479 12.2265 29.6946 10.4665 28.8146C9.97312 28.5613 9.77312 27.9613 10.0265 27.4679C10.2798 26.9746 10.8798 26.7746 11.3731 27.0279C14.2531 28.4813 17.7198 28.5079 20.6265 27.1079C21.1198 26.8679 21.7198 27.0813 21.9598 27.5746C22.1998 28.0679 21.9865 28.6679 21.4931 28.9079C19.7865 29.7346 17.9731 30.1479 16.0798 30.1479Z" fill="#292D32"/>
<path d="M16.0802 11.2532C13.4802 11.2532 11.3735 9.14651 11.3735 6.54651C11.3735 3.94651 13.4802 1.83984 16.0802 1.83984C18.6802 1.83984 20.7869 3.94651 20.7869 6.54651C20.7869 9.14651 18.6669 11.2532 16.0802 11.2532ZM16.0802 3.85318C14.5869 3.85318 13.3735 5.06651 13.3735 6.55984C13.3735 8.05318 14.5869 9.26651 16.0802 9.26651C17.5735 9.26651 18.7869 8.05318 18.7869 6.55984C18.7869 5.06651 17.5602 3.85318 16.0802 3.85318Z" fill="#292D32"/>
<path d="M6.44007 27.5618C3.84007 27.5618 1.7334 25.4551 1.7334 22.8551C1.7334 20.2684 3.84007 18.1484 6.44007 18.1484C9.04007 18.1484 11.1467 20.2551 11.1467 22.8551C11.1467 25.4418 9.04007 27.5618 6.44007 27.5618ZM6.44007 20.1484C4.94673 20.1484 3.7334 21.3618 3.7334 22.8551C3.7334 24.3484 4.94673 25.5618 6.44007 25.5618C7.9334 25.5618 9.14673 24.3484 9.14673 22.8551C9.14673 21.3618 7.9334 20.1484 6.44007 20.1484Z" fill="#292D32"/>
<path d="M25.5602 27.5618C22.9602 27.5618 20.8535 25.4551 20.8535 22.8551C20.8535 20.2684 22.9602 18.1484 25.5602 18.1484C28.1602 18.1484 30.2668 20.2551 30.2668 22.8551C30.2535 25.4418 28.1468 27.5618 25.5602 27.5618ZM25.5602 20.1484C24.0668 20.1484 22.8535 21.3618 22.8535 22.8551C22.8535 24.3484 24.0668 25.5618 25.5602 25.5618C27.0535 25.5618 28.2668 24.3484 28.2668 22.8551C28.2535 21.3618 27.0535 20.1484 25.5602 20.1484Z" fill="#292D32"/>
</svg>
