<svg width="23" height="23" viewBox="0 0 23 23" fill="none" xmlns="http://www.w3.org/2000/svg">
<path opacity="0.4" d="M18.224 5.47257H17.8506L14.696 2.31791C14.444 2.06591 14.0333 2.06591 13.772 2.31791C13.52 2.56991 13.52 2.98057 13.772 3.24191L16.0026 5.47257H6.93064L9.1613 3.24191C9.4133 2.98991 9.4133 2.57924 9.1613 2.31791C8.9093 2.06591 8.49864 2.06591 8.2373 2.31791L5.09197 5.47257H4.71864C3.87863 5.47257 2.1333 5.47257 2.1333 7.86191C2.1333 8.76724 2.31997 9.36457 2.71197 9.75658C2.93597 9.98991 3.20663 10.1112 3.49597 10.1766C3.76663 10.2419 4.05597 10.2512 4.33597 10.2512H18.5973C18.8866 10.2512 19.1573 10.2326 19.4186 10.1766C20.2026 9.98991 20.8 9.42991 20.8 7.86191C20.8 5.47257 19.0546 5.47257 18.224 5.47257Z" fill="#EA6352"/>
<path d="M18.6068 10.2504H4.33609C4.05609 10.2504 3.76676 10.2411 3.49609 10.1758L4.67209 17.3438C4.93343 18.9491 5.63343 20.7971 8.74143 20.7971H13.9774C17.1228 20.7971 17.6828 19.2198 18.0188 17.4558L19.4281 10.1758C19.1668 10.2318 18.8868 10.2504 18.6068 10.2504ZM10.1694 16.2798C10.1694 16.6438 9.8801 16.9331 9.5161 16.9331C9.1521 16.9331 8.86276 16.6438 8.86276 16.2798V13.1998C8.86276 12.8358 9.1521 12.5464 9.5161 12.5464C9.8801 12.5464 10.1694 12.8358 10.1694 13.1998V16.2798ZM14.1641 16.2798C14.1641 16.6438 13.8748 16.9331 13.5108 16.9331C13.1468 16.9331 12.8574 16.6438 12.8574 16.2798V13.1998C12.8574 12.8358 13.1468 12.5464 13.5108 12.5464C13.8748 12.5464 14.1641 12.8358 14.1641 13.1998V16.2798Z" fill="#EA6352"/>
</svg>
