<svg width="14" height="14" viewBox="0 0 14 14" fill="none" xmlns="http://www.w3.org/2000/svg">
<path d="M10.6107 10.3545H4.39817C3.82067 10.3545 3.2665 10.1095 2.87567 9.68366C2.48483 9.25783 2.2865 8.68615 2.33317 8.10865L2.81734 2.29866C2.83484 2.11783 2.77067 1.94283 2.64817 1.80866C2.52567 1.6745 2.3565 1.60449 2.17567 1.60449H1.1665C0.927337 1.60449 0.729004 1.40616 0.729004 1.16699C0.729004 0.927826 0.927337 0.729492 1.1665 0.729492H2.18151C2.60734 0.729492 3.00983 0.910323 3.29567 1.21949C3.45317 1.39449 3.56983 1.59866 3.634 1.82616H10.9198C11.509 1.82616 12.0515 2.05949 12.4482 2.47949C12.839 2.90533 13.0373 3.45949 12.9907 4.04866L12.6757 8.42366C12.6115 9.49116 11.6782 10.3545 10.6107 10.3545ZM3.66317 2.69532L3.20817 8.17865C3.179 8.51699 3.28984 8.83782 3.51734 9.08865C3.74484 9.33948 4.05983 9.47365 4.39817 9.47365H10.6107C11.2173 9.47365 11.7657 8.96033 11.8123 8.35366L12.1273 3.97866C12.1507 3.6345 12.0398 3.30783 11.8123 3.06866C11.5848 2.82366 11.2698 2.68948 10.9257 2.68948H3.66317V2.69532Z" fill="#4DA4F4"/>
<path d="M9.47917 13.2708C8.8375 13.2708 8.3125 12.7458 8.3125 12.1042C8.3125 11.4625 8.8375 10.9375 9.47917 10.9375C10.1208 10.9375 10.6458 11.4625 10.6458 12.1042C10.6458 12.7458 10.1208 13.2708 9.47917 13.2708ZM9.47917 11.8125C9.31583 11.8125 9.1875 11.9408 9.1875 12.1042C9.1875 12.2675 9.31583 12.3958 9.47917 12.3958C9.6425 12.3958 9.77083 12.2675 9.77083 12.1042C9.77083 11.9408 9.6425 11.8125 9.47917 11.8125Z" fill="#4DA4F4"/>
<path d="M4.81266 13.2708C4.171 13.2708 3.646 12.7458 3.646 12.1042C3.646 11.4625 4.171 10.9375 4.81266 10.9375C5.45433 10.9375 5.97933 11.4625 5.97933 12.1042C5.97933 12.7458 5.45433 13.2708 4.81266 13.2708ZM4.81266 11.8125C4.64933 11.8125 4.521 11.9408 4.521 12.1042C4.521 12.2675 4.64933 12.3958 4.81266 12.3958C4.976 12.3958 5.10433 12.2675 5.10433 12.1042C5.10433 11.9408 4.976 11.8125 4.81266 11.8125Z" fill="#4DA4F4"/>
<path d="M12.25 5.10449H5.25C5.01083 5.10449 4.8125 4.90616 4.8125 4.66699C4.8125 4.42783 5.01083 4.22949 5.25 4.22949H12.25C12.4892 4.22949 12.6875 4.42783 12.6875 4.66699C12.6875 4.90616 12.4892 5.10449 12.25 5.10449Z" fill="#4DA4F4"/>
</svg>
