<svg width="20" height="20" viewBox="0 0 20 20" fill="none" xmlns="http://www.w3.org/2000/svg">
<path d="M15.1582 14.793H6.28317C5.45817 14.793 4.6665 14.443 4.10816 13.8346C3.54983 13.2263 3.2665 12.4096 3.33317 11.5846L4.02484 3.28464C4.04984 3.0263 3.95817 2.77631 3.78317 2.58464C3.60817 2.39297 3.3665 2.29297 3.10817 2.29297H1.6665C1.32484 2.29297 1.0415 2.00964 1.0415 1.66797C1.0415 1.3263 1.32484 1.04297 1.6665 1.04297H3.11651C3.72484 1.04297 4.29983 1.3013 4.70817 1.74297C4.93317 1.99297 5.09983 2.28464 5.1915 2.60964H15.5998C16.4415 2.60964 17.2165 2.94297 17.7832 3.54297C18.3415 4.1513 18.6248 4.94297 18.5582 5.78464L18.1082 12.0346C18.0165 13.5596 16.6832 14.793 15.1582 14.793ZM5.23317 3.8513L4.58317 11.6846C4.5415 12.168 4.69984 12.6263 5.02484 12.9846C5.34984 13.343 5.79983 13.5346 6.28317 13.5346H15.1582C16.0248 13.5346 16.8082 12.8013 16.8748 11.9346L17.3248 5.68464C17.3582 5.19297 17.1998 4.72631 16.8748 4.38464C16.5498 4.03464 16.0998 3.84296 15.6082 3.84296H5.23317V3.8513Z" fill="#EA6352"/>
<path d="M13.5417 18.9583C12.625 18.9583 11.875 18.2083 11.875 17.2917C11.875 16.375 12.625 15.625 13.5417 15.625C14.4583 15.625 15.2083 16.375 15.2083 17.2917C15.2083 18.2083 14.4583 18.9583 13.5417 18.9583ZM13.5417 16.875C13.3083 16.875 13.125 17.0583 13.125 17.2917C13.125 17.525 13.3083 17.7083 13.5417 17.7083C13.775 17.7083 13.9583 17.525 13.9583 17.2917C13.9583 17.0583 13.775 16.875 13.5417 16.875Z" fill="#EA6352"/>
<path d="M6.87516 18.9583C5.9585 18.9583 5.2085 18.2083 5.2085 17.2917C5.2085 16.375 5.9585 15.625 6.87516 15.625C7.79183 15.625 8.54183 16.375 8.54183 17.2917C8.54183 18.2083 7.79183 18.9583 6.87516 18.9583ZM6.87516 16.875C6.64183 16.875 6.4585 17.0583 6.4585 17.2917C6.4585 17.525 6.64183 17.7083 6.87516 17.7083C7.1085 17.7083 7.29183 17.525 7.29183 17.2917C7.29183 17.0583 7.1085 16.875 6.87516 16.875Z" fill="#EA6352"/>
<path d="M17.5 7.29297H7.5C7.15833 7.29297 6.875 7.00964 6.875 6.66797C6.875 6.3263 7.15833 6.04297 7.5 6.04297H17.5C17.8417 6.04297 18.125 6.3263 18.125 6.66797C18.125 7.00964 17.8417 7.29297 17.5 7.29297Z" fill="#EA6352"/>
</svg>
