<svg width="21" height="20" viewBox="0 0 21 20" fill="none" xmlns="http://www.w3.org/2000/svg">
<path d="M4.81014 12.32C5.07307 12.571 5.19387 12.934 5.13398 13.29L4.23151 18.21C4.15537 18.627 4.33404 19.049 4.68833 19.29C5.03551 19.54 5.4974 19.57 5.87605 19.37L10.3722 17.06C10.5285 16.978 10.7021 16.934 10.8797 16.929H11.1548C11.2503 16.943 11.3437 16.973 11.4289 17.019L15.9261 19.34C16.1484 19.45 16.4001 19.489 16.6468 19.45C17.2478 19.338 17.6488 18.774 17.5503 18.179L16.6468 13.259C16.5869 12.9 16.7077 12.535 16.9706 12.28L20.6364 8.78C20.9429 8.487 21.0495 8.047 20.9094 7.65C20.7734 7.254 20.4262 6.965 20.007 6.9L14.9617 6.179C14.5779 6.14 14.2409 5.91 14.0683 5.57L11.8451 1.08C11.7924 0.98 11.7243 0.888 11.6421 0.81L11.5508 0.74C11.503 0.688 11.4482 0.645 11.3873 0.61L11.2767 0.57L11.1041 0.5H10.6767C10.295 0.539 9.95899 0.764 9.78337 1.1L7.53075 5.57C7.36833 5.897 7.05261 6.124 6.68817 6.179L1.64287 6.9C1.21651 6.96 0.860189 7.25 0.719084 7.65C0.5861 8.051 0.700809 8.491 1.01348 8.78L4.81014 12.32Z" fill="#FDC040"/>
</svg>
