<svg width="22" height="20" viewBox="0 0 22 20" fill="none" xmlns="http://www.w3.org/2000/svg">
<path d="M5.02255 12.32C5.28547 12.571 5.40627 12.934 5.34638 13.29L4.44391 18.21C4.36777 18.627 4.54644 19.049 4.90073 19.29C5.24791 19.54 5.7098 19.57 6.08846 19.37L10.5846 17.06C10.7409 16.978 10.9145 16.934 11.0921 16.929H11.3672C11.4627 16.943 11.5561 16.973 11.6413 17.019L16.1385 19.34C16.3608 19.45 16.6125 19.489 16.8592 19.45C17.4602 19.338 17.8612 18.774 17.7627 18.179L16.8592 13.259C16.7993 12.9 16.9201 12.535 17.183 12.28L20.8488 8.78C21.1553 8.487 21.2619 8.047 21.1218 7.65C20.9858 7.254 20.6386 6.965 20.2194 6.9L15.1741 6.179C14.7903 6.14 14.4533 5.91 14.2807 5.57L12.0575 1.08C12.0048 0.98 11.9367 0.888 11.8545 0.81L11.7632 0.74C11.7154 0.688 11.6606 0.645 11.5997 0.61L11.4891 0.57L11.3165 0.5H10.8891C10.5074 0.539 10.1714 0.764 9.99577 1.1L7.74315 5.57C7.58073 5.897 7.26502 6.124 6.90058 6.179L1.85527 6.9C1.42891 6.96 1.07259 7.25 0.931486 7.65C0.798502 8.051 0.913212 8.491 1.22588 8.78L5.02255 12.32Z" fill="#D5D5D5"/>
</svg>
