<svg width="24" height="24" viewBox="0 0 24 24" fill="none" xmlns="http://www.w3.org/2000/svg">
<path d="M22 22.75H2C1.59 22.75 1.25 22.41 1.25 22C1.25 21.59 1.59 21.25 2 21.25H22C22.41 21.25 22.75 21.59 22.75 22C22.75 22.41 22.41 22.75 22 22.75Z" fill="#DEDFE1"/>
<path d="M21 22.75H3C2.59 22.75 2.25 22.41 2.25 22V15C2.25 9.62 6.62 5.25 12 5.25C17.38 5.25 21.75 9.62 21.75 15V22C21.75 22.41 21.41 22.75 21 22.75ZM3.75 21.25H20.25V15C20.25 10.45 16.55 6.75 12 6.75C7.45 6.75 3.75 10.45 3.75 15V21.25Z" fill="#DEDFE1"/>
<path d="M12 3.75C11.59 3.75 11.25 3.41 11.25 3V2C11.25 1.59 11.59 1.25 12 1.25C12.41 1.25 12.75 1.59 12.75 2V3C12.75 3.41 12.41 3.75 12 3.75Z" fill="#DEDFE1"/>
<path d="M4.99994 5.7475C4.80994 5.7475 4.61994 5.6775 4.46994 5.5275L3.46994 4.5275C3.17994 4.2375 3.17994 3.7575 3.46994 3.4675C3.75994 3.1775 4.23994 3.1775 4.52994 3.4675L5.52994 4.4675C5.81994 4.7575 5.81994 5.2375 5.52994 5.5275C5.37994 5.6775 5.18994 5.7475 4.99994 5.7475Z" fill="#DEDFE1"/>
<path d="M18.9999 5.7475C18.8099 5.7475 18.6199 5.6775 18.4699 5.5275C18.1799 5.2375 18.1799 4.7575 18.4699 4.4675L19.4699 3.4675C19.7599 3.1775 20.2399 3.1775 20.5299 3.4675C20.8199 3.7575 20.8199 4.2375 20.5299 4.5275L19.5299 5.5275C19.3799 5.6775 19.1899 5.7475 18.9999 5.7475Z" fill="#DEDFE1"/>
</svg>
