<svg width="18" height="18" viewBox="0 0 18 18" fill="none" xmlns="http://www.w3.org/2000/svg">
<path opacity="0.4" d="M13.7626 14.76C13.3501 15.8175 12.3451 16.5 11.2126 16.5H6.78761C5.64761 16.5 4.65011 15.8175 4.23761 14.76C3.82511 13.695 4.11011 12.5175 4.95011 11.7525L7.98761 9H10.0201L13.0501 11.7525C13.8901 12.5175 14.1676 13.695 13.7626 14.76Z" fill="#FF7D04"/>
<path d="M10.365 13.6059H7.635C7.35 13.6059 7.125 13.3734 7.125 13.0959C7.125 12.8109 7.3575 12.5859 7.635 12.5859H10.365C10.65 12.5859 10.875 12.8184 10.875 13.0959C10.875 13.3734 10.6425 13.6059 10.365 13.6059Z" fill="#FF7D04"/>
<path d="M13.7625 3.24C13.35 2.1825 12.345 1.5 11.2125 1.5H6.7875C5.655 1.5 4.65 2.1825 4.2375 3.24C3.8325 4.305 4.11 5.4825 4.9575 6.2475L7.9875 9H10.02L13.05 6.2475C13.89 5.4825 14.1675 4.305 13.7625 3.24ZM10.365 5.4225H7.635C7.35 5.4225 7.125 5.19 7.125 4.9125C7.125 4.635 7.3575 4.4025 7.635 4.4025H10.365C10.65 4.4025 10.875 4.635 10.875 4.9125C10.875 5.19 10.6425 5.4225 10.365 5.4225Z" fill="#FF7D04"/>
</svg>
