<svg width="14" height="14" viewBox="0 0 14 14" fill="none" xmlns="http://www.w3.org/2000/svg">
<path d="M12.25 3.48796C10.3075 3.29546 8.35333 3.19629 6.405 3.19629C5.25 3.19629 4.095 3.25462 2.94 3.37129L1.75 3.48796" stroke="#9B9BA1" stroke-linecap="round" stroke-linejoin="round"/>
<path d="M4.9585 2.89949L5.08683 2.13533C5.18016 1.58116 5.25016 1.16699 6.236 1.16699H7.76433C8.75016 1.16699 8.826 1.60449 8.9135 2.14116L9.04183 2.89949" stroke="#9B9BA1" stroke-linecap="round" stroke-linejoin="round"/>
<path d="M10.9961 5.33203L10.6169 11.2062C10.5527 12.122 10.5002 12.8337 8.87273 12.8337H5.12773C3.50023 12.8337 3.44773 12.122 3.38356 11.2062L3.00439 5.33203" stroke="#9B9BA1" stroke-linecap="round" stroke-linejoin="round"/>
<path d="M6.02588 9.625H7.96838" stroke="#9B9BA1" stroke-linecap="round" stroke-linejoin="round"/>
<path d="M5.5415 7.29199H8.45817" stroke="#9B9BA1" stroke-linecap="round" stroke-linejoin="round"/>
</svg>
