<svg width="11" height="10" viewBox="0 0 11 10" fill="none" xmlns="http://www.w3.org/2000/svg">
<path fill-rule="evenodd" clip-rule="evenodd" d="M4.3734 0.849742C4.3771 0.63171 4.46724 0.424074 4.62401 0.272495C4.78078 0.120916 4.99133 0.0378064 5.20936 0.0414424L9.86076 0.119708C10.0788 0.123409 10.2864 0.213556 10.438 0.370323C10.5896 0.52709 10.6727 0.737641 10.6691 0.955675L10.5908 5.60707C10.5834 5.82258 10.4917 6.02656 10.3354 6.1751C10.1791 6.32363 9.97067 6.40483 9.75506 6.40121C9.53946 6.39758 9.33391 6.30941 9.18268 6.1557C9.03145 6.00199 8.94664 5.79504 8.94653 5.5794L8.99139 2.91299L2.14166 9.53603C1.98486 9.68763 1.77426 9.77075 1.55618 9.76708C1.33811 9.76341 1.13042 9.67326 0.978811 9.51646C0.827202 9.35966 0.744091 9.14906 0.74776 8.93098C0.75143 8.71291 0.841579 8.50522 0.998377 8.35361L7.84811 1.73058L5.1817 1.68571C4.96366 1.68201 4.75603 1.59186 4.60445 1.4351C4.45287 1.27833 4.36976 1.06778 4.3734 0.849742Z" fill="#2DB95D"/>
</svg>
