<svg width="54" height="54" viewBox="0 0 54 54" fill="none" xmlns="http://www.w3.org/2000/svg">
<path opacity="0.4" d="M49.5 17.5725V36.4275C49.5 42.75 46.5975 47.0924 41.49 48.7349C40.005 49.2524 38.295 49.5 36.4275 49.5H17.5725C15.705 49.5 13.995 49.2524 12.51 48.7349C7.40249 47.0924 4.5 42.75 4.5 36.4275V17.5725C4.5 9.38249 9.38249 4.5 17.5725 4.5H36.4275C44.6175 4.5 49.5 9.38249 49.5 17.5725Z" fill="#EA6352"/>
<path d="M41.4898 48.7361C40.0048 49.2536 38.2948 49.5012 36.4273 49.5012H17.5723C15.7048 49.5012 13.9948 49.2536 12.5098 48.7361C13.2973 42.7961 19.5073 38.1836 26.9998 38.1836C34.4923 38.1836 40.7023 42.7961 41.4898 48.7361Z" fill="#EA6352"/>
<path d="M35.0548 26.055C35.0548 30.51 31.4548 34.1325 26.9998 34.1325C22.5448 34.1325 18.9448 30.51 18.9448 26.055C18.9448 21.6 22.5448 18 26.9998 18C31.4548 18 35.0548 21.6 35.0548 26.055Z" fill="#EA6352"/>
</svg>
