<svg width="40" height="27" viewBox="0 0 40 27" fill="none" xmlns="http://www.w3.org/2000/svg">
<path opacity="0.6" d="M0.142578 8.82422C0.142578 8.6224 0.142578 8.35221 0.142578 8.01367C0.142578 7.66862 0.142578 7.28776 0.142578 6.87109C0.149089 6.45443 0.152344 6.01497 0.152344 5.55273C0.158854 5.08398 0.162109 4.62174 0.162109 4.16602C0.16862 3.09831 0.17513 1.95573 0.181641 0.738281H2.34961V9.14648C2.34961 9.64779 2.39844 10.1003 2.49609 10.5039C2.59375 10.9076 2.75 11.2526 2.96484 11.5391C3.1862 11.8255 3.4694 12.0469 3.81445 12.2031C4.15951 12.3594 4.58268 12.4375 5.08398 12.4375C5.57878 12.4375 6.00195 12.3594 6.35352 12.2031C6.70508 12.0469 6.99154 11.8255 7.21289 11.5391C7.43424 11.2526 7.59375 10.9076 7.69141 10.5039C7.79557 10.1003 7.84766 9.64779 7.84766 9.14648C7.84766 9.00326 7.84766 8.77214 7.84766 8.45312C7.84766 8.13411 7.8444 7.76628 7.83789 7.34961C7.83789 6.92643 7.83464 6.4707 7.82812 5.98242C7.82812 5.48763 7.82812 4.99609 7.82812 4.50781C7.82161 3.36198 7.8151 2.10547 7.80859 0.738281H9.9668V8.82422C9.9668 9.70964 9.88216 10.4876 9.71289 11.1582C9.55013 11.8288 9.27995 12.3887 8.90234 12.8379C8.52474 13.2871 8.02344 13.6257 7.39844 13.8535C6.77344 14.0814 6.00195 14.1953 5.08398 14.1953C4.17904 14.1953 3.41081 14.0814 2.7793 13.8535C2.1543 13.6191 1.64648 13.2773 1.25586 12.8281C0.865234 12.3724 0.582031 11.8092 0.40625 11.1387C0.230469 10.4681 0.142578 9.69661 0.142578 8.82422ZM12.8687 13.5508C12.8687 13.401 12.8818 13.2383 12.9078 13.0625C12.9273 12.9128 12.9566 12.7435 12.9957 12.5547C13.0413 12.3594 13.1064 12.1576 13.191 11.9492C13.4775 12.0599 13.777 12.1576 14.0895 12.2422C14.3564 12.3138 14.6461 12.3822 14.9586 12.4473C15.2711 12.5059 15.5803 12.5352 15.8863 12.5352C16.1598 12.5352 16.4137 12.5254 16.648 12.5059C16.8824 12.4863 17.0842 12.4342 17.2535 12.3496C17.4293 12.2585 17.566 12.125 17.6637 11.9492C17.7613 11.7669 17.8102 11.5163 17.8102 11.1973C17.8102 10.8132 17.6897 10.5104 17.4488 10.2891C17.2145 10.0677 16.8043 9.90169 16.2184 9.79102C15.6129 9.67383 15.1018 9.51758 14.6852 9.32227C14.275 9.12695 13.9397 8.90234 13.6793 8.64844C13.4254 8.38802 13.2398 8.09831 13.1227 7.7793C13.012 7.46029 12.9566 7.11849 12.9566 6.75391C12.9566 6.20703 13.0445 5.74154 13.2203 5.35742C13.3961 4.97331 13.65 4.66406 13.982 4.42969C14.3206 4.1888 14.7372 4.01628 15.232 3.91211C15.7333 3.80143 16.3062 3.74609 16.9508 3.74609C17.4 3.74609 17.7971 3.77865 18.1422 3.84375C18.4937 3.90234 18.7867 3.96745 19.0211 4.03906C19.2945 4.1237 19.5322 4.22135 19.734 4.33203C19.7145 4.47526 19.6786 4.63151 19.6266 4.80078C19.581 4.94401 19.5191 5.10677 19.441 5.28906C19.3694 5.47135 19.2717 5.6569 19.148 5.8457C18.9723 5.74154 18.7704 5.65039 18.5426 5.57227C18.3473 5.50065 18.1129 5.4388 17.8395 5.38672C17.566 5.32812 17.2535 5.29883 16.902 5.29883C16.6285 5.29883 16.3746 5.31185 16.1402 5.33789C15.9124 5.36393 15.7138 5.42253 15.5445 5.51367C15.3818 5.60482 15.2548 5.74479 15.1637 5.93359C15.0725 6.11589 15.027 6.36654 15.027 6.68555C15.027 6.8418 15.0465 6.98503 15.0855 7.11523C15.1311 7.23893 15.2158 7.35286 15.3395 7.45703C15.4697 7.5612 15.6487 7.65885 15.8766 7.75C16.1109 7.83464 16.4202 7.91927 16.8043 8.00391C17.4033 8.13411 17.9013 8.28385 18.2984 8.45312C18.7021 8.6224 19.0211 8.82747 19.2555 9.06836C19.4964 9.30924 19.6656 9.59245 19.7633 9.91797C19.8674 10.237 19.9195 10.6178 19.9195 11.0605C19.9195 11.5358 19.8447 11.9655 19.6949 12.3496C19.5452 12.7337 19.3108 13.0625 18.9918 13.3359C18.6728 13.6094 18.2626 13.821 17.7613 13.9707C17.26 14.1204 16.6546 14.1953 15.9449 14.1953C15.4892 14.1953 15.0725 14.1628 14.6949 14.0977C14.3238 14.0326 14.0016 13.9577 13.7281 13.873C13.4091 13.7819 13.1227 13.6745 12.8687 13.5508ZM22.5871 9.10742C22.5871 8.16992 22.701 7.36263 22.9289 6.68555C23.1568 6.00846 23.4758 5.45182 23.8859 5.01562C24.2961 4.57943 24.7844 4.26042 25.3508 4.05859C25.9237 3.85026 26.552 3.74609 27.2355 3.74609C27.8671 3.74609 28.4302 3.85352 28.925 4.06836C29.4263 4.27669 29.8495 4.57292 30.1945 4.95703C30.5396 5.34115 30.8033 5.80013 30.9855 6.33398C31.1678 6.86784 31.259 7.45703 31.259 8.10156C31.259 8.32292 31.2492 8.52799 31.2297 8.7168C31.2102 8.9056 31.1874 9.06836 31.1613 9.20508C31.1353 9.36784 31.106 9.51432 31.0734 9.64453L24.6672 9.61523C24.6737 10.1947 24.7355 10.6764 24.8527 11.0605C24.9699 11.4382 25.1424 11.7376 25.3703 11.959C25.6047 12.1803 25.8977 12.3366 26.2492 12.4277C26.6008 12.5124 27.0174 12.5547 27.4992 12.5547C27.9094 12.5547 28.2772 12.5286 28.6027 12.4766C28.9283 12.4245 29.2049 12.3626 29.4328 12.291C29.6932 12.2129 29.9276 12.1217 30.1359 12.0176C30.2336 12.2454 30.3085 12.457 30.3605 12.6523C30.4191 12.8477 30.4615 13.0169 30.4875 13.1602C30.5135 13.3294 30.5331 13.4792 30.5461 13.6094C30.3312 13.7201 30.0708 13.8177 29.7648 13.9023C29.5044 13.974 29.1854 14.0391 28.8078 14.0977C28.4302 14.1628 27.994 14.1953 27.4992 14.1953C26.718 14.1953 26.0214 14.1074 25.4094 13.9316C24.8039 13.7559 24.2896 13.4694 23.8664 13.0723C23.4497 12.6686 23.1307 12.1445 22.9094 11.5C22.6945 10.849 22.5871 10.0514 22.5871 9.10742ZM29.1691 8.18945V7.85742C29.1691 7.44727 29.1171 7.08594 29.0129 6.77344C28.9152 6.45443 28.7785 6.1875 28.6027 5.97266C28.427 5.75781 28.2186 5.59505 27.9777 5.48438C27.7368 5.3737 27.4764 5.31836 27.1965 5.31836C26.7863 5.31836 26.425 5.3737 26.1125 5.48438C25.8 5.58854 25.5363 5.75781 25.3215 5.99219C25.1132 6.22005 24.9569 6.51628 24.8527 6.88086C24.7486 7.24544 24.6965 7.68164 24.6965 8.18945H29.1691ZM35.5086 3.91211L36.5145 4.9668C36.5861 4.80404 36.6772 4.65104 36.7879 4.50781C36.9051 4.35807 37.0385 4.22786 37.1883 4.11719C37.3445 4.00651 37.5171 3.91862 37.7059 3.85352C37.9012 3.78841 38.1128 3.75586 38.3406 3.75586C38.5294 3.75586 38.7117 3.77214 38.8875 3.80469C39.0633 3.83073 39.2553 3.87956 39.4637 3.95117C39.4702 3.96419 39.4767 4.01628 39.4832 4.10742C39.4962 4.19857 39.5027 4.3125 39.5027 4.44922C39.5027 4.55339 39.4962 4.67708 39.4832 4.82031C39.4702 4.95703 39.4474 5.10026 39.4148 5.25C39.3888 5.39323 39.3465 5.53646 39.2879 5.67969C39.2358 5.82292 39.1674 5.94661 39.0828 6.05078L38.8973 6.09961C38.7671 6.03451 38.6206 5.97917 38.4578 5.93359C38.3016 5.88802 38.1388 5.86523 37.9695 5.86523C37.7091 5.86523 37.491 5.88477 37.3152 5.92383C37.1395 5.95638 36.9962 5.99219 36.8855 6.03125C36.7553 6.07682 36.6512 6.12891 36.573 6.1875V14H34.4832V5.80664L33.7117 5.01562V3.91211H35.5086ZM0.234375 15.3906H3.86719C4.38802 15.3906 4.85417 15.4635 5.26562 15.6094C5.67708 15.75 6.02604 15.9583 6.3125 16.2344C6.59896 16.5052 6.8151 16.8385 6.96094 17.2344C7.11198 17.625 7.1875 18.0703 7.1875 18.5703C7.1875 19.0234 7.10677 19.4583 6.94531 19.875C6.78906 20.2865 6.55208 20.6536 6.23438 20.9766C5.92188 21.2943 5.53125 21.5495 5.0625 21.7422C4.59375 21.9297 4.04948 22.0234 3.42969 22.0234C3.23177 22.0234 3.04688 22.0208 2.875 22.0156C2.70312 22.0104 2.55208 22.0026 2.42188 21.9922C2.27083 21.9818 2.13281 21.9688 2.00781 21.9531V26H0.234375V15.3906ZM2.00781 20.6328C2.08594 20.6432 2.20312 20.6562 2.35938 20.6719C2.51562 20.6823 2.70312 20.6875 2.92188 20.6875C3.27604 20.6875 3.60156 20.651 3.89844 20.5781C4.20052 20.5052 4.46094 20.3906 4.67969 20.2344C4.89844 20.0729 5.06771 19.8646 5.1875 19.6094C5.3125 19.3542 5.375 19.0443 5.375 18.6797C5.375 18.388 5.34375 18.125 5.28125 17.8906C5.22396 17.651 5.13021 17.4479 5 17.2812C4.875 17.1094 4.71094 16.9792 4.50781 16.8906C4.30469 16.7969 4.0599 16.75 3.77344 16.75H2.00781V20.6328ZM8.7825 23.7188C8.7825 23.2865 8.845 22.9193 8.97 22.6172C9.095 22.3151 9.27729 22.0677 9.51688 21.875C9.76167 21.6823 10.0559 21.5391 10.3997 21.4453C10.7486 21.3464 11.1471 21.2839 11.595 21.2578L13.3372 21.1641V20.5391C13.3372 20.2578 13.3111 20.026 13.2591 19.8438C13.2122 19.6615 13.1315 19.5156 13.0169 19.4062C12.9023 19.2969 12.7486 19.2214 12.5559 19.1797C12.3684 19.1328 12.1341 19.1094 11.8528 19.1094C11.5716 19.1094 11.3033 19.1406 11.0481 19.2031C10.7981 19.2656 10.5794 19.3333 10.3919 19.4062C10.1679 19.4948 9.96219 19.5938 9.77469 19.7031C9.6601 19.5417 9.56896 19.388 9.50125 19.2422C9.43354 19.0911 9.38146 18.9557 9.345 18.8359C9.29813 18.7005 9.26688 18.5703 9.25125 18.4453C9.50125 18.3203 9.76948 18.2109 10.0559 18.1172C10.3059 18.0339 10.5924 17.9583 10.9153 17.8906C11.2434 17.8229 11.5872 17.7891 11.9466 17.7891C12.5403 17.7891 13.0325 17.8411 13.4231 17.9453C13.8138 18.0495 14.1236 18.2083 14.3528 18.4219C14.5872 18.6302 14.7486 18.8958 14.8372 19.2188C14.9309 19.5365 14.9778 19.9141 14.9778 20.3516V24.7109L15.6341 25.5078V26H14.1888L13.5872 25.3047H13.3059C13.2799 25.3307 13.2096 25.3906 13.095 25.4844C12.9856 25.5729 12.8424 25.6693 12.6653 25.7734C12.4934 25.8724 12.2955 25.9609 12.0716 26.0391C11.8528 26.1172 11.6184 26.1562 11.3684 26.1562C10.9778 26.1562 10.6236 26.099 10.3059 25.9844C9.98823 25.8646 9.71479 25.6979 9.48563 25.4844C9.26167 25.2656 9.08719 25.0078 8.96219 24.7109C8.8424 24.4089 8.7825 24.0781 8.7825 23.7188ZM10.4856 23.5781C10.4856 23.8177 10.5195 24.0182 10.5872 24.1797C10.6549 24.3359 10.7486 24.4609 10.8684 24.5547C10.9934 24.6484 11.1419 24.7135 11.3138 24.75C11.4908 24.7865 11.6861 24.8047 11.8997 24.8047C12.0976 24.8047 12.2825 24.7812 12.4544 24.7344C12.6315 24.6823 12.7851 24.625 12.9153 24.5625C13.0664 24.4948 13.207 24.4141 13.3372 24.3203V22.2188L11.7669 22.3203C11.5221 22.3359 11.3164 22.3776 11.1497 22.4453C10.9882 22.513 10.858 22.6016 10.7591 22.7109C10.6601 22.8203 10.5898 22.9505 10.5481 23.1016C10.5065 23.2474 10.4856 23.4062 10.4856 23.5781ZM17.94 19.4453L17.3228 18.8125V17.9297H18.7603L19.4322 18.5391L19.6588 18.4922C19.6952 18.4609 19.7785 18.4062 19.9088 18.3281C20.0442 18.25 20.2082 18.1719 20.4009 18.0938C20.5989 18.0156 20.8228 17.9479 21.0728 17.8906C21.3228 17.8281 21.5858 17.7969 21.8619 17.7969C22.2994 17.7969 22.6874 17.862 23.0259 17.9922C23.3697 18.1224 23.6588 18.3099 23.8931 18.5547C24.1275 18.7943 24.3046 19.0833 24.4244 19.4219C24.5442 19.7604 24.6041 20.1406 24.6041 20.5625V26H22.9244V20.7266C22.9244 20.1589 22.8046 19.7422 22.565 19.4766C22.3306 19.2057 21.9556 19.0703 21.44 19.0703C21.1848 19.0703 20.9478 19.0938 20.7291 19.1406C20.5103 19.1823 20.3176 19.2318 20.1509 19.2891C19.9582 19.3516 19.7785 19.4245 19.6119 19.5078V26H17.94V19.4453ZM27.0428 22.0859C27.0428 21.3359 27.134 20.6901 27.3162 20.1484C27.4985 19.6068 27.7537 19.1615 28.0819 18.8125C28.41 18.4635 28.8006 18.2083 29.2537 18.0469C29.7121 17.8802 30.2147 17.7969 30.7616 17.7969C31.2668 17.7969 31.7173 17.8828 32.1131 18.0547C32.5142 18.2214 32.8527 18.4583 33.1287 18.7656C33.4048 19.0729 33.6157 19.4401 33.7616 19.8672C33.9074 20.2943 33.9803 20.7656 33.9803 21.2812C33.9803 21.4583 33.9725 21.6224 33.9569 21.7734C33.9412 21.9245 33.923 22.0547 33.9022 22.1641C33.8814 22.2943 33.8579 22.4115 33.8319 22.5156L28.7069 22.4922C28.7121 22.9557 28.7616 23.3411 28.8553 23.6484C28.9491 23.9505 29.0871 24.1901 29.2694 24.3672C29.4569 24.5443 29.6912 24.6693 29.9725 24.7422C30.2537 24.8099 30.5871 24.8438 30.9725 24.8438C31.3006 24.8438 31.5949 24.8229 31.8553 24.7812C32.1157 24.7396 32.3371 24.6901 32.5194 24.6328C32.7277 24.5703 32.9152 24.4974 33.0819 24.4141C33.16 24.5964 33.2199 24.7656 33.2616 24.9219C33.3084 25.0781 33.3423 25.2135 33.3631 25.3281C33.384 25.4635 33.3996 25.5833 33.41 25.6875C33.2381 25.776 33.0298 25.8542 32.785 25.9219C32.5767 25.9792 32.3215 26.0312 32.0194 26.0781C31.7173 26.1302 31.3683 26.1562 30.9725 26.1562C30.3475 26.1562 29.7902 26.0859 29.3006 25.9453C28.8162 25.8047 28.4048 25.5755 28.0662 25.2578C27.7329 24.9349 27.4777 24.5156 27.3006 24C27.1287 23.4792 27.0428 22.8411 27.0428 22.0859ZM32.3084 21.3516V21.0859C32.3084 20.7578 32.2668 20.4688 32.1834 20.2188C32.1053 19.9635 31.9959 19.75 31.8553 19.5781C31.7147 19.4062 31.548 19.276 31.3553 19.1875C31.1626 19.099 30.9543 19.0547 30.7303 19.0547C30.4022 19.0547 30.1131 19.099 29.8631 19.1875C29.6131 19.2708 29.4022 19.4062 29.2303 19.5938C29.0636 19.776 28.9386 20.013 28.8553 20.3047C28.772 20.5964 28.7303 20.9453 28.7303 21.3516H32.3084ZM36.2863 14.7578H37.9034V24.6875L38.3644 25.0156V26H37.9191L37.9034 25.9844V26C37.3878 26 36.9894 25.8958 36.7081 25.6875C36.4269 25.4792 36.2863 25.1354 36.2863 24.6562V14.7578Z" fill="#F79F94"/>
</svg>
