<svg width="22" height="22" viewBox="0 0 22 22" fill="none" xmlns="http://www.w3.org/2000/svg">
<path d="M10.9998 11.6872C8.094 11.6872 5.729 9.32218 5.729 6.41634C5.729 3.51051 8.094 1.14551 10.9998 1.14551C13.9057 1.14551 16.2707 3.51051 16.2707 6.41634C16.2707 9.32218 13.9057 11.6872 10.9998 11.6872ZM10.9998 2.52051C8.85484 2.52051 7.104 4.27134 7.104 6.41634C7.104 8.56134 8.85484 10.3122 10.9998 10.3122C13.1448 10.3122 14.8957 8.56134 14.8957 6.41634C14.8957 4.27134 13.1448 2.52051 10.9998 2.52051Z" fill="#191C27"/>
<path d="M14.5019 20.8541C14.1536 20.8541 13.8236 20.7257 13.5853 20.4874C13.3011 20.2032 13.1728 19.7908 13.2369 19.3599L13.4111 18.1224C13.4569 17.8016 13.6494 17.4258 13.8786 17.1874L17.1236 13.9424C18.4252 12.6408 19.5711 13.3833 20.1303 13.9424C20.6069 14.4191 20.8544 14.9324 20.8544 15.4457C20.8544 15.9682 20.6161 16.4541 20.1303 16.9399L16.8852 20.1849C16.6561 20.4141 16.2711 20.6066 15.9503 20.6525L14.7127 20.8266C14.6394 20.8449 14.5753 20.8541 14.5019 20.8541ZM18.6177 14.5932C18.4527 14.5932 18.3061 14.7033 18.0952 14.9141L14.8503 18.1591C14.8228 18.1866 14.7769 18.2782 14.7769 18.3149L14.6119 19.4607L15.7578 19.2958C15.7944 19.2866 15.8861 19.2408 15.9136 19.2133L19.1586 15.9682C19.3053 15.8216 19.4794 15.6107 19.4794 15.4457C19.4794 15.3082 19.3694 15.1158 19.1586 14.9141C18.9386 14.6941 18.7736 14.5932 18.6177 14.5932Z" fill="#191C27"/>
<path d="M19.1767 17.6186C19.1125 17.6186 19.0484 17.6094 18.9934 17.5911C17.7834 17.2519 16.8209 16.2894 16.4817 15.0794C16.3809 14.7128 16.5917 14.3369 16.9584 14.2361C17.3251 14.1353 17.7009 14.3461 17.8017 14.7127C18.0125 15.4644 18.6084 16.0603 19.3601 16.2711C19.7267 16.3719 19.9376 16.7569 19.8367 17.1144C19.7542 17.4169 19.4792 17.6186 19.1767 17.6186Z" fill="#191C27"/>
<path d="M3.12598 20.8542C2.75014 20.8542 2.43848 20.5425 2.43848 20.1667C2.43848 16.2525 6.27933 13.0625 11.0002 13.0625C11.9993 13.0625 12.9893 13.2092 13.9152 13.4842C14.2818 13.5942 14.4835 13.9792 14.3735 14.3367C14.2635 14.7033 13.8785 14.905 13.521 14.795C12.7143 14.5567 11.871 14.4283 11.0002 14.4283C7.04017 14.4283 3.81348 16.995 3.81348 20.1575C3.81348 20.5425 3.50181 20.8542 3.12598 20.8542Z" fill="#191C27"/>
</svg>
