<svg width="40" height="40" viewBox="0 0 40 40" fill="none" xmlns="http://www.w3.org/2000/svg">
<path d="M30.0665 22.5836C29.3665 23.267 28.9665 24.2503 29.0665 25.3003C29.2165 27.1003 30.8665 28.417 32.6665 28.417H35.8332V30.4003C35.8332 33.8503 33.0165 36.667 29.5665 36.667H12.7165C13.2332 36.2337 13.6832 35.7003 14.0332 35.1003C14.6498 34.1003 14.9998 32.917 14.9998 31.667C14.9998 27.9837 12.0165 25.0003 8.33317 25.0003C6.7665 25.0003 5.3165 25.5503 4.1665 26.467V19.1837C4.1665 15.7337 6.98317 12.917 10.4332 12.917H29.5665C33.0165 12.917 35.8332 15.7337 35.8332 19.1837V21.5837H32.4665C31.5332 21.5837 30.6832 21.9503 30.0665 22.5836Z" stroke="#EA6352" stroke-width="2" stroke-linecap="round" stroke-linejoin="round"/>
<path opacity="0.4" d="M4.1665 20.6832V13.0666C4.1665 11.0833 5.38316 9.31652 7.23316 8.61652L20.4665 3.61652C22.5332 2.83319 24.7498 4.36657 24.7498 6.58324V12.9166" stroke="#EA6352" stroke-width="2" stroke-linecap="round" stroke-linejoin="round"/>
<path d="M37.5998 23.2829V26.7164C37.5998 27.633 36.8665 28.383 35.9331 28.4163H32.6665C30.8665 28.4163 29.2165 27.0996 29.0665 25.2996C28.9665 24.2496 29.3665 23.2663 30.0665 22.583C30.6831 21.9496 31.5331 21.583 32.4665 21.583H35.9331C36.8665 21.6163 37.5998 22.3663 37.5998 23.2829Z" stroke="#EA6352" stroke-width="2" stroke-linecap="round" stroke-linejoin="round"/>
<path opacity="0.4" d="M11.6665 20H23.3332" stroke="#EA6352" stroke-width="2" stroke-linecap="round" stroke-linejoin="round"/>
<path d="M14.9998 31.6667C14.9998 32.9167 14.6498 34.1 14.0332 35.1C13.6832 35.7 13.2332 36.2333 12.7165 36.6667C11.5498 37.7167 10.0165 38.3333 8.33317 38.3333C5.89984 38.3333 3.78317 37.0333 2.63317 35.1C2.01651 34.1 1.6665 32.9167 1.6665 31.6667C1.6665 29.5667 2.63317 27.6833 4.1665 26.4667C5.3165 25.55 6.7665 25 8.33317 25C12.0165 25 14.9998 27.9833 14.9998 31.6667Z" stroke="#EA6352" stroke-width="2" stroke-miterlimit="10" stroke-linecap="round" stroke-linejoin="round"/>
<path d="M10.8163 31.6338H5.84961" stroke="#EA6352" stroke-width="2" stroke-miterlimit="10" stroke-linecap="round" stroke-linejoin="round"/>
<path d="M8.33301 29.2002V34.1835" stroke="#EA6352" stroke-width="2" stroke-miterlimit="10" stroke-linecap="round" stroke-linejoin="round"/>
</svg>
