<svg width="20" height="20" viewBox="0 0 20 20" fill="none" xmlns="http://www.w3.org/2000/svg">
<path d="M11.4253 3.21659L18.4837 14.9999C18.6292 15.2519 18.7062 15.5377 18.707 15.8287C18.7078 16.1197 18.6324 16.4059 18.4883 16.6587C18.3442 16.9115 18.1364 17.1222 17.8856 17.2698C17.6348 17.4174 17.3497 17.4967 17.0587 17.4999H2.94202C2.65102 17.4967 2.36592 17.4174 2.11511 17.2698C1.86429 17.1222 1.65648 16.9115 1.51237 16.6587C1.36826 16.4059 1.29286 16.1197 1.29367 15.8287C1.29449 15.5377 1.37149 15.2519 1.51702 14.9999L8.57535 3.21659C8.72391 2.97168 8.93308 2.76919 9.18269 2.62866C9.43229 2.48813 9.7139 2.41431 10.0003 2.41431C10.2868 2.41431 10.5684 2.48813 10.818 2.62866C11.0676 2.76919 11.2768 2.97168 11.4253 3.21659V3.21659Z" stroke="#CE0000" stroke-width="2" stroke-linecap="round" stroke-linejoin="round"/>
<path d="M10 7.5V10.8333" stroke="#CE0000" stroke-width="2" stroke-linecap="round" stroke-linejoin="round"/>
<path d="M10 14.1667H9.99167" stroke="#CE0000" stroke-width="2" stroke-linecap="round" stroke-linejoin="round"/>
</svg>
