<svg width="120" height="120" viewBox="0 0 120 120" fill="none" xmlns="http://www.w3.org/2000/svg">
<path opacity="0.4" d="M95.3999 78.5996C92.4499 60.9496 75.4999 46.5996 57.5999 46.5996C38.1499 46.5996 21.0499 62.3496 19.3999 81.7496C18.7499 89.2496 21.1499 96.3496 26.0999 101.7C30.9999 107.05 37.8999 110 45.3999 110H68.7999C77.2499 110 84.6499 106.7 89.6999 100.75C94.7499 94.7996 96.7499 86.8996 95.3999 78.5996Z" fill="#EA6352"/>
<path d="M51.4 39.3C59.491 39.3 66.05 32.741 66.05 24.65C66.05 16.559 59.491 10 51.4 10C43.309 10 36.75 16.559 36.75 24.65C36.75 32.741 43.309 39.3 51.4 39.3Z" fill="#EA6352"/>
<path d="M84.7 45.15C91.4379 45.15 96.9 39.6879 96.9 32.95C96.9 26.2121 91.4379 20.75 84.7 20.75C77.9621 20.75 72.5 26.2121 72.5 32.95C72.5 39.6879 77.9621 45.15 84.7 45.15Z" fill="#EA6352"/>
<path d="M102.75 64.6504C108.135 64.6504 112.5 60.2852 112.5 54.9004C112.5 49.5156 108.135 45.1504 102.75 45.1504C97.3652 45.1504 93 49.5156 93 54.9004C93 60.2852 97.3652 64.6504 102.75 64.6504Z" fill="#EA6352"/>
<path d="M19.7 54.9C26.4379 54.9 31.9 49.4379 31.9 42.7C31.9 35.9621 26.4379 30.5 19.7 30.5C12.9621 30.5 7.5 35.9621 7.5 42.7C7.5 49.4379 12.9621 54.9 19.7 54.9Z" fill="#EA6352"/>
<path d="M72.2368 77.7368H60.2632V65.7632C60.2632 64.2526 59.0105 63 57.5 63C55.9895 63 54.7368 64.2526 54.7368 65.7632V77.7368H42.7632C41.2526 77.7368 40 78.9895 40 80.5C40 82.0105 41.2526 83.2632 42.7632 83.2632H54.7368V95.2368C54.7368 96.7474 55.9895 98 57.5 98C59.0105 98 60.2632 96.7474 60.2632 95.2368V83.2632H72.2368C73.7474 83.2632 75 82.0105 75 80.5C75 78.9895 73.7474 77.7368 72.2368 77.7368Z" fill="#EA6352"/>
</svg>
