<svg width="22" height="22" viewBox="0 0 22 22" fill="none" xmlns="http://www.w3.org/2000/svg">
<path d="M20.1668 20.8545H1.8335C1.45766 20.8545 1.146 20.5428 1.146 20.167C1.146 19.7912 1.45766 19.4795 1.8335 19.4795H20.1668C20.5427 19.4795 20.8543 19.7912 20.8543 20.167C20.8543 20.5428 20.5427 20.8545 20.1668 20.8545Z" fill="#191C27"/>
<path d="M19.25 20.8542H2.75C2.37417 20.8542 2.0625 20.5425 2.0625 20.1667V13.75C2.0625 8.81833 6.06833 4.8125 11 4.8125C15.9317 4.8125 19.9375 8.81833 19.9375 13.75V20.1667C19.9375 20.5425 19.6258 20.8542 19.25 20.8542ZM3.4375 19.4792H18.5625V13.75C18.5625 9.57917 15.1708 6.1875 11 6.1875C6.82917 6.1875 3.4375 9.57917 3.4375 13.75V19.4792Z" fill="#191C27"/>
<path d="M11 3.43717C10.6242 3.43717 10.3125 3.12551 10.3125 2.74967V1.83301C10.3125 1.45717 10.6242 1.14551 11 1.14551C11.3758 1.14551 11.6875 1.45717 11.6875 1.83301V2.74967C11.6875 3.12551 11.3758 3.43717 11 3.43717Z" fill="#191C27"/>
<path d="M4.58332 5.27082C4.40915 5.27082 4.23499 5.20665 4.09749 5.06915L3.18082 4.15248C2.91499 3.88665 2.91499 3.44665 3.18082 3.18082C3.44665 2.91499 3.88665 2.91499 4.15248 3.18082L5.06915 4.09749C5.33498 4.36332 5.33498 4.80332 5.06915 5.06915C4.93165 5.20665 4.75749 5.27082 4.58332 5.27082Z" fill="#191C27"/>
<path d="M17.4167 5.27082C17.2425 5.27082 17.0683 5.20665 16.9308 5.06915C16.665 4.80332 16.665 4.36332 16.9308 4.09749L17.8475 3.18082C18.1133 2.91499 18.5533 2.91499 18.8192 3.18082C19.085 3.44665 19.085 3.88665 18.8192 4.15248L17.9025 5.06915C17.765 5.20665 17.5908 5.27082 17.4167 5.27082Z" fill="#191C27"/>
</svg>
