<svg width="120" height="120" viewBox="0 0 120 120" fill="none" xmlns="http://www.w3.org/2000/svg">
<path opacity="0.4" d="M96.2 27.8998H94.2L77.3 10.9998C75.95 9.6498 73.75 9.6498 72.35 10.9998C71 12.3498 71 14.5498 72.35 15.9498L84.3 27.8998H35.7L47.65 15.9498C49 14.5998 49 12.3998 47.65 10.9998C46.3 9.6498 44.1 9.6498 42.7 10.9998L25.85 27.8998H23.85C19.35 27.8998 10 27.8998 10 40.6998C10 45.5498 11 48.7498 13.1 50.8498C14.3 52.0998 15.75 52.7498 17.3 53.0998C18.75 53.4498 20.3 53.4998 21.8 53.4998H98.2C99.75 53.4998 101.2 53.3998 102.6 53.0998C106.8 52.0998 110 49.0998 110 40.6998C110 27.8998 100.65 27.8998 96.2 27.8998Z" fill="#4DA4F4"/>
<path d="M98.2498 53.4998H21.7998C20.3498 53.4998 18.7498 53.4498 17.2998 53.0498L23.5998 91.4998C24.9998 100.1 28.7498 110 45.3998 110H73.4498C90.2998 110 93.2998 101.55 95.0998 92.0998L102.65 53.0498C101.25 53.3998 99.7498 53.4998 98.2498 53.4998ZM59.9998 92.4998C48.2998 92.4998 38.7498 82.9498 38.7498 71.2498C38.7498 69.1998 40.4498 67.4998 42.4998 67.4998C44.5498 67.4998 46.2498 69.1998 46.2498 71.2498C46.2498 78.8498 52.3998 84.9998 59.9998 84.9998C67.5998 84.9998 73.7498 78.8498 73.7498 71.2498C73.7498 69.1998 75.4498 67.4998 77.4998 67.4998C79.5498 67.4998 81.2498 69.1998 81.2498 71.2498C81.2498 82.9498 71.6998 92.4998 59.9998 92.4998Z" fill="#4DA4F4"/>
</svg>
