<svg width="24" height="24" viewBox="0 0 24 24" fill="none" xmlns="http://www.w3.org/2000/svg">
<path d="M19.0002 22.7522C17.6002 22.7522 16.2902 22.1422 15.3902 21.0722C15.3802 21.0522 15.3202 21.0022 15.2702 20.9222C15.1602 20.8122 15.0302 20.6122 14.9202 20.4222C14.4802 19.7122 14.2402 18.8722 14.2402 17.9922C14.2402 16.5322 14.8902 15.1822 16.0202 14.2822C16.8602 13.6122 17.9202 13.2422 18.9902 13.2422C20.1502 13.2422 21.2202 13.6422 22.0802 14.3922C22.2002 14.4722 22.3402 14.6222 22.4702 14.7622C23.2802 15.6522 23.7302 16.7922 23.7302 17.9822C23.7302 18.8522 23.4902 19.7022 23.0402 20.4322C22.8002 20.8522 22.4702 21.2322 22.0902 21.5522C21.2802 22.3322 20.1702 22.7522 19.0002 22.7522ZM19.0002 14.7522C18.2602 14.7522 17.5602 15.0022 16.9702 15.4722C16.2002 16.0822 15.7502 17.0122 15.7502 18.0022C15.7502 18.5922 15.9102 19.1722 16.2202 19.6722C16.3002 19.8122 16.3802 19.9222 16.4702 20.0322C16.4902 20.0522 16.5502 20.1122 16.6002 20.1922C17.1502 20.8422 18.0502 21.2622 19.0002 21.2622C19.7902 21.2622 20.5502 20.9722 21.1302 20.4522C21.3902 20.2322 21.6102 19.9722 21.7702 19.6922C22.0902 19.1822 22.2502 18.6022 22.2502 18.0122C22.2502 17.2022 21.9402 16.4122 21.3802 15.8022C21.3102 15.7222 21.2302 15.6422 21.1502 15.5822C20.5202 15.0222 19.7902 14.7522 19.0002 14.7522Z" fill="white"/>
<path d="M20.49 18.7266H17.5C17.09 18.7266 16.75 18.3866 16.75 17.9766C16.75 17.5666 17.09 17.2266 17.5 17.2266H20.49C20.9 17.2266 21.24 17.5666 21.24 17.9766C21.24 18.3866 20.91 18.7266 20.49 18.7266Z" fill="white"/>
<path d="M19 20.2634C18.59 20.2634 18.25 19.9234 18.25 19.5134V16.5234C18.25 16.1134 18.59 15.7734 19 15.7734C19.41 15.7734 19.75 16.1134 19.75 16.5234V19.5134C19.75 19.9334 19.41 20.2634 19 20.2634Z" fill="white"/>
<path d="M11.9998 13.3008C11.8698 13.3008 11.7398 13.2709 11.6198 13.2009L2.78983 8.09088C2.42983 7.88088 2.30984 7.42085 2.51984 7.06085C2.72984 6.70085 3.18983 6.58083 3.53983 6.79083L11.9898 11.6808L20.3898 6.82086C20.7498 6.61086 21.2098 6.74088 21.4098 7.09088C21.6198 7.45088 21.4898 7.91085 21.1398 8.12085L12.3698 13.2009C12.2598 13.2609 12.1298 13.3008 11.9998 13.3008Z" fill="white"/>
<path d="M12 22.3591C11.59 22.3591 11.25 22.0191 11.25 21.6091V12.5391C11.25 12.1291 11.59 11.7891 12 11.7891C12.41 11.7891 12.75 12.1291 12.75 12.5391V21.6091C12.75 22.0191 12.41 22.3591 12 22.3591Z" fill="white"/>
<path d="M11.9999 22.7519C11.1199 22.7519 10.2399 22.5619 9.55988 22.1719L4.21988 19.2119C2.76988 18.4119 1.62988 16.4819 1.62988 14.8219V9.16185C1.62988 7.50185 2.76988 5.5819 4.21988 4.7719L9.55988 1.81187C10.9199 1.04188 13.0599 1.04188 14.4299 1.81187L19.7699 4.7719C21.2199 5.5719 22.3599 7.50185 22.3599 9.16185V14.8219C22.3599 14.9219 22.3599 15.0019 22.3399 15.1019C22.2899 15.3619 22.0999 15.5819 21.8499 15.6619C21.5999 15.7519 21.3199 15.6919 21.1099 15.5219C19.9599 14.5219 18.1799 14.4819 16.9699 15.4519C16.1999 16.0619 15.7499 16.9919 15.7499 17.9819C15.7499 18.5719 15.9099 19.1519 16.2199 19.6519C16.2999 19.7919 16.3799 19.9019 16.4699 20.0119C16.6199 20.1819 16.6799 20.4119 16.6399 20.6319C16.5999 20.8519 16.4599 21.0419 16.2599 21.1519L14.4299 22.1618C13.7499 22.5618 12.8799 22.7519 11.9999 22.7519ZM11.9999 2.75188C11.3799 2.75188 10.7499 2.88188 10.2999 3.13188L4.95988 6.0919C3.98988 6.6219 3.14987 8.06185 3.14987 9.16185V14.8219C3.14987 15.9219 3.99988 17.3619 4.95988 17.8919L10.2999 20.8519C11.2099 21.3619 12.7999 21.3619 13.7099 20.8519L14.8299 20.2319C14.4599 19.5619 14.2599 18.7819 14.2599 17.9819C14.2599 16.5219 14.9099 15.1719 16.0399 14.2719C17.3999 13.1819 19.3499 12.9519 20.8699 13.6019V9.14189C20.8699 8.04189 20.0199 6.60188 19.0599 6.07188L13.7199 3.11186C13.2499 2.88186 12.6199 2.75188 11.9999 2.75188Z" fill="white"/>
</svg>
