<svg width="18" height="18" viewBox="0 0 18 18" fill="none" xmlns="http://www.w3.org/2000/svg">
<path opacity="0.4" d="M15.0748 5.20499C15.0748 5.60999 14.8573 5.97746 14.5123 6.16496L13.2073 6.86997L12.0973 7.46249L9.79481 8.70747C9.54731 8.84247 9.27731 8.90999 8.99981 8.90999C8.72231 8.90999 8.45231 8.84247 8.20481 8.70747L3.4873 6.16496C3.1423 5.97746 2.9248 5.60999 2.9248 5.20499C2.9248 4.79999 3.1423 4.43247 3.4873 4.24497L4.96481 3.44997L6.14231 2.81249L8.20481 1.7025C8.69981 1.4325 9.29981 1.4325 9.79481 1.7025L14.5123 4.24497C14.8573 4.43247 15.0748 4.79999 15.0748 5.20499Z" fill="#3BA6F0"/>
<path opacity="0.4" d="M7.42503 9.59522L3.03753 7.39772C2.70003 7.22522 2.31003 7.24772 1.98753 7.44272C1.66503 7.63772 1.47754 7.98275 1.47754 8.35775V12.5052C1.47754 13.2252 1.87503 13.8702 2.52003 14.1927L6.90753 16.3828C7.05753 16.4578 7.22254 16.4952 7.38754 16.4952C7.58254 16.4952 7.77754 16.4427 7.95004 16.3302C8.27254 16.1353 8.46004 15.7902 8.46004 15.4152V11.2677C8.46754 10.5627 8.07003 9.91772 7.42503 9.59522Z" fill="#3BA6F0"/>
<path opacity="0.4" d="M16.5227 8.3603V12.5078C16.5227 13.2203 16.1252 13.8653 15.4802 14.1878L11.0927 16.3853C10.9427 16.4603 10.7777 16.4978 10.6127 16.4978C10.4177 16.4978 10.2227 16.4453 10.0427 16.3328C9.72773 16.1378 9.53271 15.7928 9.53271 15.4178V11.2778C9.53271 10.5578 9.93023 9.91276 10.5752 9.59026L12.1877 8.78776L13.3127 8.22526L14.9627 7.40028C15.3002 7.22778 15.6902 7.24277 16.0127 7.44527C16.3277 7.64027 16.5227 7.9853 16.5227 8.3603Z" fill="#3BA6F0"/>
<path d="M13.2073 6.86998L12.0974 7.46251L4.96484 3.44998L6.14235 2.8125L13.0273 6.69749C13.1023 6.74249 13.1623 6.80248 13.2073 6.86998Z" fill="#3BA6F0"/>
<path d="M13.3125 8.22656V9.92908C13.3125 10.2366 13.0575 10.4916 12.75 10.4916C12.4425 10.4916 12.1875 10.2366 12.1875 9.92908V8.78906L13.3125 8.22656Z" fill="#3BA6F0"/>
</svg>
