<svg width="20" height="20" viewBox="0 0 20 20" fill="none" xmlns="http://www.w3.org/2000/svg">
<path d="M6.6665 1.66406V4.16406" stroke="#EA6352" stroke-miterlimit="10" stroke-linecap="round" stroke-linejoin="round"/>
<path d="M13.3335 1.66406V4.16406" stroke="#EA6352" stroke-miterlimit="10" stroke-linecap="round" stroke-linejoin="round"/>
<path d="M15.1667 17.8333C16.6394 17.8333 17.8333 16.6394 17.8333 15.1667C17.8333 13.6939 16.6394 12.5 15.1667 12.5C13.6939 12.5 12.5 13.6939 12.5 15.1667C12.5 16.6394 13.6939 17.8333 15.1667 17.8333Z" stroke="#EA6352" stroke-linecap="round" stroke-linejoin="round"/>
<path d="M18.3333 18.3333L17.5 17.5" stroke="#EA6352" stroke-linecap="round" stroke-linejoin="round"/>
<path d="M2.9165 7.57812H17.0832" stroke="#EA6352" stroke-miterlimit="10" stroke-linecap="round" stroke-linejoin="round"/>
<path d="M11.1417 18.3307H6.66667C3.75 18.3307 2.5 16.6641 2.5 14.1641V7.08073C2.5 4.58073 3.75 2.91406 6.66667 2.91406H13.3333C16.25 2.91406 17.5 4.58073 17.5 7.08073V10.8307" stroke="#EA6352" stroke-miterlimit="10" stroke-linecap="round" stroke-linejoin="round"/>
<path d="M9.99607 11.4167H10.0036" stroke="#EA6352" stroke-width="1.5" stroke-linecap="round" stroke-linejoin="round"/>
<path d="M6.91209 11.4167H6.91957" stroke="#EA6352" stroke-width="1.5" stroke-linecap="round" stroke-linejoin="round"/>
<path d="M6.91209 13.9167H6.91957" stroke="#EA6352" stroke-width="1.5" stroke-linecap="round" stroke-linejoin="round"/>
</svg>
