<svg width="428" height="474" viewBox="0 0 428 474" fill="none" xmlns="http://www.w3.org/2000/svg">
<g opacity="0.4">
<path d="M2 485C38.5 364.5 210.5 372.5 273 351.5C335.5 330.5 344.962 272.653 380.5 246C420.5 216 473 211 473 211" stroke="#EA6352" stroke-opacity="0.5" stroke-width="2"/>
<path d="M-12 470.5C24.5 350 196.5 358 259 337C321.5 316 330.962 258.153 366.5 231.5C406.5 201.5 459 196.5 459 196.5" stroke="#EA6352" stroke-opacity="0.5" stroke-width="2"/>
<path d="M-58 433.5C-18.9412 304.621 189.729 335.637 256.61 313.177C323.492 290.717 315.051 200.531 379 156.5C406.979 137.235 456.5 117 456.5 117" stroke="#EA6352" stroke-opacity="0.5" stroke-width="2"/>
<path d="M-117 330.527C-75.7588 194.538 144.571 227.266 215.19 203.566C285.808 179.867 317.993 83.9401 353 48C390.5 9.5 438.5 1 438.5 1" stroke="#EA6352" stroke-opacity="0.5" stroke-width="2"/>
</g>
</svg>
