<svg width="18" height="18" viewBox="0 0 18 18" fill="none" xmlns="http://www.w3.org/2000/svg">
<path d="M8.20505 16.9867C7.84505 16.9867 7.49255 16.8967 7.16255 16.7167C6.50255 16.3492 6.10505 15.6817 6.10505 14.9317V10.9567C6.10505 10.5817 5.85755 10.0192 5.62505 9.73422L2.82005 6.76422C2.34755 6.29172 1.98755 5.48172 1.98755 4.87422V3.14922C1.98755 1.94922 2.89505 1.01172 4.05005 1.01172H13.95C15.09 1.01172 16.0125 1.93422 16.0125 3.07422V4.72422C16.0125 5.51172 15.54 6.40422 15.0975 6.84672L11.85 9.71922C11.535 9.98172 11.2875 10.5592 11.2875 11.0242V14.2492C11.2875 14.9167 10.8675 15.6892 10.3425 16.0042L9.30755 16.6717C8.97005 16.8817 8.58755 16.9867 8.20505 16.9867ZM4.05005 2.13672C3.52505 2.13672 3.11255 2.57922 3.11255 3.14922V4.87422C3.11255 5.15172 3.33755 5.69172 3.62255 5.97672L6.48005 8.98422C6.86255 9.45672 7.23755 10.2442 7.23755 10.9492V14.9242C7.23755 15.4117 7.57505 15.6517 7.71755 15.7267C8.03255 15.8992 8.41505 15.8992 8.70755 15.7192L9.75005 15.0517C9.96005 14.9242 10.17 14.5192 10.17 14.2492V11.0242C10.17 10.2217 10.56 9.33672 11.1225 8.86422L14.3326 6.02172C14.5875 5.76672 14.8951 5.15922 14.8951 4.71672V3.07422C14.8951 2.55672 14.475 2.13672 13.9576 2.13672H4.05005Z" fill="#EA6352"/>
<path d="M4.5 8.06441C4.395 8.06441 4.2975 8.03441 4.2 7.98191C3.9375 7.81691 3.855 7.46441 4.02 7.20191L7.7175 1.27691C7.8825 1.01441 8.2275 0.931907 8.49 1.09691C8.7525 1.26191 8.835 1.60691 8.67 1.86941L4.9725 7.79441C4.8675 7.96691 4.6875 8.06441 4.5 8.06441Z" fill="#EA6352"/>
</svg>
