<svg width="52" height="53" viewBox="0 0 52 53" fill="none" xmlns="http://www.w3.org/2000/svg">
<g clip-path="url(#clip0_140_5350)">
<path d="M21.4321 39.726C23.0917 38.1789 23.3473 35.7556 22.0029 34.3135C20.6585 32.8713 18.2233 32.9563 16.5636 34.5034C14.904 36.0505 14.6484 38.4738 15.9928 39.916C17.3372 41.3582 19.7724 41.2731 21.4321 39.726Z" fill="url(#paint0_linear_140_5350)"/>
<path d="M43.3921 39.7299C45.0517 38.1828 45.3073 35.7595 43.9629 34.3174C42.6185 32.8752 40.1832 32.9602 38.5236 34.5073C36.864 36.0544 36.6084 38.4777 37.9528 39.9199C39.2972 41.3621 41.7324 41.277 43.3921 39.7299Z" fill="url(#paint1_linear_140_5350)"/>
<path d="M4.01768 20.7928C4.01768 19.835 3.24126 19.0586 2.2835 19.0586C1.32574 19.0586 0.549316 19.835 0.549316 20.7928C0.549316 21.7505 1.32574 22.527 2.2835 22.527C3.24126 22.527 4.01768 21.7505 4.01768 20.7928Z" fill="url(#paint2_linear_140_5350)"/>
<path d="M35.1893 36.7526C35.8058 33.7058 38.6841 31.2845 41.7777 31.2845C44.7565 31.2845 46.9035 33.5301 46.8446 36.4175C50.0662 36.5018 50.963 32.2595 50.963 32.2595C51.2342 31.0733 51.6394 28.7607 51.9786 26.4908C52.0898 25.79 52.0044 25.072 51.7318 24.4169C50.8897 22.451 49.872 20.5652 48.691 18.7822C47.5739 17.1155 45.7 16.1284 43.5611 16.0928C42.2855 16.0725 41.0332 16.0603 40.0877 16.0603L40.0796 16.0522C39.9577 14.0128 38.4708 12.4508 36.3837 12.2639C35.0258 12.143 29.6471 12.0547 27.0653 12.0547C26.0396 12.0547 24.5679 12.0689 23.079 12.0933V12.0872H23.0668H5.16543C4.93759 12.0871 4.71196 12.1318 4.50143 12.219C4.29091 12.3061 4.09963 12.4339 3.93852 12.595C3.77742 12.7561 3.64964 12.9474 3.56252 13.1579C3.47539 13.3684 3.43061 13.594 3.43074 13.8219V13.83C3.43074 14.2879 3.61265 14.7271 3.93644 15.0509C4.26023 15.3747 4.69939 15.5566 5.1573 15.5566H8.76582C9.20033 15.5886 9.60667 15.7837 9.90333 16.1028C10.2 16.4219 10.3651 16.8413 10.3654 17.277V17.2862C10.3661 17.5142 10.3218 17.7402 10.235 17.9511C10.1483 18.162 10.0208 18.3538 9.85987 18.5153C9.69893 18.6769 9.50772 18.8052 9.29716 18.8928C9.0866 18.9804 8.86083 19.0257 8.63277 19.0259H6.7823C6.3225 19.0259 5.88154 19.2086 5.55641 19.5337C5.23129 19.8588 5.04863 20.2998 5.04863 20.7596C5.0485 20.9874 5.09324 21.2129 5.18031 21.4234C5.26737 21.6338 5.39505 21.8251 5.55605 21.9862C5.71705 22.1472 5.90822 22.275 6.11862 22.3622C6.32903 22.4494 6.55455 22.4943 6.7823 22.4943H8.63277C9.09284 22.4943 9.53406 22.6771 9.85938 23.0024C10.1847 23.3277 10.3675 23.7689 10.3675 24.229C10.3675 24.689 10.1847 25.1303 9.85938 25.4556C9.53406 25.7809 9.09284 25.9637 8.63277 25.9637H1.71027C1.25038 25.9637 0.809311 26.1463 0.484023 26.4714C0.158735 26.7965 -0.0241448 27.2374 -0.0244141 27.6973C-0.0244141 28.1574 0.158347 28.5986 0.483664 28.9239C0.808981 29.2493 1.25021 29.432 1.71027 29.432H8.63277C9.09284 29.432 9.53406 29.6148 9.85938 29.9401C10.1847 30.2654 10.3675 30.7066 10.3675 31.1667C10.3669 31.6264 10.1839 32.0671 9.85866 32.392C9.5334 32.7169 9.09249 32.8994 8.63277 32.8994H6.49183C6.03204 32.8994 5.59107 33.082 5.26594 33.4071C4.94082 33.7323 4.75816 34.1732 4.75816 34.633C4.75816 35.0929 4.94078 35.534 5.26588 35.8593C5.59098 36.1846 6.03194 36.3675 6.49183 36.3677L13.3229 36.3626L13.8907 34.9479C15.0536 32.8029 17.3671 31.2835 19.8168 31.2835C22.9114 31.2835 25.1093 33.7068 24.8675 36.7557H35.1883L35.1893 36.7526ZM17.9836 19.8334H15.6558C15.6536 19.8335 15.6515 19.8344 15.6499 19.8359C15.6482 19.8374 15.6471 19.8393 15.6467 19.8415L15.4324 21.3649C15.4321 21.3661 15.432 21.3674 15.4323 21.3687C15.4326 21.3699 15.4331 21.371 15.4339 21.372C15.4347 21.373 15.4357 21.3738 15.4368 21.3743C15.438 21.3749 15.4392 21.3751 15.4405 21.3751H17.1732C17.2582 21.3727 17.3427 21.3893 17.4205 21.4236C17.4984 21.458 17.5675 21.5094 17.623 21.5739C17.6785 21.6384 17.7188 21.7145 17.7412 21.7966C17.7635 21.8787 17.7672 21.9647 17.7521 22.0484C17.7224 22.2325 17.6295 22.4004 17.4893 22.5233C17.3492 22.6462 17.1706 22.7164 16.9843 22.7218H15.2496C15.2475 22.7217 15.2454 22.7224 15.2437 22.7237C15.2421 22.725 15.2409 22.7268 15.2404 22.7289L14.9296 24.9419C14.9 25.126 14.807 25.2939 14.6669 25.4168C14.5268 25.5397 14.3482 25.6099 14.1618 25.6153C14.0768 25.6178 13.9923 25.6012 13.9145 25.5668C13.8368 25.5324 13.7676 25.481 13.7122 25.4165C13.6569 25.352 13.6166 25.2758 13.5944 25.1937C13.5722 25.1116 13.5686 25.0256 13.5839 24.9419L14.3903 19.2016C14.4223 19.0073 14.5208 18.8301 14.6691 18.7004C14.8173 18.5707 15.006 18.4966 15.2028 18.4907H18.1715C18.2565 18.4883 18.341 18.5048 18.4188 18.5392C18.4966 18.5736 18.5657 18.625 18.6211 18.6895C18.6765 18.7541 18.7168 18.8302 18.739 18.9123C18.7612 18.9944 18.7647 19.0804 18.7494 19.1641C18.7193 19.3472 18.6264 19.5141 18.4867 19.6362C18.347 19.7583 18.1691 19.828 17.9836 19.8334ZM24.2053 18.9477C24.4472 19.1623 24.6173 19.4459 24.6928 19.7602C24.7773 20.1163 24.7911 20.4855 24.7335 20.847C24.6629 21.4093 24.4327 21.9397 24.0703 22.3755C23.8489 22.6372 23.5678 22.8417 23.2507 22.9716C23.2492 22.9731 23.2484 22.9751 23.2484 22.9772C23.2484 22.9793 23.2492 22.9813 23.2507 22.9828L23.8275 24.6474C23.9829 25.0943 23.5838 25.6153 23.0871 25.6153H23.0546C22.9342 25.6188 22.8157 25.5839 22.7163 25.5157C22.617 25.4474 22.542 25.3492 22.5021 25.2355L21.8044 23.2042C21.8034 23.2027 21.8021 23.2014 21.8005 23.2005C21.7989 23.1997 21.7971 23.1992 21.7953 23.1991H20.3125C20.3104 23.1993 20.3084 23.2 20.3068 23.2013C20.3051 23.2025 20.3039 23.2043 20.3033 23.2062L20.0596 24.9409C20.0299 25.125 19.937 25.2929 19.7968 25.4158C19.6567 25.5387 19.4781 25.6089 19.2918 25.6143C19.2067 25.6167 19.1222 25.6002 19.0445 25.5658C18.9667 25.5314 18.8976 25.48 18.8422 25.4155C18.7868 25.3509 18.7465 25.2748 18.7243 25.1927C18.7021 25.1106 18.6985 25.0246 18.7139 24.9409L19.5203 19.2006C19.5522 19.0063 19.6507 18.8291 19.799 18.6994C19.9472 18.5697 20.1359 18.4956 20.3328 18.4897H22.6281C22.6281 18.4897 23.6356 18.4582 24.2053 18.9477ZM30.5225 19.1163C30.4949 19.2882 30.4082 19.4451 30.2773 19.5599C30.1464 19.6746 29.9795 19.7401 29.8055 19.745H27.1354C27.1334 19.7451 27.1314 19.7459 27.1297 19.7471C27.1281 19.7484 27.1269 19.7501 27.1263 19.7521L26.914 21.2593C26.9137 21.2605 26.9137 21.2618 26.9139 21.263C26.9142 21.2643 26.9147 21.2654 26.9155 21.2664C26.9163 21.2674 26.9173 21.2682 26.9185 21.2687C26.9196 21.2692 26.9209 21.2695 26.9221 21.2695H28.996C29.0755 21.2671 29.1544 21.2825 29.2271 21.3146C29.2998 21.3467 29.3644 21.3946 29.4162 21.4549C29.468 21.5151 29.5057 21.5862 29.5264 21.6629C29.5472 21.7396 29.5506 21.82 29.5364 21.8981C29.5088 22.07 29.422 22.2269 29.2911 22.3416C29.1602 22.4564 28.9934 22.5219 28.8193 22.5268H26.7444C26.7423 22.5269 26.7404 22.5276 26.7387 22.5289C26.7371 22.5302 26.7359 22.5319 26.7353 22.5339L26.4803 24.3478C26.4803 24.3503 26.4813 24.3528 26.483 24.3547C26.4846 24.3565 26.487 24.3577 26.4895 24.358H29.1575C29.237 24.3556 29.3159 24.371 29.3886 24.4031C29.4613 24.4352 29.5259 24.4831 29.5777 24.5434C29.6295 24.6037 29.6671 24.6747 29.6879 24.7514C29.7087 24.8281 29.7121 24.9085 29.6978 24.9866C29.6702 25.1585 29.5835 25.3154 29.4526 25.4302C29.3217 25.5449 29.1548 25.6104 28.9808 25.6153H25.6699C25.5805 25.6166 25.492 25.5982 25.4106 25.5614C25.3292 25.5246 25.2568 25.4704 25.1987 25.4026C25.1405 25.3347 25.098 25.2549 25.0741 25.1688C25.0503 25.0828 25.0456 24.9925 25.0605 24.9044L25.8618 19.2047C25.8938 19.0103 25.9923 18.8331 26.1405 18.7034C26.2888 18.5738 26.4775 18.4996 26.6743 18.4937H29.9843C30.0629 18.4919 30.141 18.5074 30.2129 18.5393C30.2848 18.5712 30.3488 18.6186 30.4002 18.6781C30.4517 18.7376 30.4893 18.8077 30.5105 18.8835C30.5316 18.9593 30.5357 19.0388 30.5225 19.1163ZM36.0689 19.1163C36.0413 19.2882 35.9545 19.4451 35.8236 19.5599C35.6927 19.6746 35.5258 19.7401 35.3518 19.745H32.6818C32.6797 19.7451 32.6777 19.7459 32.6761 19.7471C32.6744 19.7484 32.6732 19.7501 32.6726 19.7521L32.4614 21.2593C32.461 21.2605 32.461 21.2618 32.4613 21.263C32.4615 21.2643 32.4621 21.2654 32.4629 21.2664C32.4637 21.2674 32.4647 21.2682 32.4658 21.2687C32.467 21.2692 32.4682 21.2695 32.4695 21.2695H34.5434C34.6228 21.2671 34.7018 21.2825 34.7744 21.3146C34.8471 21.3467 34.9117 21.3946 34.9635 21.4549C35.0153 21.5151 35.053 21.5862 35.0738 21.6629C35.0946 21.7396 35.098 21.82 35.0837 21.8981C35.0561 22.07 34.9694 22.2269 34.8385 22.3416C34.7076 22.4564 34.5407 22.5219 34.3667 22.5268H32.2907C32.2887 22.5269 32.2867 22.5276 32.285 22.5289C32.2834 22.5302 32.2822 22.5319 32.2816 22.5339L32.0267 24.3478C32.0267 24.3503 32.0276 24.3528 32.0293 24.3547C32.031 24.3565 32.0333 24.3577 32.0358 24.358H34.7039C34.7833 24.3556 34.8622 24.371 34.9349 24.4031C35.0076 24.4352 35.0722 24.4831 35.124 24.5434C35.1758 24.6037 35.2135 24.6747 35.2343 24.7514C35.255 24.8281 35.2584 24.9085 35.2442 24.9866C35.2166 25.1585 35.1298 25.3154 34.9989 25.4302C34.868 25.5449 34.7012 25.6104 34.5271 25.6153H31.2162C31.1269 25.6166 31.0384 25.5982 30.9569 25.5614C30.8755 25.5246 30.8031 25.4704 30.745 25.4026C30.6869 25.3347 30.6443 25.2549 30.6205 25.1688C30.5966 25.0828 30.5919 24.9925 30.6068 24.9044L31.4082 19.2047C31.4401 19.0103 31.5386 18.8331 31.6869 18.7034C31.8351 18.5738 32.0238 18.4996 32.2207 18.4937H35.5306C35.6092 18.4919 35.6873 18.5074 35.7592 18.5393C35.8311 18.5712 35.8951 18.6186 35.9466 18.6781C35.998 18.7376 36.0357 18.8077 36.0568 18.8835C36.0779 18.9593 36.0821 19.0388 36.0689 19.1163ZM39.9282 18.4653C40.8352 18.4653 42.0092 18.4775 43.1874 18.4968C44.6153 18.5202 45.8646 19.1762 46.6141 20.2955C47.4147 21.5024 48.1343 22.7612 48.7682 24.0634C49.1034 24.7459 48.4869 25.6346 47.6795 25.6346H39.0213L39.9282 18.4653Z" fill="url(#paint3_linear_140_5350)"/>
<path d="M22.0847 21.941H20.48L20.7847 19.7432H22.3883C22.3883 19.7432 23.5654 19.667 23.3725 20.8421C23.3776 20.8421 23.2425 21.941 22.0847 21.941Z" fill="url(#paint4_linear_140_5350)"/>
</g>
<defs>
<linearGradient id="paint0_linear_140_5350" x1="14.2106" y1="38.0041" x2="20.412" y2="32.4531" gradientUnits="userSpaceOnUse">
<stop stop-color="#FA5456"/>
<stop offset="0.0001" stop-color="#F04770"/>
<stop offset="1" stop-color="#FFA000"/>
</linearGradient>
<linearGradient id="paint1_linear_140_5350" x1="36.1706" y1="38.0081" x2="42.372" y2="32.457" gradientUnits="userSpaceOnUse">
<stop stop-color="#FA5456"/>
<stop offset="0.0001" stop-color="#F04770"/>
<stop offset="1" stop-color="#FFA000"/>
</linearGradient>
<linearGradient id="paint2_linear_140_5350" x1="0.549316" y1="19.5231" x2="4.06227" y2="19.5848" gradientUnits="userSpaceOnUse">
<stop stop-color="#FA5456"/>
<stop offset="0.0001" stop-color="#F04770"/>
<stop offset="1" stop-color="#FFA000"/>
</linearGradient>
<linearGradient id="paint3_linear_140_5350" x1="-0.0244142" y1="15.3629" x2="52.6393" y2="17.3113" gradientUnits="userSpaceOnUse">
<stop stop-color="#FA5456"/>
<stop offset="0.0001" stop-color="#F04770"/>
<stop offset="1" stop-color="#FFA000"/>
</linearGradient>
<linearGradient id="paint4_linear_140_5350" x1="20.48" y1="20.0367" x2="23.4306" y2="20.1053" gradientUnits="userSpaceOnUse">
<stop stop-color="#FA5456"/>
<stop offset="0.0001" stop-color="#F04770"/>
<stop offset="1" stop-color="#FFA000"/>
</linearGradient>
<clipPath id="clip0_140_5350">
<rect width="52" height="52" fill="white" transform="translate(0 0.5)"/>
</clipPath>
</defs>
</svg>
