<svg width="24" height="24" viewBox="0 0 24 24" fill="none" xmlns="http://www.w3.org/2000/svg">
<path d="M12 18.75C11.59 18.75 11.25 18.41 11.25 18V15C11.25 14.59 11.59 14.25 12 14.25C12.41 14.25 12.75 14.59 12.75 15V18C12.75 18.41 12.41 18.75 12 18.75Z" fill="#DEDFE1"/>
<path d="M17.6 22.5569H6.39996C4.57996 22.5569 2.91996 21.1569 2.61996 19.3669L1.28996 11.3969C1.06996 10.1569 1.67996 8.56689 2.66996 7.77689L9.59996 2.22689C10.94 1.14689 13.05 1.15689 14.4 2.23689L21.33 7.77689C22.31 8.56689 22.91 10.1569 22.71 11.3969L21.38 19.3569C21.08 21.1269 19.38 22.5569 17.6 22.5569ZM11.99 2.92689C11.46 2.92689 10.93 3.08689 10.54 3.39689L3.60996 8.95689C3.04996 9.40689 2.64996 10.4469 2.76996 11.1569L4.09996 19.1169C4.27996 20.1669 5.32996 21.0569 6.39996 21.0569H17.6C18.67 21.0569 19.72 20.1669 19.9 19.1069L21.23 11.1469C21.34 10.4469 20.94 9.38689 20.39 8.94689L13.46 3.40689C13.06 3.08689 12.52 2.92689 11.99 2.92689Z" fill="#DEDFE1"/>
</svg>
