<svg width="120" height="120" viewBox="0 0 120 120" fill="none" xmlns="http://www.w3.org/2000/svg">
<path opacity="0.4" d="M103.1 43.5C97.9002 20.35 77.7002 10 60.0002 10C60.0002 10 60.0002 10 59.9502 10C42.3002 10 22.1502 20.35 16.9002 43.45C11.0002 69.25 26.8002 91.1 41.1002 104.9C46.4002 110 53.2002 112.55 60.0002 112.55C66.8002 112.55 73.6002 110 78.8502 104.9C93.1502 91.1 108.95 69.3 103.1 43.5Z" fill="#EA6352"/>
<path d="M73.75 51.25H63.75V41.25C63.75 39.2 62.05 37.5 60 37.5C57.95 37.5 56.25 39.2 56.25 41.25V51.25H46.25C44.2 51.25 42.5 52.95 42.5 55C42.5 57.05 44.2 58.75 46.25 58.75H56.25V68.75C56.25 70.8 57.95 72.5 60 72.5C62.05 72.5 63.75 70.8 63.75 68.75V58.75H73.75C75.8 58.75 77.5 57.05 77.5 55C77.5 52.95 75.8 51.25 73.75 51.25Z" fill="#EA6352"/>
</svg>
