<svg width="32" height="32" viewBox="0 0 32 32" fill="none" xmlns="http://www.w3.org/2000/svg">
<path d="M16.0267 27.3745C12.92 27.3745 9.81332 26.8812 6.86665 25.8945C5.74665 25.5079 4.89332 24.7212 4.51999 23.6945C4.13332 22.6679 4.26665 21.5345 4.87999 20.5212L6.41332 17.9745C6.73332 17.4412 7.02665 16.3745 7.02665 15.7479V11.8945C7.02665 6.93453 11.0667 2.89453 16.0267 2.89453C20.9867 2.89453 25.0267 6.93453 25.0267 11.8945V15.7479C25.0267 16.3612 25.32 17.4412 25.64 17.9879L27.16 20.5212C27.7333 21.4812 27.84 22.6412 27.4533 23.6945C27.0667 24.7479 26.2267 25.5479 25.1733 25.8945C22.24 26.8812 19.1333 27.3745 16.0267 27.3745ZM16.0267 4.89453C12.1733 4.89453 9.02666 8.02786 9.02666 11.8945V15.7479C9.02666 16.7212 8.62666 18.1612 8.13332 19.0012L6.59999 21.5479C6.30665 22.0412 6.22666 22.5612 6.39999 23.0012C6.55999 23.4545 6.95999 23.8012 7.50666 23.9879C13.08 25.8545 18.9867 25.8545 24.56 23.9879C25.04 23.8279 25.4133 23.4679 25.5867 22.9879C25.76 22.5079 25.72 21.9879 25.4533 21.5479L23.92 19.0012C23.4133 18.1345 23.0267 16.7079 23.0267 15.7345V11.8945C23.0267 8.02786 19.8933 4.89453 16.0267 4.89453Z" fill="#292D32"/>
<path d="M18.5067 5.25422C18.4133 5.25422 18.32 5.24089 18.2267 5.21422C17.84 5.10755 17.4667 5.02755 17.1067 4.97422C15.9733 4.82755 14.88 4.90755 13.8533 5.21422C13.48 5.33422 13.08 5.21422 12.8267 4.93422C12.5733 4.65422 12.4933 4.25422 12.64 3.89422C13.1867 2.49422 14.52 1.57422 16.04 1.57422C17.56 1.57422 18.8933 2.48089 19.44 3.89422C19.5733 4.25422 19.5067 4.65422 19.2533 4.93422C19.0533 5.14755 18.7733 5.25422 18.5067 5.25422Z" fill="#292D32"/>
<path d="M16.0269 30.4141C14.7069 30.4141 13.4269 29.8807 12.4935 28.9474C11.5602 28.0141 11.0269 26.7341 11.0269 25.4141H13.0269C13.0269 26.2007 13.3469 26.9741 13.9069 27.5341C14.4669 28.0941 15.2402 28.4141 16.0269 28.4141C17.6802 28.4141 19.0269 27.0674 19.0269 25.4141H21.0269C21.0269 28.1741 18.7869 30.4141 16.0269 30.4141Z" fill="#292D32"/>
</svg>
