<svg width="52" height="52" viewBox="0 0 52 52" fill="none" xmlns="http://www.w3.org/2000/svg">
<path opacity="0.4" d="M41.9252 12.2619L28.2969 4.91703C26.8669 4.13703 25.1335 4.13703 23.6819 4.91703L10.0536 12.2619C9.05691 12.8036 8.4502 13.8653 8.4502 15.0353C8.4502 16.2053 9.05691 17.2669 10.0536 17.8086L23.6819 25.1536C24.3969 25.5436 25.1985 25.7387 25.9785 25.7387C26.7585 25.7387 27.5602 25.5436 28.2752 25.1536L41.9035 17.8086C42.9002 17.2669 43.5068 16.2053 43.5068 15.0353C43.5502 13.8653 42.9219 12.8036 41.9252 12.2619Z" fill="url(#paint0_linear_140_6408)"/>
<path opacity="0.4" d="M21.4502 27.7121L8.77519 21.3638C7.80019 20.8655 6.67354 20.9305 5.74187 21.4938C4.81021 22.0572 4.26855 23.0539 4.26855 24.1372V36.1188C4.26855 38.1988 5.41685 40.0622 7.28019 40.9938L19.9552 47.3206C20.3885 47.5372 20.8652 47.6455 21.3419 47.6455C21.9052 47.6455 22.4686 47.4939 22.9669 47.1689C23.8986 46.6056 24.4402 45.6088 24.4402 44.5255V32.5439C24.4619 30.5072 23.3135 28.6438 21.4502 27.7121Z" fill="url(#paint1_linear_140_6408)"/>
<path opacity="0.4" d="M47.7314 24.1602V34.1051C47.7098 34.0835 47.6881 34.0402 47.6664 34.0185C47.6664 33.9969 47.6448 33.9751 47.6231 33.9535C47.5365 33.8235 47.4281 33.6935 47.3198 33.5852C47.2981 33.5635 47.2764 33.5202 47.2548 33.4985C45.4998 31.5485 42.9214 30.3352 40.0831 30.3352C37.3531 30.3352 34.8614 31.4618 33.0847 33.2818C31.3731 35.0368 30.3331 37.4418 30.3331 40.0852C30.3331 41.9052 30.8531 43.6385 31.7414 45.1118C32.1098 45.7402 32.5648 46.3035 33.0631 46.8235L32.0448 47.3434C31.6115 47.5601 31.1348 47.6685 30.6581 47.6685C30.0948 47.6685 29.5315 47.5169 29.0115 47.1919C28.1015 46.6286 27.5381 45.6318 27.5381 44.5485V32.5885C27.5381 30.5085 28.6865 28.6451 30.5498 27.7135L43.2248 21.3868C44.1998 20.8885 45.3265 20.9318 46.2581 21.5168C47.1681 22.0801 47.7314 23.0769 47.7314 24.1602Z" fill="url(#paint2_linear_140_6408)"/>
<path d="M47.6235 33.9499C45.8469 31.7616 43.1385 30.375 40.0835 30.375C37.7868 30.375 35.6635 31.1766 33.9952 32.52C31.7418 34.2966 30.3335 37.0483 30.3335 40.125C30.3335 41.945 30.8535 43.6783 31.7418 45.1517C32.3268 46.1267 33.0635 46.9716 33.9302 47.665H33.9519C35.6202 49.0516 37.7652 49.875 40.0835 49.875C42.5535 49.875 44.7851 48.965 46.4968 47.4483C47.2551 46.7983 47.9052 46.0183 48.4252 45.1517C49.3135 43.6783 49.8335 41.945 49.8335 40.125C49.8335 37.785 49.0102 35.6183 47.6235 33.9499ZM44.9802 38.9117L39.7801 43.7216C39.4768 44.0033 39.0652 44.155 38.6752 44.155C38.2635 44.155 37.8518 44.0032 37.5268 43.6782L35.1218 41.2733C34.4935 40.6449 34.4935 39.6049 35.1218 38.9766C35.7501 38.3483 36.7901 38.3483 37.4185 38.9766L38.7185 40.2767L42.7701 36.5283C43.4201 35.9216 44.4601 35.965 45.0668 36.615C45.6951 37.2867 45.6519 38.305 44.9802 38.9117Z" fill="url(#paint3_linear_140_6408)"/>
<defs>
<linearGradient id="paint0_linear_140_6408" x1="8.4502" y1="7.199" x2="43.9413" y2="8.21957" gradientUnits="userSpaceOnUse">
<stop stop-color="#FA5456"/>
<stop offset="0.0001" stop-color="#F04770"/>
<stop offset="1" stop-color="#FFA000"/>
</linearGradient>
<linearGradient id="paint1_linear_140_6408" x1="4.26855" y1="24.5923" x2="24.7025" y2="24.8642" gradientUnits="userSpaceOnUse">
<stop stop-color="#FA5456"/>
<stop offset="0.0001" stop-color="#F04770"/>
<stop offset="1" stop-color="#FFA000"/>
</linearGradient>
<linearGradient id="paint2_linear_140_6408" x1="27.5381" y1="24.6089" x2="47.9937" y2="24.8813" gradientUnits="userSpaceOnUse">
<stop stop-color="#FA5456"/>
<stop offset="0.0001" stop-color="#F04770"/>
<stop offset="1" stop-color="#FFA000"/>
</linearGradient>
<linearGradient id="paint3_linear_140_6408" x1="30.3335" y1="32.9866" x2="50.0842" y2="33.3334" gradientUnits="userSpaceOnUse">
<stop stop-color="#FA5456"/>
<stop offset="0.0001" stop-color="#F04770"/>
<stop offset="1" stop-color="#FFA000"/>
</linearGradient>
</defs>
</svg>
