<svg width="59" height="58" viewBox="0 0 59 58" fill="none" xmlns="http://www.w3.org/2000/svg">
<path d="M7.39893 27.1172V37.968C7.39893 48.8189 11.8239 53.1689 22.8618 53.1689H36.1123C47.1502 53.1689 51.5752 48.8189 51.5752 37.968V27.1172" stroke="#EA6352" stroke-width="4" stroke-linecap="round" stroke-linejoin="round"/>
<path d="M29.4998 41.0859C25.3944 41.0859 23.354 43.0918 23.354 47.1276V53.1693H35.6457V47.1276C35.6457 43.0918 33.6053 41.0859 29.4998 41.0859Z" stroke="#EA6352" stroke-width="4" stroke-linecap="round" stroke-linejoin="round"/>
<path d="M29.5 29.0026C33.9988 29.0026 37.3175 25.4018 36.875 20.9793L35.2525 4.83594H23.7721L22.125 20.9793C21.6825 25.4018 25.0013 29.0026 29.5 29.0026Z" stroke="#3A4750" stroke-width="4" stroke-linecap="round" stroke-linejoin="round"/>
<path d="M45.0122 29.0026C49.978 29.0026 53.6164 25.0393 53.1247 20.1818L52.4364 13.5359C51.5514 7.2526 49.093 4.83594 42.6522 4.83594H35.1543L36.8751 21.7768C37.293 25.7643 40.956 29.0026 45.0122 29.0026Z" stroke="#3A4750" stroke-width="4" stroke-linecap="round" stroke-linejoin="round"/>
<path d="M13.865 29.0026C17.9213 29.0026 21.5842 25.7643 21.9775 21.7768L22.5183 16.4359L23.6984 4.83594H16.2004C9.7596 4.83594 7.30127 7.2526 6.41627 13.5359L5.75252 20.1818C5.26085 25.0393 8.89918 29.0026 13.865 29.0026Z" stroke="#3A4750" stroke-width="4" stroke-linecap="round" stroke-linejoin="round"/>
</svg>
