<svg width="22" height="22" viewBox="0 0 22 22" fill="none" xmlns="http://www.w3.org/2000/svg">
<path d="M15.1159 20.8538H6.87506C5.2984 20.8538 4.1159 20.4322 3.38256 19.598C2.64923 18.7638 2.36506 17.5538 2.55756 15.9863L3.38256 9.11134C3.6209 7.08551 4.13423 5.27051 7.70923 5.27051H14.3092C17.8751 5.27051 18.3884 7.08551 18.6359 9.11134L19.4609 15.9863C19.6442 17.5538 19.3692 18.773 18.6359 19.598C17.8751 20.4322 16.7017 20.8538 15.1159 20.8538ZM7.70006 6.64551C5.06006 6.64551 4.93173 7.69049 4.73923 9.26716L3.91423 16.1422C3.77673 17.3063 3.94173 18.1588 4.40923 18.6813C4.87673 19.2038 5.70173 19.4697 6.87506 19.4697H15.1159C16.2892 19.4697 17.1142 19.2038 17.5817 18.6813C18.0492 18.1588 18.2142 17.3063 18.0767 16.1422L17.2517 9.26716C17.0592 7.68133 16.9401 6.64551 14.2909 6.64551H7.70006Z" fill="#191C27"/>
<path d="M14.6668 8.02051C14.291 8.02051 13.9793 7.70884 13.9793 7.33301V4.12467C13.9793 3.13467 13.3652 2.52051 12.3752 2.52051H9.62516C8.63516 2.52051 8.021 3.13467 8.021 4.12467V7.33301C8.021 7.70884 7.70933 8.02051 7.3335 8.02051C6.95766 8.02051 6.646 7.70884 6.646 7.33301V4.12467C6.646 2.37384 7.87433 1.14551 9.62516 1.14551H12.3752C14.126 1.14551 15.3543 2.37384 15.3543 4.12467V7.33301C15.3543 7.70884 15.0427 8.02051 14.6668 8.02051Z" fill="#191C27"/>
<path d="M18.7093 16.2988H7.3335C6.95766 16.2988 6.646 15.9872 6.646 15.6113C6.646 15.2355 6.95766 14.9238 7.3335 14.9238H18.7093C19.0852 14.9238 19.3968 15.2355 19.3968 15.6113C19.3968 15.9872 19.0852 16.2988 18.7093 16.2988Z" fill="#191C27"/>
</svg>
