<svg width="50" height="50" viewBox="0 0 50 50" fill="none" xmlns="http://www.w3.org/2000/svg">
<path d="M40.6248 16.6667C43.5013 16.6667 45.8332 14.3348 45.8332 11.4583C45.8332 8.58185 43.5013 6.25 40.6248 6.25C37.7484 6.25 35.4165 8.58185 35.4165 11.4583C35.4165 14.3348 37.7484 16.6667 40.6248 16.6667Z" fill="#EA6352"/>
<path d="M40.6248 16.6667C43.5013 16.6667 45.8332 14.3348 45.8332 11.4583C45.8332 8.58185 43.5013 6.25 40.6248 6.25C37.7484 6.25 35.4165 8.58185 35.4165 11.4583C35.4165 14.3348 37.7484 16.6667 40.6248 16.6667Z" fill="#EA6352"/>
<path opacity="0.4" d="M43.1665 19.3958C44.479 18.9792 45.8332 20 45.8332 21.3959V32.3125C45.8332 39.6042 41.6665 42.7292 35.4165 42.7292H14.5832C8.33317 42.7292 4.1665 39.6042 4.1665 32.3125V17.7292C4.1665 10.4375 8.33317 7.3125 14.5832 7.3125H30.4373C31.7915 7.3125 32.7081 8.56252 32.4581 9.87502C32.2081 11.1042 32.2498 12.4167 32.6248 13.7708C33.3957 16.5625 35.6665 18.7917 38.4582 19.5208C40.104 19.9375 41.7082 19.8542 43.1665 19.3958Z" fill="#EA6352"/>
<path d="M24.9999 26.8123C23.2499 26.8123 21.4791 26.2706 20.125 25.1665L13.6041 19.9581C12.9374 19.4165 12.8125 18.4373 13.3541 17.7706C13.8958 17.1039 14.8749 16.979 15.5416 17.5206L22.0624 22.729C23.6458 23.9998 26.3333 23.9998 27.9166 22.729L30.3749 20.7706C31.0416 20.229 32.0416 20.3331 32.5625 21.0206C33.1041 21.6873 33 22.6873 32.3125 23.2081L29.8541 25.1665C28.5207 26.2706 26.7499 26.8123 24.9999 26.8123Z" fill="#EA6352"/>
</svg>
