<svg width="22" height="22" viewBox="0 0 22 22" fill="none" xmlns="http://www.w3.org/2000/svg">
<path d="M15.5835 19.4788H6.41683C3.071 19.4788 1.146 17.5538 1.146 14.208V7.79134C1.146 4.44551 3.071 2.52051 6.41683 2.52051H15.5835C18.9293 2.52051 20.8543 4.44551 20.8543 7.79134V14.208C20.8543 17.5538 18.9293 19.4788 15.5835 19.4788ZM6.41683 3.89551C3.79516 3.89551 2.521 5.16967 2.521 7.79134V14.208C2.521 16.8297 3.79516 18.1038 6.41683 18.1038H15.5835C18.2052 18.1038 19.4793 16.8297 19.4793 14.208V7.79134C19.4793 5.16967 18.2052 3.89551 15.5835 3.89551H6.41683Z" fill="#191C27"/>
<path d="M10.9999 11.797C10.2299 11.797 9.45071 11.5587 8.85488 11.0728L5.98571 8.78115C5.69238 8.54282 5.63738 8.11198 5.87571 7.81865C6.11405 7.52532 6.54488 7.47032 6.83822 7.70865L9.70737 10.0003C10.404 10.5595 11.5865 10.5595 12.2832 10.0003L15.1524 7.70865C15.4457 7.47032 15.8857 7.51615 16.1149 7.81865C16.3532 8.11198 16.3074 8.55199 16.0049 8.78115L13.1357 11.0728C12.549 11.5587 11.7699 11.797 10.9999 11.797Z" fill="#191C27"/>
</svg>
