<svg width="28" height="28" viewBox="0 0 28 28" fill="none" xmlns="http://www.w3.org/2000/svg">
<path d="M24.5 9.04297H3.5C3.02167 9.04297 2.625 8.6463 2.625 8.16797C2.625 7.68964 3.02167 7.29297 3.5 7.29297H24.5C24.9783 7.29297 25.375 7.68964 25.375 8.16797C25.375 8.6463 24.9783 9.04297 24.5 9.04297Z" fill="#EA6352"/>
<path d="M21 14.875H7C6.52167 14.875 6.125 14.4783 6.125 14C6.125 13.5217 6.52167 13.125 7 13.125H21C21.4783 13.125 21.875 13.5217 21.875 14C21.875 14.4783 21.4783 14.875 21 14.875Z" fill="#EA6352"/>
<path d="M16.3333 20.707H11.6666C11.1883 20.707 10.7916 20.3104 10.7916 19.832C10.7916 19.3537 11.1883 18.957 11.6666 18.957H16.3333C16.8116 18.957 17.2083 19.3537 17.2083 19.832C17.2083 20.3104 16.8116 20.707 16.3333 20.707Z" fill="#EA6352"/>
</svg>
