<svg width="26" height="26" viewBox="0 0 26 26" fill="none" xmlns="http://www.w3.org/2000/svg">
<path opacity="0.4" d="M22.8473 23.291C22.8473 23.5943 22.609 23.8327 22.3057 23.8327H3.69401C3.39068 23.8327 3.15234 23.5943 3.15234 23.291C3.15234 18.806 7.57234 15.166 12.9998 15.166C14.1157 15.166 15.199 15.3177 16.1957 15.6102C15.5565 16.3685 15.1665 17.3543 15.1665 18.416C15.1665 19.2285 15.394 19.9977 15.7948 20.6477C16.0115 21.016 16.2932 21.3518 16.6182 21.6335C17.3765 22.3268 18.384 22.7493 19.4998 22.7493C20.7132 22.7493 21.8073 22.251 22.5873 21.4493C22.7607 22.0343 22.8473 22.6518 22.8473 23.291Z" fill="#EA6352"/>
<path d="M22.7173 15.5248C21.9373 14.6365 20.7782 14.084 19.4998 14.084C18.2865 14.084 17.1815 14.5823 16.3907 15.3948C15.6323 16.1748 15.1665 17.2473 15.1665 18.4173C15.1665 19.2298 15.394 19.999 15.7948 20.649C16.0115 21.0173 16.2932 21.3531 16.6182 21.6348C17.3765 22.3281 18.384 22.7507 19.4998 22.7507C21.0815 22.7507 22.4574 21.9056 23.2049 20.649C23.4324 20.2806 23.6057 19.8581 23.7032 19.4248C23.7898 19.0998 23.8332 18.764 23.8332 18.4173C23.8332 17.3123 23.4107 16.294 22.7173 15.5248ZM21.1248 19.2081H20.3123V20.0532C20.3123 20.4973 19.944 20.8657 19.4998 20.8657C19.0557 20.8657 18.6873 20.4973 18.6873 20.0532V19.2081H17.8748C17.4307 19.2081 17.0623 18.8398 17.0623 18.3956C17.0623 17.9515 17.4307 17.5831 17.8748 17.5831H18.6873V16.814C18.6873 16.3698 19.0557 16.0015 19.4998 16.0015C19.944 16.0015 20.3123 16.3698 20.3123 16.814V17.5831H21.1248C21.569 17.5831 21.9373 17.9515 21.9373 18.3956C21.9373 18.8398 21.569 19.2081 21.1248 19.2081Z" fill="#EA6352"/>
<path d="M13.0002 12.9993C15.9917 12.9993 18.4168 10.5742 18.4168 7.58268C18.4168 4.59114 15.9917 2.16602 13.0002 2.16602C10.0086 2.16602 7.5835 4.59114 7.5835 7.58268C7.5835 10.5742 10.0086 12.9993 13.0002 12.9993Z" fill="#EA6352"/>
</svg>
