<svg width="50" height="50" viewBox="0 0 50 50" fill="none" xmlns="http://www.w3.org/2000/svg">
<path opacity="0.58" d="M50 0H0V50H50V0Z" fill="white"/>
<path opacity="0.4" d="M14.4583 42.9794C17.5625 44.7919 21.1666 45.8336 25 45.8336C36.7291 45.8336 46.4791 35.4795 45.7916 23.7711C45.0833 11.6878 34.1041 2.37529 21.4583 4.45862C12.7499 5.89612 5.77079 12.9586 4.41663 21.667C3.62496 26.7086 4.66667 31.4795 6.9375 35.417L5.08331 42.3128C4.66664 43.8753 6.1041 45.292 7.64577 44.8545L14.4583 42.9794Z" fill="#EA6352"/>
<path d="M35.4168 31.6035C35.4168 31.9785 35.3335 32.3743 35.146 32.7493C34.9585 33.1243 34.7294 33.4785 34.4377 33.8118C33.9169 34.3743 33.3544 34.791 32.7294 35.041C32.1044 35.3118 31.4168 35.4368 30.6876 35.4368C29.6251 35.4368 28.4793 35.1868 27.2918 34.666C26.0834 34.1452 24.896 33.4577 23.7085 32.6035C22.5002 31.7285 21.3751 30.7493 20.2918 29.6868C19.2085 28.6035 18.2502 27.4577 17.3752 26.2702C16.5211 25.0827 15.8335 23.8952 15.3335 22.7077C14.8335 21.5202 14.5835 20.3743 14.5835 19.291C14.5835 18.5827 14.7085 17.8952 14.9585 17.2702C15.2085 16.6243 15.6043 16.041 16.1668 15.5202C16.8335 14.8535 17.5626 14.541 18.3335 14.541C18.6251 14.541 18.9169 14.6035 19.1877 14.7285C19.4585 14.8535 19.7085 15.041 19.896 15.3118L22.2919 18.7493C22.4794 19.0202 22.6252 19.2493 22.7085 19.4785C22.8127 19.7077 22.8543 19.916 22.8543 20.1244C22.8543 20.3744 22.771 20.6243 22.6251 20.8743C22.4793 21.1243 22.2919 21.3743 22.0419 21.6243L21.2502 22.4577C21.1252 22.5827 21.0835 22.7077 21.0835 22.8743C21.0835 22.9577 21.1044 23.041 21.1252 23.1243C21.1669 23.2077 21.1876 23.2702 21.2085 23.3327C21.396 23.6868 21.7294 24.1243 22.1877 24.666C22.6669 25.2077 23.1668 25.7702 23.7085 26.3118C24.271 26.8743 24.8126 27.3743 25.3751 27.8535C25.9168 28.3118 26.3752 28.6243 26.7294 28.8118C26.7919 28.8327 26.8543 28.8743 26.9168 28.8952C27.0001 28.9368 27.0835 28.9368 27.1876 28.9368C27.3751 28.9368 27.5002 28.8743 27.6252 28.7493L28.4169 27.9577C28.6877 27.6868 28.9377 27.4993 29.1668 27.3743C29.4168 27.2285 29.646 27.1452 29.9168 27.1452C30.1251 27.1452 30.3335 27.1868 30.5626 27.291C30.7918 27.3952 31.0419 27.5202 31.2919 27.7077L34.7501 30.166C35.021 30.3535 35.2085 30.5827 35.3335 30.8327C35.3544 31.0618 35.4168 31.3118 35.4168 31.6035Z" fill="#EA6352"/>
</svg>
