<svg width="120" height="120" viewBox="0 0 120 120" fill="none" xmlns="http://www.w3.org/2000/svg">
<path opacity="0.4" d="M96.2 27.8998H94.2L77.3 10.9998C75.95 9.6498 73.75 9.6498 72.35 10.9998C71 12.3498 71 14.5498 72.35 15.9498L84.3 27.8998H35.7L47.65 15.9498C49 14.5998 49 12.3998 47.65 10.9998C46.3 9.6498 44.1 9.6498 42.7 10.9998L25.85 27.8998H23.85C19.35 27.8998 10 27.8998 10 40.6998C10 45.5498 11 48.7498 13.1 50.8498C14.3 52.0998 15.75 52.7498 17.3 53.0998C18.75 53.4498 20.3 53.4998 21.8 53.4998H98.2C99.75 53.4998 101.2 53.3998 102.6 53.0998C106.8 52.0998 110 49.0998 110 40.6998C110 27.8998 100.65 27.8998 96.2 27.8998Z" fill="#EEC800"/>
<path d="M98.2998 53.4998H21.7998C20.3498 53.4998 18.7498 53.4498 17.2998 53.0498L23.5998 91.4998C25.0498 100.1 28.7998 110 45.4498 110H73.4998C90.3498 110 93.3498 101.55 95.1498 92.0998L102.7 53.0498C101.3 53.3998 99.7998 53.4998 98.2998 53.4998ZM69.5998 89.4498C68.8498 90.1998 67.8998 90.5498 66.9498 90.5498C65.9998 90.5498 65.0498 90.1998 64.2998 89.4498L60.0498 85.1998L55.6498 89.5998C54.8998 90.3498 53.9498 90.6998 52.9998 90.6998C52.0498 90.6998 51.0998 90.3498 50.3498 89.5998C48.8998 88.1498 48.8998 85.7498 50.3498 84.2998L54.7498 79.8998L50.4998 75.6498C49.0498 74.1998 49.0498 71.7998 50.4998 70.3498C51.9498 68.8998 54.3498 68.8998 55.7998 70.3498L60.0498 74.5998L64.1498 70.4998C65.5998 69.0498 67.9998 69.0498 69.4498 70.4998C70.8998 71.9498 70.8998 74.3498 69.4498 75.7998L65.3498 79.8998L69.5998 84.1498C71.0998 85.6498 71.0998 87.9998 69.5998 89.4498Z" fill="#EEC800"/>
</svg>
