<svg width="145" height="145" viewBox="0 0 145 145" fill="none" xmlns="http://www.w3.org/2000/svg">
<path d="M126.21 78.542V84.5837H120.954C116.483 84.5837 112.858 88.2087 112.858 92.7399V94.5524C112.858 99.0837 109.233 102.709 104.702 102.709C100.231 102.709 96.6062 99.0837 96.6062 94.5524V92.7399C96.6062 88.2087 92.9208 84.5837 88.45 84.5837C83.9791 84.5837 80.3541 88.2087 80.3541 92.7399V94.5524C80.3541 99.0837 76.6687 102.709 72.1979 102.709C67.7271 102.709 64.0416 99.0837 64.0416 94.5524V92.7399C64.0416 88.2087 60.4166 84.5837 55.9458 84.5837C51.475 84.5837 47.7896 88.2087 47.7896 92.7399V94.5524C47.7896 99.0837 44.1646 102.709 39.6937 102.709C35.1625 102.709 31.5375 99.0837 31.5375 94.5524V92.6191C31.5375 88.1482 27.9729 84.5232 23.5625 84.4628H18.7896V78.542C18.7896 70.2045 25.0729 63.1357 33.5916 61.0816C35.2833 60.6587 37.0354 60.417 38.9083 60.417H106.092C107.965 60.417 109.717 60.6587 111.408 61.0816C119.927 63.1357 126.21 70.2045 126.21 78.542Z" fill="#EA6352"/>
<path opacity="0.4" d="M111.408 43.3184V61.0809C109.717 60.658 107.965 60.4163 106.092 60.4163H38.9085C37.0355 60.4163 35.2835 60.658 33.5918 61.0809V43.3184C33.5918 36.0684 40.1168 30.208 48.2126 30.208H96.7876C104.883 30.208 111.408 36.0684 111.408 43.3184Z" fill="#EA6352"/>
<path d="M52.8647 21.4476V30.2684H48.2127C46.6418 30.2684 45.1918 30.4497 43.8022 30.8122V21.4476C43.8022 19.333 45.8564 17.5205 48.3335 17.5205C50.8106 17.5205 52.8647 19.333 52.8647 21.4476Z" fill="#EA6352"/>
<path d="M101.198 20.1191V30.8129C99.8082 30.39 98.3582 30.2087 96.7873 30.2087H92.1353V20.1191C92.1353 17.6421 94.1894 15.5879 96.6665 15.5879C99.1436 15.5879 101.198 17.6421 101.198 20.1191Z" fill="#EA6352"/>
<path d="M77.0312 17.0372V30.208H67.9688V17.0372C67.9688 14.3184 70.0229 12.083 72.5 12.083C74.9771 12.083 77.0312 14.3184 77.0312 17.0372Z" fill="#EA6352"/>
<path opacity="0.4" d="M128.386 123.855H126.211V84.5837H120.954C116.484 84.5837 112.859 88.2087 112.859 92.74V94.5525C112.859 99.0837 109.233 102.709 104.702 102.709C100.231 102.709 96.6064 99.0837 96.6064 94.5525V92.74C96.6064 88.2087 92.921 84.5837 88.4502 84.5837C83.9793 84.5837 80.3543 88.2087 80.3543 92.74V94.5525C80.3543 99.0837 76.6689 102.709 72.1981 102.709C67.7272 102.709 64.0418 99.0837 64.0418 94.5525V92.74C64.0418 88.2087 60.4168 84.5837 55.946 84.5837C51.4752 84.5837 47.7897 88.2087 47.7897 92.74V94.5525C47.7897 99.0837 44.1647 102.709 39.6939 102.709C35.1627 102.709 31.5377 99.0837 31.5377 94.5525V92.6191C31.5377 88.1483 27.9731 84.5233 23.5627 84.4629H18.7897V123.855H16.6147C14.1377 123.855 12.0835 125.909 12.0835 128.386C12.0835 130.863 14.1377 132.917 16.6147 132.917H18.7897H126.211H128.386C130.863 132.917 132.917 130.863 132.917 128.386C132.917 125.909 130.863 123.855 128.386 123.855Z" fill="#EA6352"/>
</svg>
